<?xml version="1.0" encoding="UTF-8" standalone="no"?>
<svg
   version="1.1"
   viewBox="0 0 815.4646 415.84253"
   fill="none"
   stroke="none"
   stroke-linecap="square"
   stroke-miterlimit="10"
   id="svg141"
   sodipodi:docname="moorer-fig-4.svg"
   width="815.4646"
   height="415.84253"
   inkscape:version="1.2.2 (732a01da63, 2022-12-09)"
   xmlns:inkscape="http://www.inkscape.org/namespaces/inkscape"
   xmlns:sodipodi="http://sodipodi.sourceforge.net/DTD/sodipodi-0.dtd"
   xmlns="http://www.w3.org/2000/svg"
   xmlns:svg="http://www.w3.org/2000/svg">
  <defs
     id="defs145" />
  <sodipodi:namedview
     id="namedview143"
     pagecolor="#505050"
     bordercolor="#eeeeee"
     borderopacity="1"
     inkscape:showpageshadow="0"
     inkscape:pageopacity="0"
     inkscape:pagecheckerboard="0"
     inkscape:deskcolor="#505050"
     showgrid="false"
     inkscape:zoom="0.89124917"
     inkscape:cx="417.9527"
     inkscape:cy="307.43367"
     inkscape:window-width="1920"
     inkscape:window-height="1017"
     inkscape:window-x="1912"
     inkscape:window-y="-8"
     inkscape:window-maximized="1"
     inkscape:current-layer="g139" />
  <clipPath
     id="g2c5e6c13043_0_109.0">
    <path
       d="M 0,0 H 960 V 540 H 0 Z"
       clip-rule="nonzero"
       id="path2" />
  </clipPath>
  <g
     clip-path="url(#g2c5e6c13043_0_109.0)"
     id="g139"
     transform="translate(-72.267715,-24.64567)">
    <path
       fill="#28282a"
       d="m 72.267715,65.61863 v 0 c 0,-22.628738 18.344223,-40.97296 40.972955,-40.97296 h 733.5187 c 10.8667,0 21.28833,4.316782 28.97223,12.000704 7.68396,7.683918 12.00074,18.105553 12.00074,28.972256 v 333.8966 c 0,22.62875 -18.34424,40.97296 -40.97296,40.97296 h -733.5187 c -22.628742,0 -40.972964,-18.34421 -40.972964,-40.97296 z"
       fill-rule="evenodd"
       id="path7" />
    <path
       stroke="#303030"
       stroke-width="1"
       stroke-linejoin="round"
       stroke-linecap="butt"
       d="m 72.267715,65.61863 v 0 c 0,-22.628738 18.344223,-40.97296 40.972955,-40.97296 h 733.5187 c 10.8667,0 21.28833,4.316782 28.97223,12.000704 7.68396,7.683918 12.00074,18.105553 12.00074,28.972256 v 333.8966 c 0,22.62875 -18.34424,40.97296 -40.97296,40.97296 h -733.5187 c -22.628742,0 -40.972964,-18.34421 -40.972964,-40.97296 z"
       fill-rule="evenodd"
       id="path9" />
    <path
       fill="#000000"
       fill-opacity="0"
       d="m 303.7874,282.0129 -64.72443,-0.25198"
       fill-rule="evenodd"
       id="path11" />
    <path
       stroke="#c2c2c2"
       stroke-width="2"
       stroke-linejoin="round"
       stroke-linecap="butt"
       d="m 291.78748,281.9662 -52.72449,-0.20526"
       fill-rule="evenodd"
       id="path13" />
    <path
       fill="#c2c2c2"
       stroke="#c2c2c2"
       stroke-width="2"
       stroke-linecap="butt"
       d="m 291.77463,285.26962 9.08899,-3.2681 -9.06326,-3.33877 z"
       fill-rule="evenodd"
       id="path15" />
    <path
       fill="#000000"
       fill-opacity="0"
       d="m 218.59842,281.8082 -0.40944,0.40942"
       fill-rule="evenodd"
       id="path17" />
    <path
       stroke="#c2c2c2"
       stroke-width="4"
       stroke-linejoin="round"
       stroke-linecap="butt"
       d="m 218.59842,281.80817 -0.40944,0.40945"
       fill-rule="evenodd"
       id="path19" />
    <path
       stroke="#c2c2c2"
       stroke-width="4"
       stroke-linecap="butt"
       d="m 218.59842,288.4151 18.15239,-6.60693 -18.15239,-6.60694 z"
       fill-rule="evenodd"
       id="path21" />
    <path
       fill="#000000"
       fill-opacity="0"
       d="m 740.95276,281.8082 -0.40942,0.40942"
       fill-rule="evenodd"
       id="path23" />
    <path
       stroke="#c2c2c2"
       stroke-width="4"
       stroke-linejoin="round"
       stroke-linecap="butt"
       d="m 740.95276,281.80817 -0.40942,0.40945"
       fill-rule="evenodd"
       id="path25" />
    <path
       stroke="#c2c2c2"
       stroke-width="4"
       stroke-linecap="butt"
       d="m 740.95276,288.4151 18.15241,-6.60693 -18.15241,-6.60694 z"
       fill-rule="evenodd"
       id="path27" />
    <path
       fill="#000000"
       fill-opacity="0"
       d="M 293.3071,24.64567 H 666.69293 V 96.3937 H 293.3071 Z"
       fill-rule="evenodd"
       id="path29" />
    <path
       fill="#ffffff"
       d="m 446.35687,63.71692 h -6.28125 l -1,2.96875 h -4.29687 l 6.09375,-16.84375 h 4.75 l 6.09375,16.84375 h -4.34375 z m -1.04687,-3.171875 -2.09375,-6.171875 -2.0625,6.171875 z m 12.3598,-11.625 V 66.68567 h -4.10938 V 48.920045 Z m 7.07998,0 V 66.68567 h -4.10937 V 48.920045 Z m 7.07999,6.265625 q 0.59375,-0.9375 1.64063,-1.5 1.0625,-0.578125 2.48437,-0.578125 1.65625,0 3,0.84375 1.34375,0.828125 2.125,2.390625 0.78125,1.5625 0.78125,3.625 0,2.0625 -0.78125,3.640625 -0.78125,1.5625 -2.125,2.421875 -1.34375,0.84375 -3,0.84375 -1.39062,0 -2.46875,-0.5625 -1.0625,-0.578125 -1.65625,-1.5 v 8.265625 h -4.10937 v -19.78125 h 4.10937 z m 5.85938,4.78125 q 0,-1.53125 -0.85938,-2.40625 -0.84375,-0.890625 -2.09375,-0.890625 -1.23437,0 -2.09375,0.890625 -0.84375,0.890625 -0.84375,2.421875 0,1.546875 0.84375,2.4375 0.85938,0.875 2.09375,0.875 1.21875,0 2.07813,-0.890625 0.875,-0.90625 0.875,-2.4375 z m 5.5147,0 q 0,-2.0625 0.78125,-3.625 0.78125,-1.5625 2.125,-2.390625 1.34375,-0.84375 3,-0.84375 1.40625,0 2.46875,0.578125 1.07813,0.5625 1.65625,1.5 v -1.890625 h 4.10938 V 66.68567 h -4.10938 v -1.890625 q -0.59375,0.9375 -1.67187,1.515625 -1.0625,0.5625 -2.48438,0.5625 -1.625,0 -2.96875,-0.84375 -1.34375,-0.859375 -2.125,-2.421875 -0.78125,-1.578125 -0.78125,-3.640625 z m 10.03125,0.01563 q 0,-1.53125 -0.85937,-2.421875 -0.84375,-0.890625 -2.0625,-0.890625 -1.23438,0 -2.09375,0.890625 -0.84375,0.875 -0.84375,2.40625 0,1.53125 0.84375,2.4375 0.85937,0.890625 2.09375,0.890625 1.21875,0 2.0625,-0.875 0.85937,-0.890625 0.85937,-2.4375 z m 12.53034,6.890625 q -1.75,0 -3.125,-0.59375 -1.35938,-0.609375 -2.15625,-1.640625 -0.79688,-1.046875 -0.89063,-2.34375 h 4.0625 q 0.0625,0.6875 0.64063,1.125 0.57812,0.4375 1.42187,0.4375 0.76563,0 1.1875,-0.296875 0.42188,-0.3125 0.42188,-0.78125 0,-0.578125 -0.60938,-0.859375 -0.59375,-0.28125 -1.9375,-0.609375 -1.4375,-0.34375 -2.40625,-0.703125 -0.95312,-0.375 -1.65625,-1.171875 -0.6875,-0.8125 -0.6875,-2.1875 0,-1.140625 0.625,-2.09375 0.64063,-0.953125 1.875,-1.5 1.23438,-0.546875 2.9375,-0.546875 2.53125,0 3.98438,1.25 1.45312,1.234375 1.65625,3.296875 h -3.78125 q -0.0937,-0.6875 -0.60938,-1.09375 -0.51562,-0.40625 -1.35937,-0.40625 -0.71875,0 -1.10938,0.28125 -0.375,0.265625 -0.375,0.75 0,0.578125 0.60938,0.859375 0.60937,0.28125 1.90625,0.578125 1.48437,0.375 2.42187,0.75 0.9375,0.375 1.64063,1.203125 0.71875,0.828125 0.73437,2.21875 0,1.171875 -0.65625,2.109375 -0.65625,0.921875 -1.90625,1.453125 -1.23437,0.515625 -2.85937,0.515625 z m 13.39197,0 q -1.75,0 -3.125,-0.59375 -1.35938,-0.609375 -2.15625,-1.640625 -0.79688,-1.046875 -0.89063,-2.34375 h 4.0625 q 0.0625,0.6875 0.64063,1.125 0.57812,0.4375 1.42187,0.4375 0.76563,0 1.1875,-0.296875 0.42188,-0.3125 0.42188,-0.78125 0,-0.578125 -0.60938,-0.859375 -0.59375,-0.28125 -1.9375,-0.609375 -1.4375,-0.34375 -2.40625,-0.703125 -0.95312,-0.375 -1.65625,-1.171875 -0.6875,-0.8125 -0.6875,-2.1875 0,-1.140625 0.625,-2.09375 0.64063,-0.953125 1.875,-1.5 1.23438,-0.546875 2.9375,-0.546875 2.53125,0 3.98438,1.25 1.45312,1.234375 1.65625,3.296875 h -3.78125 q -0.0937,-0.6875 -0.60938,-1.09375 -0.51562,-0.40625 -1.35937,-0.40625 -0.71875,0 -1.10938,0.28125 -0.375,0.265625 -0.375,0.75 0,0.578125 0.60938,0.859375 0.60937,0.28125 1.90625,0.578125 1.48437,0.375 2.42187,0.75 0.9375,0.375 1.64063,1.203125 0.71875,0.828125 0.73437,2.21875 0,1.171875 -0.65625,2.109375 -0.65625,0.921875 -1.90625,1.453125 -1.23437,0.515625 -2.85937,0.515625 z"
       fill-rule="nonzero"
       id="path31" />
    <path
       fill="#c2c2c2"
       d="m 303.7874,282.0129 v 0 c 0,-2.43527 1.97415,-4.40945 4.40942,-4.40945 v 0 c 1.16947,0 2.29105,0.46456 3.11795,1.2915 0.82694,0.82693 1.29151,1.94849 1.29151,3.11795 v 0 c 0,2.43527 -1.97418,4.40945 -4.40946,4.40945 v 0 c -2.43527,0 -4.40942,-1.97418 -4.40942,-4.40945 z"
       fill-rule="evenodd"
       id="path33" />
    <path
       stroke="#c2c2c2"
       stroke-width="1"
       stroke-linejoin="round"
       stroke-linecap="butt"
       d="m 303.7874,282.0129 v 0 c 0,-2.43527 1.97415,-4.40945 4.40942,-4.40945 v 0 c 1.16947,0 2.29105,0.46456 3.11795,1.2915 0.82694,0.82693 1.29151,1.94849 1.29151,3.11795 v 0 c 0,2.43527 -1.97418,4.40945 -4.40946,4.40945 v 0 c -2.43527,0 -4.40942,-1.97418 -4.40942,-4.40945 z"
       fill-rule="evenodd"
       id="path35" />
    <path
       fill="#f3f3f3"
       d="m 397.7953,258.7362 48.37793,23.2756 -48.37793,23.27561 z"
       fill-rule="evenodd"
       id="path37" />
    <path
       stroke="#303030"
       stroke-width="1"
       stroke-linejoin="round"
       stroke-linecap="butt"
       d="m 397.7953,258.7362 48.37793,23.2756 -48.37793,23.27561 z"
       fill-rule="evenodd"
       id="path39" />
    <path
       fill="#000000"
       fill-opacity="0"
       d="m 397.7953,272.51575 h 28.97638 v 19.05512 H 397.7953 Z"
       fill-rule="evenodd"
       id="path41" />
    <path
       fill="#000000"
       d="m 407.40634,283.3502 q 0.23437,-1.32813 0.95312,-2.34375 0.73438,-1.03125 1.79688,-1.59375 1.0625,-0.5625 2.20312,-0.5625 1.04688,0 1.75,0.40625 0.70313,0.40625 1.04688,1.01562 l 0.23437,-1.28125 h 1.84375 l -1.5625,8.8125 h -1.84375 l 0.25,-1.3125 q -0.57812,0.625 -1.45312,1.04688 -0.875,0.40625 -1.89063,0.40625 -1,0 -1.78125,-0.4375 -0.76562,-0.45313 -1.20312,-1.28125 -0.4375,-0.82813 -0.4375,-1.89063 0,-0.48437 0.0937,-0.98437 z m 7.21875,0.0312 q 0.0625,-0.29688 0.0625,-0.65625 0,-1.0625 -0.64063,-1.67188 -0.625,-0.625 -1.57812,-0.625 -0.70313,0 -1.375,0.34375 -0.67188,0.34375 -1.17188,1.01563 -0.48437,0.65625 -0.64062,1.5625 -0.0625,0.3125 -0.0625,0.65625 0,1.09375 0.625,1.73437 0.625,0.625 1.57812,0.625 0.70313,0 1.375,-0.34375 0.67188,-0.35937 1.15625,-1.03125 0.5,-0.6875 0.67188,-1.60937 z"
       fill-rule="nonzero"
       id="path43" />
    <path
       fill="#000000"
       fill-opacity="0"
       d="m 654.9134,281.79504 h 43.44879 v 0.063 h 43.44885"
       fill-rule="evenodd"
       id="path45" />
    <path
       stroke="#c2c2c2"
       stroke-width="2"
       stroke-linejoin="round"
       stroke-linecap="butt"
       d="m 654.9134,281.79504 h 43.44879 v 0.063 h 43.44885"
       fill-rule="evenodd"
       id="path47" />
    <path
       fill="#f3f3f3"
       d="m 511.96063,282.0444 v 0 c 0,-13.39398 10.85797,-24.25198 24.25195,-24.25198 v 0 c 6.43201,0 12.60065,2.55511 17.14875,7.10324 4.54815,4.54812 7.10321,10.7167 7.10321,17.14874 v 0 c 0,13.39398 -10.85797,24.25195 -24.25196,24.25195 v 0 c -13.39398,0 -24.25195,-10.85797 -24.25195,-24.25195 z"
       fill-rule="evenodd"
       id="path49" />
    <path
       stroke="#303030"
       stroke-width="1"
       stroke-linejoin="round"
       stroke-linecap="butt"
       d="m 511.96063,282.0444 v 0 c 0,-13.39398 10.85797,-24.25198 24.25195,-24.25198 v 0 c 6.43201,0 12.60065,2.55511 17.14875,7.10324 4.54815,4.54812 7.10321,10.7167 7.10321,17.14874 v 0 c 0,13.39398 -10.85797,24.25195 -24.25196,24.25195 v 0 c -13.39398,0 -24.25195,-10.85797 -24.25195,-24.25195 z"
       fill-rule="evenodd"
       id="path51" />
    <path
       fill="#000000"
       d="m 542.2165,273.3969 v 2.03125 h -9.21875 l 5.85937,6.23438 -5.85937,6.89062 h 9.70312 v 2.03125 H 530.529 v -2.375 l 5.60937,-6.54687 -5.60937,-5.96875 v -2.29688 z"
       fill-rule="nonzero"
       id="path53" />
    <path
       fill="#f3f3f3"
       d="m 397.73096,361.64435 h 48.50394 v 48.50394 h -48.50394 z"
       fill-rule="evenodd"
       id="path55" />
    <path
       stroke="#303030"
       stroke-width="1"
       stroke-linejoin="round"
       stroke-linecap="butt"
       d="m 397.73096,361.64435 h 48.50394 v 48.50394 h -48.50394 z"
       fill-rule="evenodd"
       id="path57" />
    <path
       fill="#000000"
       d="m 410.05014,390.1782 h 5.17187 v 1.57812 h -7.32812 v -1.42187 l 5.15625,-8.10938 h -5.15625 v -1.59375 h 7.32812 v 1.42188 z"
       fill-rule="nonzero"
       id="path59" />
    <path
       fill="#000000"
       d="m 421.33752,381.38132 v 1.03125 h -4.39063 v -1.03125 z"
       fill-rule="nonzero"
       id="path61" />
    <path
       fill="#000000"
       d="m 430.66525,379.78757 q 0.92188,0 1.46875,0.5 0.5625,0.5 0.5625,1.42188 0,0.25 -0.0469,0.57812 l -0.625,3.46875 h -1.20313 l 0.59375,-3.28125 q 0.0469,-0.29687 0.0469,-0.42187 0,-0.59375 -0.32813,-0.89063 -0.32812,-0.3125 -0.90625,-0.3125 -0.6875,0 -1.17187,0.42188 -0.46875,0.40625 -0.59375,1.20312 l -0.59375,3.28125 h -1.20313 l 0.59375,-3.28125 q 0.0469,-0.29687 0.0469,-0.42187 0,-0.59375 -0.32813,-0.89063 -0.32812,-0.3125 -0.90625,-0.3125 -0.6875,0 -1.17187,0.42188 -0.46875,0.40625 -0.59375,1.20312 v -0.0312 l -0.59375,3.3125 H 422.509 l 1.03125,-5.875 h 1.21875 l -0.125,0.6875 q 0.35938,-0.35937 0.84375,-0.5625 0.5,-0.21875 1.03125,-0.21875 0.70313,0 1.20313,0.29688 0.51562,0.29687 0.71875,0.85937 0.34375,-0.53125 0.96875,-0.84375 0.625,-0.3125 1.26562,-0.3125 z"
       fill-rule="nonzero"
       id="path63" />
    <path
       fill="#000000"
       d="m 437.2372,390.53757 q -0.5625,0 -0.82813,0.21875 -0.26562,0.21875 -0.34375,0.71875 l -0.0781,0.40625 h 1.07812 l -0.17187,1 h -1.07813 l -0.85937,4.875 h -1.23438 l 0.85938,-4.875 h -0.6875 l 0.17187,-1 h 0.6875 l 0.0781,-0.40625 q 0.1875,-1.01562 0.79687,-1.48437 0.625,-0.46875 1.78125,-0.46875 z"
       fill-rule="nonzero"
       id="path65" />
    <path
       fill="#000000"
       fill-opacity="0"
       d="m 308.19684,286.42236 v 99.46457 h 89.5433"
       fill-rule="evenodd"
       id="path67" />
    <path
       stroke="#c2c2c2"
       stroke-width="2"
       stroke-linejoin="round"
       stroke-linecap="butt"
       d="m 308.19684,286.42233 v 99.4646 h 77.5433"
       fill-rule="evenodd"
       id="path69" />
    <path
       fill="#c2c2c2"
       stroke="#c2c2c2"
       stroke-width="2"
       stroke-linecap="butt"
       d="m 385.74014,389.1904 9.0762,-3.30347 -9.0762,-3.30346 z"
       fill-rule="evenodd"
       id="path71" />
    <path
       fill="#000000"
       fill-opacity="0"
       d="m 446.2349,385.89633 h 89.98428 v -79.59055"
       fill-rule="evenodd"
       id="path73" />
    <path
       stroke="#c2c2c2"
       stroke-width="2"
       stroke-linejoin="round"
       stroke-linecap="butt"
       d="m 446.2349,385.89633 h 89.98428 v -67.59055"
       fill-rule="evenodd"
       id="path75" />
    <path
       fill="#c2c2c2"
       stroke="#c2c2c2"
       stroke-width="2"
       stroke-linecap="butt"
       d="m 539.52264,318.3058 -3.30347,-9.0762 -3.30346,9.0762 z"
       fill-rule="evenodd"
       id="path77" />
    <path
       fill="#f3f3f3"
       d="m 626.2507,154.8517 h 48.50391 v 48.50394 H 626.2507 Z"
       fill-rule="evenodd"
       id="path79" />
    <path
       stroke="#303030"
       stroke-width="1"
       stroke-linejoin="round"
       stroke-linecap="butt"
       d="m 626.2507,154.8517 h 48.50391 v 48.50394 H 626.2507 Z"
       fill-rule="evenodd"
       id="path81" />
    <path
       fill="#000000"
       d="m 638.5698,183.38554 h 5.17187 v 1.57812 h -7.32812 v -1.42187 l 5.15625,-8.10938 h -5.15625 v -1.59375 h 7.32812 v 1.42188 z"
       fill-rule="nonzero"
       id="path83" />
    <path
       fill="#000000"
       d="m 649.85724,174.58867 v 1.03125 h -4.39062 v -1.03125 z"
       fill-rule="nonzero"
       id="path85" />
    <path
       fill="#000000"
       d="m 659.18494,172.99492 q 0.92187,0 1.46875,0.5 0.5625,0.5 0.5625,1.42187 0,0.25 -0.0469,0.57813 l -0.625,3.46875 h -1.20312 l 0.59375,-3.28125 q 0.0469,-0.29688 0.0469,-0.42188 0,-0.59375 -0.32812,-0.89062 -0.32813,-0.3125 -0.90625,-0.3125 -0.6875,0 -1.17188,0.42187 -0.46875,0.40625 -0.59375,1.20313 l -0.59375,3.28125 h -1.20312 l 0.59375,-3.28125 q 0.0469,-0.29688 0.0469,-0.42188 0,-0.59375 -0.32812,-0.89062 -0.32813,-0.3125 -0.90625,-0.3125 -0.6875,0 -1.17188,0.42187 -0.46875,0.40625 -0.59375,1.20313 v -0.0312 l -0.59375,3.3125 h -1.20312 l 1.03125,-5.875 h 1.21875 l -0.125,0.6875 q 0.35937,-0.35938 0.84375,-0.5625 0.5,-0.21875 1.03125,-0.21875 0.70312,0 1.20312,0.29687 0.51563,0.29688 0.71875,0.85938 0.34375,-0.53125 0.96875,-0.84375 0.625,-0.3125 1.26563,-0.3125 z"
       fill-rule="nonzero"
       id="path87" />
    <path
       fill="#000000"
       d="m 665.7569,183.74492 q -0.5625,0 -0.82813,0.21875 -0.26562,0.21875 -0.34375,0.71875 l -0.0781,0.40625 h 1.07812 l -0.17187,1 h -1.07813 l -0.85937,4.875 h -1.23438 l 0.85938,-4.875 h -0.6875 l 0.17187,-1 h 0.6875 l 0.0781,-0.40625 q 0.1875,-1.01563 0.79687,-1.48438 0.625,-0.46875 1.78125,-0.46875 z"
       fill-rule="nonzero"
       id="path89" />
    <path
       fill="#f3f3f3"
       d="m 397.7953,155.82808 48.37793,23.27559 -48.37793,23.2756 z"
       fill-rule="evenodd"
       id="path91" />
    <path
       stroke="#303030"
       stroke-width="1"
       stroke-linejoin="round"
       stroke-linecap="butt"
       d="m 397.7953,155.82808 48.37793,23.27559 -48.37793,23.2756 z"
       fill-rule="evenodd"
       id="path93" />
    <path
       fill="#000000"
       fill-opacity="0"
       d="m 397.7953,169.57611 h 28.97638 v 19.05513 H 397.7953 Z"
       fill-rule="evenodd"
       id="path95" />
    <path
       fill="#000000"
       d="m 410.47632,178.30118 -0.26563,1.53125 h -6.57812 l 0.28125,-1.53125 z m 1.61002,2.10937 q 0.23437,-1.32812 0.95312,-2.34375 0.73438,-1.03125 1.79688,-1.59375 1.0625,-0.5625 2.20312,-0.5625 1.04688,0 1.75,0.40625 0.70313,0.40625 1.04688,1.01563 l 0.23437,-1.28125 h 1.84375 l -1.5625,8.8125 h -1.84375 l 0.25,-1.3125 q -0.57812,0.625 -1.45312,1.04687 -0.875,0.40625 -1.89063,0.40625 -1,0 -1.78125,-0.4375 -0.76562,-0.45312 -1.20312,-1.28125 -0.4375,-0.82812 -0.4375,-1.89062 0,-0.48438 0.0937,-0.98438 z m 7.21875,0.0312 q 0.0625,-0.29687 0.0625,-0.65625 0,-1.0625 -0.64063,-1.67187 -0.625,-0.625 -1.57812,-0.625 -0.70313,0 -1.375,0.34375 -0.67188,0.34375 -1.17188,1.01562 -0.48437,0.65625 -0.64062,1.5625 -0.0625,0.3125 -0.0625,0.65625 0,1.09375 0.625,1.73438 0.625,0.625 1.57812,0.625 0.70313,0 1.375,-0.34375 0.67188,-0.35938 1.15625,-1.03125 0.5,-0.6875 0.67188,-1.60938 z"
       fill-rule="nonzero"
       id="path97" />
    <path
       fill="#c2c2c2"
       d="m 646.0945,281.79504 v 0 c 0,-2.43524 1.97418,-4.40942 4.40949,-4.40942 v 0 c 1.16943,0 2.29101,0.46457 3.11792,1.29147 0.8269,0.82693 1.2915,1.94852 1.2915,3.11795 v 0 c 0,2.43527 -1.97418,4.40945 -4.40943,4.40945 v 0 c -2.4353,0 -4.40948,-1.97418 -4.40948,-4.40945 z"
       fill-rule="evenodd"
       id="path99" />
    <path
       stroke="#c2c2c2"
       stroke-width="1"
       stroke-linejoin="round"
       stroke-linecap="butt"
       d="m 646.0945,281.79504 v 0 c 0,-2.43524 1.97418,-4.40942 4.40949,-4.40942 v 0 c 1.16943,0 2.29101,0.46457 3.11792,1.29147 0.8269,0.82693 1.2915,1.94852 1.2915,3.11795 v 0 c 0,2.43527 -1.97418,4.40945 -4.40943,4.40945 v 0 c -2.4353,0 -4.40948,-1.97418 -4.40948,-4.40945 z"
       fill-rule="evenodd"
       id="path101" />
    <path
       fill="#000000"
       fill-opacity="0"
       d="m 560.46454,282.0444 85.63782,-0.25198"
       fill-rule="evenodd"
       id="path103" />
    <path
       stroke="#c2c2c2"
       stroke-width="2"
       stroke-linejoin="round"
       stroke-linecap="butt"
       d="m 560.46454,282.0444 73.63788,-0.21667"
       fill-rule="evenodd"
       id="path105" />
    <path
       fill="#c2c2c2"
       stroke="#c2c2c2"
       stroke-width="2"
       stroke-linecap="butt"
       d="m 634.1121,285.1312 9.06647,-3.33017 -9.08588,-3.27673 z"
       fill-rule="evenodd"
       id="path107" />
    <path
       fill="#000000"
       fill-opacity="0"
       d="m 446.17322,282.0118 65.79529,0.0315"
       fill-rule="evenodd"
       id="path109" />
    <path
       stroke="#c2c2c2"
       stroke-width="2"
       stroke-linejoin="round"
       stroke-linecap="butt"
       d="m 446.17322,282.0118 53.79529,0.0258"
       fill-rule="evenodd"
       id="path111" />
    <path
       fill="#c2c2c2"
       stroke="#c2c2c2"
       stroke-width="2"
       stroke-linecap="butt"
       d="m 499.96692,285.34103 9.07779,-3.29913 -9.07462,-3.3078 z"
       fill-rule="evenodd"
       id="path113" />
    <path
       fill="#000000"
       fill-opacity="0"
       d="m 312.6063,282.0129 85.19687,0.0315"
       fill-rule="evenodd"
       id="path115" />
    <path
       stroke="#c2c2c2"
       stroke-width="2"
       stroke-linejoin="round"
       stroke-linecap="butt"
       d="m 312.6063,282.0129 73.19687,0.0271"
       fill-rule="evenodd"
       id="path117" />
    <path
       fill="#c2c2c2"
       stroke="#c2c2c2"
       stroke-width="2"
       stroke-linecap="butt"
       d="m 385.80194,285.3434 9.07739,-3.30011 -9.07495,-3.30682 z"
       fill-rule="evenodd"
       id="path119" />
    <path
       fill="#000000"
       fill-opacity="0"
       d="M 650.50397,277.38562 V 203.36986"
       fill-rule="evenodd"
       id="path121" />
    <path
       stroke="#c2c2c2"
       stroke-width="2"
       stroke-linejoin="round"
       stroke-linecap="butt"
       d="M 650.50397,277.3856 V 215.36987"
       fill-rule="evenodd"
       id="path123" />
    <path
       fill="#c2c2c2"
       stroke="#c2c2c2"
       stroke-width="2"
       stroke-linecap="butt"
       d="m 653.8074,215.36986 -3.30341,-9.0762 -3.30346,9.0762 z"
       fill-rule="evenodd"
       id="path125" />
    <path
       fill="#000000"
       fill-opacity="0"
       d="M 650.5026,154.8517 V 129.85181 H 372.79563 v 49.25186 h 25.01407"
       fill-rule="evenodd"
       id="path127" />
    <path
       stroke="#c2c2c2"
       stroke-width="2"
       stroke-linejoin="round"
       stroke-linecap="butt"
       d="M 650.5026,154.8517 V 129.85181 H 372.79563 v 49.25186 h 13.01407"
       fill-rule="evenodd"
       id="path129" />
    <path
       fill="#c2c2c2"
       stroke="#c2c2c2"
       stroke-width="2"
       stroke-linecap="butt"
       d="m 385.80972,182.40714 9.07617,-3.30347 -9.07617,-3.30345 z"
       fill-rule="evenodd"
       id="path131" />
    <path
       fill="#000000"
       fill-opacity="0"
       d="m 446.17322,179.10367 h 90.04724 v 78.67718"
       fill-rule="evenodd"
       id="path133" />
    <path
       stroke="#c2c2c2"
       stroke-width="2"
       stroke-linejoin="round"
       stroke-linecap="butt"
       d="m 446.17322,179.10367 h 90.04724 v 66.67717"
       fill-rule="evenodd"
       id="path135" />
    <path
       fill="#c2c2c2"
       stroke="#c2c2c2"
       stroke-width="2"
       stroke-linecap="butt"
       d="m 532.917,245.78084 3.30347,9.0762 3.30346,-9.0762 z"
       fill-rule="evenodd"
       id="path137" />
  </g>
</svg>
