<?xml version="1.0" encoding="UTF-8" standalone="no"?>
<svg
   version="1.1"
   viewBox="0 0 815.4646 490.70862"
   fill="none"
   stroke="none"
   stroke-linecap="square"
   stroke-miterlimit="10"
   id="svg267"
   sodipodi:docname="moorer-fig-3.svg"
   inkscape:version="1.2.2 (732a01da63, 2022-12-09)"
   width="815.4646"
   height="490.70862"
   xmlns:inkscape="http://www.inkscape.org/namespaces/inkscape"
   xmlns:sodipodi="http://sodipodi.sourceforge.net/DTD/sodipodi-0.dtd"
   xmlns="http://www.w3.org/2000/svg"
   xmlns:svg="http://www.w3.org/2000/svg">
  <defs
     id="defs271" />
  <sodipodi:namedview
     id="namedview269"
     pagecolor="#505050"
     bordercolor="#eeeeee"
     borderopacity="1"
     inkscape:showpageshadow="0"
     inkscape:pageopacity="0"
     inkscape:pagecheckerboard="0"
     inkscape:deskcolor="#505050"
     showgrid="false"
     inkscape:zoom="1.2604167"
     inkscape:cx="288.39669"
     inkscape:cy="245.15702"
     inkscape:window-width="1920"
     inkscape:window-height="1017"
     inkscape:window-x="1912"
     inkscape:window-y="-8"
     inkscape:window-maximized="1"
     inkscape:current-layer="g265" />
  <clipPath
     id="g2c5e6c13043_0_0.0">
    <path
       d="M 0,0 H 960 V 540 H 0 Z"
       clip-rule="nonzero"
       id="path2" />
  </clipPath>
  <g
     clip-path="url(#g2c5e6c13043_0_0.0)"
     id="g265"
     transform="translate(-72.267713,-24.645665)">
    <path
       fill="#28282a"
       d="m 72.267715,72.99519 v 0 c 0,-26.702705 21.64682,-48.349525 48.349525,-48.349525 h 718.7655 c 12.82312,0 25.12097,5.093952 34.18829,14.161245 9.06726,9.067295 14.16126,21.365189 14.16126,34.18828 v 394.00958 c 0,26.70273 -21.64685,48.34952 -48.34955,48.34952 h -718.7655 c -26.702707,0 -48.349527,-21.64679 -48.349527,-48.34952 z"
       fill-rule="evenodd"
       id="path7" />
    <path
       stroke="#303030"
       stroke-width="1"
       stroke-linejoin="round"
       stroke-linecap="butt"
       d="m 72.267715,72.99519 v 0 c 0,-26.702705 21.64682,-48.349525 48.349525,-48.349525 h 718.7655 c 12.82312,0 25.12097,5.093952 34.18829,14.161245 9.06726,9.067295 14.16126,21.365189 14.16126,34.18828 v 394.00958 c 0,26.70273 -21.64685,48.34952 -48.34955,48.34952 h -718.7655 c -26.702707,0 -48.349527,-21.64679 -48.349527,-48.34952 z"
       fill-rule="evenodd"
       id="path9" />
    <path
       fill="#000000"
       fill-opacity="0"
       d="m 213.16273,154.86156 v 0 c 0,-18.2794 14.81838,-33.09778 33.09776,-33.09778 h 472.85956 c 8.77808,0 17.19666,3.48708 23.40369,9.69411 6.20703,6.20704 9.69409,14.62559 9.69409,23.40367 v 132.38713 c 0,18.27939 -14.81836,33.09778 -33.09778,33.09778 H 246.26049 c -18.27939,0 -33.09776,-14.81839 -33.09776,-33.09778 z"
       fill-rule="evenodd"
       id="path11" />
    <path
       stroke="#5441c4"
       stroke-width="2"
       stroke-linejoin="round"
       stroke-linecap="butt"
       stroke-dasharray="8, 6"
       d="m 213.16273,154.86156 v 0 c 0,-18.2794 14.81838,-33.09778 33.09776,-33.09778 h 472.85956 c 8.77808,0 17.19666,3.48708 23.40369,9.69411 6.20703,6.20704 9.69409,14.62559 9.69409,23.40367 v 132.38713 c 0,18.27939 -14.81836,33.09778 -33.09778,33.09778 H 246.26049 c -18.27939,0 -33.09776,-14.81839 -33.09776,-33.09778 z"
       fill-rule="evenodd"
       id="path13" />
    <path
       fill="#000000"
       fill-opacity="0"
       d="m 252.52493,397.55945 v 0 c 0,-10.36169 8.39981,-18.7615 18.76154,-18.7615 h 423.3273 c 4.97589,0 9.74798,1.97665 13.26641,5.49511 3.5185,3.51847 5.49512,8.29053 5.49512,13.26639 v 75.04388 c 0,10.3617 -8.39978,18.76154 -18.76153,18.76154 h -423.3273 c -10.36173,0 -18.76154,-8.39984 -18.76154,-18.76154 z"
       fill-rule="evenodd"
       id="path15" />
    <path
       stroke="#e395af"
       stroke-width="2"
       stroke-linejoin="round"
       stroke-linecap="butt"
       stroke-dasharray="8, 6"
       d="m 252.52493,397.55945 v 0 c 0,-10.36169 8.39981,-18.7615 18.76154,-18.7615 h 423.3273 c 4.97589,0 9.74798,1.97665 13.26641,5.49511 3.5185,3.51847 5.49512,8.29053 5.49512,13.26639 v 75.04388 c 0,10.3617 -8.39978,18.76154 -18.76153,18.76154 h -423.3273 c -10.36173,0 -18.76154,-8.39984 -18.76154,-18.76154 z"
       fill-rule="evenodd"
       id="path17" />
    <path
       fill="#000000"
       fill-opacity="0"
       d="m 335.9239,222.71239 v 5.92125"
       fill-rule="evenodd"
       id="path19" />
    <path
       stroke="#303030"
       stroke-width="1"
       stroke-linejoin="round"
       stroke-linecap="butt"
       d="m 335.9239,222.71239 v 5.92125"
       fill-rule="evenodd"
       id="path21" />
    <path
       fill="#f3f3f3"
       d="m 345.51706,225.65988 v 0 c 0,-13.39398 10.85797,-24.25197 24.25198,-24.25197 v 0 c 6.43201,0 12.60059,2.55512 17.14872,7.10324 4.54812,4.54813 7.10324,10.71671 7.10324,17.14873 v 0 c 0,13.394 -10.85797,24.25197 -24.25196,24.25197 v 0 c -13.39401,0 -24.25198,-10.85797 -24.25198,-24.25197 z"
       fill-rule="evenodd"
       id="path23" />
    <path
       stroke="#303030"
       stroke-width="1"
       stroke-linejoin="round"
       stroke-linecap="butt"
       d="m 345.51706,225.65988 v 0 c 0,-13.39398 10.85797,-24.25197 24.25198,-24.25197 v 0 c 6.43201,0 12.60059,2.55512 17.14872,7.10324 4.54812,4.54813 7.10324,10.71671 7.10324,17.14873 v 0 c 0,13.394 -10.85797,24.25197 -24.25196,24.25197 v 0 c -13.39401,0 -24.25198,-10.85797 -24.25198,-24.25197 z"
       fill-rule="evenodd"
       id="path25" />
    <path
       fill="#000000"
       d="m 375.77295,217.01239 v 2.03125 h -9.21875 l 5.85937,6.23437 -5.85937,6.89063 h 9.70312 v 2.03125 h -12.17187 v -2.375 l 5.60937,-6.54688 -5.60937,-5.96875 v -2.29687 z"
       fill-rule="nonzero"
       id="path27" />
    <path
       fill="#000000"
       fill-opacity="0"
       d="m 241.91339,225.90923 -64.72441,-0.25197"
       fill-rule="evenodd"
       id="path29" />
    <path
       stroke="#c2c2c2"
       stroke-width="2"
       stroke-linejoin="round"
       stroke-linecap="butt"
       d="m 229.91347,225.86252 -52.72449,-0.20526"
       fill-rule="evenodd"
       id="path31" />
    <path
       fill="#c2c2c2"
       stroke="#c2c2c2"
       stroke-width="2"
       stroke-linecap="butt"
       d="m 229.90062,229.16595 9.08899,-3.26811 -9.06328,-3.33878 z"
       fill-rule="evenodd"
       id="path33" />
    <path
       fill="#000000"
       fill-opacity="0"
       d="m 156.72441,225.70451 -0.40945,0.40944"
       fill-rule="evenodd"
       id="path35" />
    <path
       stroke="#c2c2c2"
       stroke-width="4"
       stroke-linejoin="round"
       stroke-linecap="butt"
       d="m 156.72441,225.7045 -0.40945,0.40945"
       fill-rule="evenodd"
       id="path37" />
    <path
       stroke="#c2c2c2"
       stroke-width="4"
       stroke-linecap="butt"
       d="m 156.72441,232.31143 18.15239,-6.60693 -18.15239,-6.60694 z"
       fill-rule="evenodd"
       id="path39" />
    <path
       fill="#000000"
       fill-opacity="0"
       d="m 780.0945,225.70451 -0.40942,0.40944"
       fill-rule="evenodd"
       id="path41" />
    <path
       stroke="#c2c2c2"
       stroke-width="4"
       stroke-linejoin="round"
       stroke-linecap="butt"
       d="m 780.0945,225.7045 -0.40942,0.40945"
       fill-rule="evenodd"
       id="path43" />
    <path
       stroke="#c2c2c2"
       stroke-width="4"
       stroke-linecap="butt"
       d="m 780.0945,232.31143 18.15241,-6.60693 -18.15241,-6.60694 z"
       fill-rule="evenodd"
       id="path45" />
    <path
       fill="#000000"
       fill-opacity="0"
       d="M 422.2257,74.111336 H 543.67455 V 121.76488 H 422.2257 Z"
       fill-rule="evenodd"
       id="path47" />
    <path
       fill="#5b49c9"
       d="m 459.2283,88.73196 q 2.4375,0 4.21875,0.90625 1.78125,0.90625 2.71875,2.59375 0.95312,1.671875 0.95312,3.953125 0,2.28125 -0.95312,3.968755 -0.9375,1.67187 -2.71875,2.5625 -1.78125,0.875 -4.21875,0.875 h -4.625 V 88.73196 Z m 0,13.26563 q 2.89062,0 4.39062,-1.53125 1.51563,-1.531255 1.51563,-4.281255 0,-2.765625 -1.53125,-4.3125 -1.51563,-1.5625 -4.375,-1.5625 h -2.6875 v 11.687505 z m 21.12592,-4.70313 q 0,0.5625 -0.0625,1.171875 h -9.34375 q 0.0937,1.734375 1.17187,2.703125 1.07813,0.96875 2.625,0.96875 1.25,0 2.09375,-0.57812 0.84375,-0.59375 1.1875,-1.57813 h 2.09375 q -0.46875,1.6875 -1.89062,2.75 -1.40625,1.04688 -3.48438,1.04688 -1.67187,0 -2.98437,-0.73438 -1.3125,-0.75 -2.0625,-2.125 -0.73438,-1.375 -0.73438,-3.1875 0,-1.8125 0.71875,-3.171875 0.73438,-1.375 2.03125,-2.109375 1.3125,-0.734375 3.03125,-0.734375 1.65625,0 2.9375,0.734375 1.28125,0.71875 1.96875,1.984375 0.70313,1.265625 0.70313,2.859375 z m -2.01563,-0.40625 q 0,-1.109375 -0.48437,-1.90625 -0.48438,-0.796875 -1.32813,-1.203125 -0.84375,-0.421875 -1.875,-0.421875 -1.46875,0 -2.5,0.9375 -1.03125,0.9375 -1.1875,2.59375 z m 6.50473,-9.078125 v 15.781255 h -1.9375 V 87.810085 Z m 2.59049,9.890625 q 0,-1.78125 0.71875,-3.140625 0.73437,-1.359375 2,-2.09375 1.26562,-0.75 2.82812,-0.75 1.53125,0 2.65625,0.65625 1.14063,0.65625 1.6875,1.65625 v -2.125 h 1.96875 v 11.687505 h -1.96875 v -2.17188 q -0.57812,1.01563 -1.71875,1.6875 -1.14062,0.67188 -2.65625,0.67188 -1.54687,0 -2.8125,-0.76563 -1.25,-0.76562 -1.98437,-2.14062 -0.71875,-1.39063 -0.71875,-3.17188 z m 9.89062,0.03125 q 0,-1.328125 -0.53125,-2.3125 -0.53125,-0.984375 -1.4375,-1.5 -0.90625,-0.515625 -2,-0.515625 -1.07812,0 -1.98437,0.515625 -0.89063,0.5 -1.42188,1.484375 -0.53125,0.984375 -0.53125,2.296875 0,1.34375 0.53125,2.34375 0.53125,0.98438 1.42188,1.51563 0.90625,0.51562 1.98437,0.51562 1.09375,0 2,-0.51562 0.90625,-0.53125 1.4375,-1.51563 0.53125,-1 0.53125,-2.3125 z m 15.3085,-5.828125 -7.03125,17.187505 h -2 l 2.29688,-5.625 -4.71875,-11.562505 h 2.15625 l 3.67187,9.468755 3.625,-9.468755 z"
       fill-rule="nonzero"
       id="path49" />
    <path
       fill="#000000"
       fill-opacity="0"
       d="m 422.2257,331.14545 h 121.44885 v 47.65356 H 422.2257 Z"
       fill-rule="evenodd"
       id="path51" />
    <path
       fill="#e395af"
       d="m 440.80057,359.04733 h 5.20312 v 1.57812 h -7.14062 v -14.85937 h 1.9375 z m 12.37003,1.76562 q -1.64063,0 -2.96875,-0.73437 -1.32813,-0.75 -2.09375,-2.125 -0.75,-1.375 -0.75,-3.1875 0,-1.79688 0.76562,-3.17188 0.78125,-1.375 2.125,-2.10937 1.34375,-0.73438 3.01563,-0.73438 1.65625,0 3,0.73438 1.34375,0.73437 2.125,2.10937 0.78125,1.35938 0.78125,3.17188 0,1.8125 -0.79688,3.1875 -0.79687,1.375 -2.17187,2.125 -1.35938,0.73437 -3.03125,0.73437 z m 0,-1.70312 q 1.04687,0 1.96875,-0.48438 0.92187,-0.5 1.48437,-1.46875 0.5625,-0.98437 0.5625,-2.39062 0,-1.40625 -0.5625,-2.39063 -0.54687,-0.98437 -1.45312,-1.45312 -0.89063,-0.48438 -1.9375,-0.48438 -1.0625,0 -1.95313,0.48438 -0.875,0.46875 -1.40625,1.45312 -0.53125,0.98438 -0.53125,2.39063 0,1.42187 0.51563,2.40625 0.53125,0.98437 1.39062,1.46875 0.875,0.46875 1.92188,0.46875 z m 24.13443,-10.17188 -3.65625,11.6875 h -2 l -2.8125,-9.28125 -2.82813,9.28125 h -2 l -3.67187,-11.6875 h 1.98437 l 2.6875,9.8125 2.90625,-9.8125 h 1.98438 l 2.82812,9.82813 2.65625,-9.82813 z m 3.84851,2.15625 q 0.57812,-1 1.71875,-1.67187 1.14062,-0.67188 2.65625,-0.67188 1.5625,0 2.82812,0.75 1.26563,0.73438 1.98438,2.09375 0.73437,1.35938 0.73437,3.14063 0,1.78125 -0.73437,3.17187 -0.71875,1.375 -1.98438,2.14063 -1.26562,0.76562 -2.82812,0.76562 -1.48438,0 -2.625,-0.67187 -1.14063,-0.67188 -1.75,-1.67188 v 7.70313 h -1.9375 v -17.23438 h 1.9375 z m 7.9375,3.64063 q 0,-1.3125 -0.53125,-2.29688 -0.53125,-0.98437 -1.4375,-1.48437 -0.90625,-0.51563 -2,-0.51563 -1.0625,0 -1.96875,0.51563 -0.90625,0.51562 -1.45313,1.51562 -0.54687,0.98438 -0.54687,2.29688 0,1.3125 0.54687,2.3125 0.54688,0.98437 1.45313,1.51562 0.90625,0.51563 1.96875,0.51563 1.09375,0 2,-0.51563 0.90625,-0.53125 1.4375,-1.51562 0.53125,-1 0.53125,-2.34375 z m 3.82412,0 q 0,-1.78125 0.71875,-3.14063 0.73438,-1.35937 2,-2.09375 1.26563,-0.75 2.82813,-0.75 1.53125,0 2.65625,0.65625 1.14062,0.65625 1.6875,1.65625 v -2.125 h 1.96875 v 11.6875 h -1.96875 v -2.17187 q -0.57813,1.01562 -1.71875,1.6875 -1.14063,0.67187 -2.65625,0.67187 -1.54688,0 -2.8125,-0.76562 -1.25,-0.76563 -1.98438,-2.14063 -0.71875,-1.39062 -0.71875,-3.17187 z m 9.89063,0.0312 q 0,-1.32813 -0.53125,-2.3125 -0.53125,-0.98438 -1.4375,-1.5 -0.90625,-0.51563 -2,-0.51563 -1.07813,0 -1.98438,0.51563 -0.89062,0.5 -1.42187,1.48437 -0.53125,0.98438 -0.53125,2.29688 0,1.34375 0.53125,2.34375 0.53125,0.98437 1.42187,1.51562 0.90625,0.51563 1.98438,0.51563 1.09375,0 2,-0.51563 0.90625,-0.53125 1.4375,-1.51562 0.53125,-1 0.53125,-2.3125 z m 9.38666,6.04687 q -1.34378,0 -2.42191,-0.45312 -1.0625,-0.45313 -1.6875,-1.28125 -0.60937,-0.82813 -0.67187,-1.89063 h 2 q 0.0937,0.875 0.82812,1.4375 0.73438,0.54688 1.93753,0.54688 1.10938,0 1.73438,-0.48438 0.64062,-0.5 0.64062,-1.23437 0,-0.78125 -0.6875,-1.14063 -0.67187,-0.375 -2.09378,-0.75 -1.3125,-0.32812 -2.14062,-0.67187 -0.8125,-0.35938 -1.40625,-1.04688 -0.57813,-0.70312 -0.57813,-1.82812 0,-0.90625 0.53125,-1.64063 0.53125,-0.75 1.51563,-1.1875 0.98437,-0.4375 2.25,-0.4375 1.93753,0 3.12503,0.98438 1.20312,0.96875 1.28125,2.67187 h -1.9375 q -0.0625,-0.90625 -0.73438,-1.45312 -0.67187,-0.5625 -1.81253,-0.5625 -1.03125,0 -1.65625,0.45312 -0.625,0.4375 -0.625,1.17188 0,0.5625 0.375,0.9375 0.375,0.375 0.9375,0.60937 0.57813,0.21875 1.57816,0.5 1.25,0.32813 2.03125,0.67188 0.79687,0.32812 1.35937,0.98437 0.57813,0.65625 0.59375,1.73438 0,0.95312 -0.53125,1.71875 -0.53125,0.76562 -1.51562,1.20312 -0.96875,0.4375 -2.21875,0.4375 z m 11.1333,0 q -1.34375,0 -2.42188,-0.45312 -1.0625,-0.45313 -1.6875,-1.28125 -0.60937,-0.82813 -0.67187,-1.89063 h 2 q 0.0937,0.875 0.82812,1.4375 0.73438,0.54688 1.9375,0.54688 1.10938,0 1.73438,-0.48438 0.64062,-0.5 0.64062,-1.23437 0,-0.78125 -0.6875,-1.14063 -0.67187,-0.375 -2.09375,-0.75 -1.3125,-0.32812 -2.14062,-0.67187 -0.8125,-0.35938 -1.40625,-1.04688 -0.57813,-0.70312 -0.57813,-1.82812 0,-0.90625 0.53125,-1.64063 0.53125,-0.75 1.51563,-1.1875 0.98437,-0.4375 2.25,-0.4375 1.9375,0 3.125,0.98438 1.20312,0.96875 1.28125,2.67187 h -1.9375 q -0.0625,-0.90625 -0.73438,-1.45312 -0.67187,-0.5625 -1.8125,-0.5625 -1.03125,0 -1.65625,0.45312 -0.625,0.4375 -0.625,1.17188 0,0.5625 0.375,0.9375 0.375,0.375 0.9375,0.60937 0.57813,0.21875 1.57813,0.5 1.25,0.32813 2.03125,0.67188 0.79687,0.32812 1.35937,0.98437 0.57813,0.65625 0.59375,1.73438 0,0.95312 -0.53125,1.71875 -0.53125,0.76562 -1.51562,1.20312 -0.96875,0.4375 -2.21875,0.4375 z"
       fill-rule="nonzero"
       id="path53" />
    <path
       fill="#000000"
       fill-opacity="0"
       d="M 293.3071,24.64567 H 666.69293 V 96.3937 H 293.3071 Z"
       fill-rule="evenodd"
       id="path55" />
    <path
       fill="#ffffff"
       d="m 391.958,63.513794 h 5.375 v 3.171875 h -9.48437 v -16.84375 h 4.10937 z m 13.43234,3.359375 q -1.96875,0 -3.54687,-0.828125 -1.5625,-0.84375 -2.46875,-2.40625 -0.89063,-1.5625 -0.89063,-3.65625 0,-2.0625 0.90625,-3.625 0.92188,-1.578125 2.5,-2.40625 1.57813,-0.84375 3.54688,-0.84375 1.96875,0 3.54687,0.84375 1.59375,0.828125 2.5,2.40625 0.92188,1.5625 0.92188,3.625 0,2.078125 -0.92188,3.65625 -0.92187,1.5625 -2.53125,2.40625 -1.59375,0.828125 -3.5625,0.828125 z m 0,-3.546875 q 1.1875,0 2.01563,-0.859375 0.82812,-0.875 0.82812,-2.484375 0,-1.59375 -0.8125,-2.453125 -0.79687,-0.875 -1.98437,-0.875 -1.1875,0 -1.98438,0.859375 -0.79687,0.84375 -0.79687,2.46875 0,1.609375 0.78125,2.484375 0.78125,0.859375 1.95312,0.859375 z m 28.42859,-10.03125 -3.625,13.390625 h -4.54687 l -2.10938,-8.6875 -2.1875,8.6875 h -4.5 l -3.65625,-13.390625 h 4.10938 l 1.89062,9.578125 2.26563,-9.578125 h 4.34375 l 2.26562,9.53125 1.875,-9.53125 z m 5.65894,1.890625 q 0.59375,-0.9375 1.64062,-1.5 1.0625,-0.578125 2.48438,-0.578125 1.65625,0 3,0.84375 1.34375,0.828125 2.125,2.390625 0.78125,1.5625 0.78125,3.625 0,2.0625 -0.78125,3.640625 -0.78125,1.5625 -2.125,2.421875 -1.34375,0.84375 -3,0.84375 -1.39063,0 -2.46875,-0.5625 -1.0625,-0.578125 -1.65625,-1.5 v 8.265625 h -4.10938 v -19.78125 h 4.10938 z m 5.85937,4.78125 q 0,-1.53125 -0.85937,-2.40625 -0.84375,-0.890625 -2.09375,-0.890625 -1.23438,0 -2.09375,0.890625 -0.84375,0.890625 -0.84375,2.421875 0,1.546875 0.84375,2.4375 0.85937,0.875 2.09375,0.875 1.21875,0 2.07812,-0.890625 0.875,-0.90625 0.875,-2.4375 z m 5.51471,0 q 0,-2.0625 0.78125,-3.625 0.78125,-1.5625 2.125,-2.390625 1.34375,-0.84375 3,-0.84375 1.40625,0 2.46875,0.578125 1.07813,0.5625 1.65625,1.5 v -1.890625 h 4.10938 v 13.390625 h -4.10938 v -1.890625 q -0.59375,0.9375 -1.67187,1.515625 -1.0625,0.5625 -2.48438,0.5625 -1.625,0 -2.96875,-0.84375 -1.34375,-0.859375 -2.125,-2.421875 -0.78125,-1.578125 -0.78125,-3.640625 z m 10.03125,0.01563 q 0,-1.53125 -0.85937,-2.421875 -0.84375,-0.890625 -2.0625,-0.890625 -1.23438,0 -2.09375,0.890625 -0.84375,0.875 -0.84375,2.40625 0,1.53125 0.84375,2.4375 0.85937,0.890625 2.09375,0.890625 1.21875,0 2.0625,-0.875 0.85937,-0.890625 0.85937,-2.4375 z m 12.53034,6.890625 q -1.75,0 -3.125,-0.59375 -1.35938,-0.609375 -2.15625,-1.640625 -0.79688,-1.046875 -0.89063,-2.34375 h 4.0625 q 0.0625,0.6875 0.64063,1.125 0.57812,0.4375 1.42187,0.4375 0.76563,0 1.1875,-0.296875 0.42188,-0.3125 0.42188,-0.78125 0,-0.578125 -0.60938,-0.859375 -0.59375,-0.28125 -1.9375,-0.609375 -1.4375,-0.34375 -2.40625,-0.703125 -0.95312,-0.375 -1.65625,-1.171875 -0.6875,-0.8125 -0.6875,-2.1875 0,-1.140625 0.625,-2.09375 0.64063,-0.953125 1.875,-1.5 1.23438,-0.546875 2.9375,-0.546875 2.53125,0 3.98438,1.25 1.45312,1.234375 1.65625,3.296875 h -3.78125 q -0.0937,-0.6875 -0.60938,-1.09375 -0.51562,-0.40625 -1.35937,-0.40625 -0.71875,0 -1.10938,0.28125 -0.375,0.265625 -0.375,0.75 0,0.578125 0.60938,0.859375 0.60937,0.28125 1.90625,0.578125 1.48437,0.375 2.42187,0.75 0.9375,0.375 1.64063,1.203125 0.71875,0.828125 0.73437,2.21875 0,1.171875 -0.65625,2.109375 -0.65625,0.921875 -1.90625,1.453125 -1.23437,0.515625 -2.85937,0.515625 z m 13.39196,0 q -1.75,0 -3.125,-0.59375 -1.35937,-0.609375 -2.15625,-1.640625 -0.79687,-1.046875 -0.89062,-2.34375 h 4.0625 q 0.0625,0.6875 0.64062,1.125 0.57813,0.4375 1.42188,0.4375 0.76562,0 1.1875,-0.296875 0.42187,-0.3125 0.42187,-0.78125 0,-0.578125 -0.60937,-0.859375 -0.59375,-0.28125 -1.9375,-0.609375 -1.4375,-0.34375 -2.40625,-0.703125 -0.95313,-0.375 -1.65625,-1.171875 -0.6875,-0.8125 -0.6875,-2.1875 0,-1.140625 0.625,-2.09375 0.64062,-0.953125 1.875,-1.5 1.23437,-0.546875 2.9375,-0.546875 2.53125,0 3.98437,1.25 1.45313,1.234375 1.65625,3.296875 H 488.368 q -0.0937,-0.6875 -0.60937,-1.09375 -0.51563,-0.40625 -1.35938,-0.40625 -0.71875,0 -1.10937,0.28125 -0.375,0.265625 -0.375,0.75 0,0.578125 0.60937,0.859375 0.60938,0.28125 1.90625,0.578125 1.48438,0.375 2.42188,0.75 0.9375,0.375 1.64062,1.203125 0.71875,0.828125 0.73438,2.21875 0,1.171875 -0.65625,2.109375 -0.65625,0.921875 -1.90625,1.453125 -1.23438,0.515625 -2.85938,0.515625 z m 12.33933,-8.640625 q 0,-2.484375 1.07812,-4.4375 1.07813,-1.96875 3,-3.0625 1.9375,-1.09375 4.39063,-1.09375 3,0 5.125,1.59375 2.14062,1.578125 2.85937,4.3125 h -4.5 q -0.51562,-1.046875 -1.4375,-1.59375 -0.92187,-0.5625 -2.09375,-0.5625 -1.90625,0 -3.07812,1.328125 -1.17188,1.3125 -1.17188,3.515625 0,2.21875 1.17188,3.546875 1.17187,1.3125 3.07812,1.3125 1.17188,0 2.09375,-0.546875 0.92188,-0.5625 1.4375,-1.625 h 4.5 q -0.71875,2.734375 -2.85937,4.3125 -2.125,1.578125 -5.125,1.578125 -2.45313,0 -4.39063,-1.09375 -1.92187,-1.09375 -3,-3.03125 -1.07812,-1.953125 -1.07812,-4.453125 z m 25.06921,8.640625 q -1.96875,0 -3.54687,-0.828125 -1.5625,-0.84375 -2.46875,-2.40625 -0.89063,-1.5625 -0.89063,-3.65625 0,-2.0625 0.90625,-3.625 0.92188,-1.578125 2.5,-2.40625 1.57813,-0.84375 3.54688,-0.84375 1.96875,0 3.54687,0.84375 1.59375,0.828125 2.5,2.40625 0.92188,1.5625 0.92188,3.625 0,2.078125 -0.92188,3.65625 -0.92187,1.5625 -2.53125,2.40625 -1.59375,0.828125 -3.5625,0.828125 z m 0,-3.546875 q 1.1875,0 2.01563,-0.859375 0.82812,-0.875 0.82812,-2.484375 0,-1.59375 -0.8125,-2.453125 -0.79687,-0.875 -1.98437,-0.875 -1.1875,0 -1.98438,0.859375 -0.79687,0.84375 -0.79687,2.46875 0,1.609375 0.78125,2.484375 0.78125,0.859375 1.95312,0.859375 z m 26.28791,-10.171875 q 2.5,0 3.96875,1.515625 1.48437,1.5 1.48437,4.1875 v 7.828125 h -4.09375 v -7.265625 q 0,-1.296875 -0.6875,-2 -0.67187,-0.71875 -1.875,-0.71875 -1.20312,0 -1.89062,0.71875 -0.67188,0.703125 -0.67188,2 v 7.265625 h -4.07812 v -7.265625 q 0,-1.296875 -0.6875,-2 -0.6875,-0.71875 -1.89063,-0.71875 -1.20312,0 -1.89062,0.71875 -0.67188,0.703125 -0.67188,2 v 7.265625 h -4.10937 v -13.39063 h 4.10937 v 1.671875 q 0.625,-0.828125 1.625,-1.3125 1.01563,-0.5 2.28125,-0.5 1.51563,0 2.70313,0.65625 1.1875,0.640625 1.85937,1.828125 0.70313,-1.09375 1.89063,-1.78125 1.20312,-0.703125 2.625,-0.703125 z m 12.43158,2.03125 q 0.57812,-0.9375 1.65625,-1.5 1.07812,-0.578125 2.46875,-0.578125 1.65625,0 3,0.84375 1.34375,0.828125 2.125,2.390625 0.78125,1.5625 0.78125,3.625 0,2.0625 -0.78125,3.640625 -0.78125,1.5625 -2.125,2.421875 -1.34375,0.84375 -3,0.84375 -1.42188,0 -2.48438,-0.5625 -1.04687,-0.5625 -1.64062,-1.5 v 1.875 h -4.10938 v -17.76563 h 4.10938 z m 5.85937,4.78125 q 0,-1.53125 -0.85937,-2.40625 -0.84375,-0.890625 -2.09375,-0.890625 -1.23438,0 -2.09375,0.890625 -0.84375,0.890625 -0.84375,2.421875 0,1.546875 0.84375,2.4375 0.85937,0.875 2.09375,0.875 1.21875,0 2.07812,-0.890625 0.875,-0.90625 0.875,-2.4375 z"
       fill-rule="nonzero"
       id="path57" />
    <path
       fill="#f3f3f3"
       d="m 464.59973,201.40683 h 48.50397 v 48.50394 h -48.50397 z"
       fill-rule="evenodd"
       id="path59" />
    <path
       stroke="#303030"
       stroke-width="1"
       stroke-linejoin="round"
       stroke-linecap="butt"
       d="m 464.59973,201.40683 h 48.50397 v 48.50394 h -48.50397 z"
       fill-rule="evenodd"
       id="path61" />
    <path
       fill="#000000"
       d="m 480.08917,229.94067 h 5.17188 v 1.57812 h -7.32813 v -1.42187 l 5.15625,-8.10938 h -5.15625 v -1.59375 h 7.32813 v 1.42188 z"
       fill-rule="nonzero"
       id="path63" />
    <path
       fill="#000000"
       d="m 491.37656,221.1438 v 1.03125 h -4.39063 v -1.03125 z"
       fill-rule="nonzero"
       id="path65" />
    <path
       fill="#000000"
       d="m 493.92303,224.59692 h 2.51562 l -0.17187,0.92187 h -3.71875 l 1.3125,-7.40625 h 1.20312 z"
       fill-rule="nonzero"
       id="path67" />
    <path
       fill="#000000"
       d="m 500.9357,230.30005 q -0.5625,0 -0.82813,0.21875 -0.26562,0.21875 -0.34375,0.71875 l -0.0781,0.40625 h 1.07812 l -0.17187,1 h -1.07813 l -0.85937,4.875 h -1.23438 l 0.85938,-4.875 h -0.6875 l 0.17187,-1 h 0.6875 l 0.0781,-0.40625 q 0.1875,-1.01563 0.79687,-1.48438 0.625,-0.46875 1.78125,-0.46875 z"
       fill-rule="nonzero"
       id="path69" />
    <path
       fill="#f3f3f3"
       d="m 573.14307,255.15355 h 48.50391 v 48.50392 h -48.50391 z"
       fill-rule="evenodd"
       id="path71" />
    <path
       stroke="#303030"
       stroke-width="1"
       stroke-linejoin="round"
       stroke-linecap="butt"
       d="m 573.14307,255.15355 h 48.50391 v 48.50392 h -48.50391 z"
       fill-rule="evenodd"
       id="path73" />
    <path
       fill="#000000"
       d="m 586.78894,283.68738 h 5.17188 v 1.57813 h -7.32813 v -1.42188 l 5.15625,-8.10937 h -5.15625 v -1.59375 h 7.32813 v 1.42187 z"
       fill-rule="nonzero"
       id="path75" />
    <path
       fill="#000000"
       d="m 598.07635,274.8905 v 1.03125 h -4.39062 v -1.03125 z"
       fill-rule="nonzero"
       id="path77" />
    <path
       fill="#000000"
       d="m 600.6228,278.34363 h 2.51562 l -0.17187,0.92188 h -3.71875 l 1.3125,-7.40625 h 1.20312 z"
       fill-rule="nonzero"
       id="path79" />
    <path
       fill="#000000"
       d="m 606.073,286.2655 q 0.39062,-0.42188 0.96875,-0.6875 0.59375,-0.28125 1.25,-0.28125 0.6875,0 1.20312,0.29687 0.51563,0.28125 0.79688,0.8125 0.29687,0.51563 0.29687,1.23438 0,0.3125 -0.0781,0.65625 -0.15625,0.89062 -0.64063,1.59375 -0.48437,0.6875 -1.1875,1.07812 -0.6875,0.39063 -1.45312,0.39063 -0.6875,0 -1.17188,-0.26563 -0.46875,-0.26562 -0.71875,-0.6875 l -0.15625,0.85938 h -1.20312 l 1.39062,-7.89063 h 1.21875 z m 3.20312,2.03125 q 0.0469,-0.20313 0.0469,-0.4375 0,-0.70313 -0.42188,-1.09375 -0.42187,-0.40625 -1.0625,-0.40625 -0.45312,0 -0.90625,0.23437 -0.45312,0.23438 -0.78125,0.6875 -0.32812,0.4375 -0.4375,1.04688 -0.0469,0.20312 -0.0469,0.4375 0,0.70312 0.42187,1.125 0.42188,0.42187 1.04688,0.42187 0.46875,0 0.92187,-0.23437 0.45313,-0.25 0.78125,-0.70313 0.34375,-0.46875 0.4375,-1.07812 z"
       fill-rule="nonzero"
       id="path81" />
    <path
       fill="#c2c2c2"
       d="m 592.98425,225.65988 v 0 c 0,-2.43526 1.97418,-4.40944 4.40942,-4.40944 v 0 c 1.1695,0 2.29102,0.46457 3.11798,1.29149 0.82691,0.82693 1.29151,1.9485 1.29151,3.11795 v 0 c 0,2.43527 -1.97418,4.40945 -4.40949,4.40945 v 0 c -2.43524,0 -4.40942,-1.97418 -4.40942,-4.40945 z"
       fill-rule="evenodd"
       id="path83" />
    <path
       stroke="#c2c2c2"
       stroke-width="1"
       stroke-linejoin="round"
       stroke-linecap="butt"
       d="m 592.98425,225.65988 v 0 c 0,-2.43526 1.97418,-4.40944 4.40942,-4.40944 v 0 c 1.1695,0 2.29102,0.46457 3.11798,1.29149 0.82691,0.82693 1.29151,1.9485 1.29151,3.11795 v 0 c 0,2.43527 -1.97418,4.40945 -4.40949,4.40945 v 0 c -2.43524,0 -4.40942,-1.97418 -4.40942,-4.40945 z"
       fill-rule="evenodd"
       id="path85" />
    <path
       fill="#000000"
       fill-opacity="0"
       d="M 597.3937,230.06934 V 255.1402"
       fill-rule="evenodd"
       id="path87" />
    <path
       stroke="#c2c2c2"
       stroke-width="2"
       stroke-linejoin="round"
       stroke-linecap="butt"
       d="M 597.3937,230.06932 V 243.1402"
       fill-rule="evenodd"
       id="path89" />
    <path
       fill="#c2c2c2"
       stroke="#c2c2c2"
       stroke-width="2"
       stroke-linecap="butt"
       d="m 594.0902,243.1402 3.30347,9.07619 3.30346,-9.07619 z"
       fill-rule="evenodd"
       id="path91" />
    <path
       fill="#000000"
       fill-opacity="0"
       d="m 513.1037,225.6588 h 79.87396"
       fill-rule="evenodd"
       id="path93" />
    <path
       stroke="#c2c2c2"
       stroke-width="2"
       stroke-linejoin="round"
       stroke-linecap="butt"
       d="m 513.1037,225.6588 h 67.87396"
       fill-rule="evenodd"
       id="path95" />
    <path
       fill="#c2c2c2"
       stroke="#c2c2c2"
       stroke-width="2"
       stroke-linecap="butt"
       d="m 580.97766,228.96227 9.07623,-3.30347 -9.07623,-3.30346 z"
       fill-rule="evenodd"
       id="path97" />
    <path
       fill="#f3f3f3"
       d="m 681.6837,225.65988 v 0 c 0,-13.39398 10.85797,-24.25197 24.25195,-24.25197 v 0 c 6.43207,0 12.60065,2.55512 17.14875,7.10324 4.54815,4.54813 7.10327,10.71671 7.10327,17.14873 v 0 c 0,13.394 -10.85797,24.25197 -24.25202,24.25197 v 0 c -13.39398,0 -24.25195,-10.85797 -24.25195,-24.25197 z"
       fill-rule="evenodd"
       id="path99" />
    <path
       stroke="#303030"
       stroke-width="1"
       stroke-linejoin="round"
       stroke-linecap="butt"
       d="m 681.6837,225.65988 v 0 c 0,-13.39398 10.85797,-24.25197 24.25195,-24.25197 v 0 c 6.43207,0 12.60065,2.55512 17.14875,7.10324 4.54815,4.54813 7.10327,10.71671 7.10327,17.14873 v 0 c 0,13.394 -10.85797,24.25197 -24.25202,24.25197 v 0 c -13.39398,0 -24.25195,-10.85797 -24.25195,-24.25197 z"
       fill-rule="evenodd"
       id="path101" />
    <path
       fill="#000000"
       d="m 711.9396,217.01239 v 2.03125 h -9.21875 l 5.85938,6.23437 -5.85938,6.89063 h 9.70313 v 2.03125 H 700.2521 v -2.375 l 5.60938,-6.54688 -5.60938,-5.96875 v -2.29687 z"
       fill-rule="nonzero"
       id="path103" />
    <path
       fill="#c2c2c2"
       d="m 241.91339,225.90923 v 0 c 0,-2.43526 1.97417,-4.40944 4.40944,-4.40944 v 0 c 1.16946,0 2.29103,0.46457 3.11795,1.29149 0.82693,0.82693 1.2915,1.9485 1.2915,3.11795 v 0 c 0,2.43527 -1.97418,4.40945 -4.40945,4.40945 v 0 c -2.43527,0 -4.40944,-1.97418 -4.40944,-4.40945 z"
       fill-rule="evenodd"
       id="path105" />
    <path
       stroke="#c2c2c2"
       stroke-width="1"
       stroke-linejoin="round"
       stroke-linecap="butt"
       d="m 241.91339,225.90923 v 0 c 0,-2.43526 1.97417,-4.40944 4.40944,-4.40944 v 0 c 1.16946,0 2.29103,0.46457 3.11795,1.29149 0.82693,0.82693 1.2915,1.9485 1.2915,3.11795 v 0 c 0,2.43527 -1.97418,4.40945 -4.40945,4.40945 v 0 c -2.43527,0 -4.40944,-1.97418 -4.40944,-4.40945 z"
       fill-rule="evenodd"
       id="path107" />
    <path
       fill="#000000"
       fill-opacity="0"
       d="m 250.73228,225.90923 94.77165,-0.25197"
       fill-rule="evenodd"
       id="path109" />
    <path
       stroke="#c2c2c2"
       stroke-width="2"
       stroke-linejoin="round"
       stroke-linecap="butt"
       d="m 250.73228,225.90923 82.77168,-0.22006"
       fill-rule="evenodd"
       id="path111" />
    <path
       fill="#c2c2c2"
       stroke="#c2c2c2"
       stroke-width="2"
       stroke-linecap="butt"
       d="m 333.51276,228.99261 9.06738,-3.32759 -9.08493,-3.27931 z"
       fill-rule="evenodd"
       id="path113" />
    <path
       fill="#000000"
       fill-opacity="0"
       d="m 246.32283,221.49979 v -66.77165 h 218.3307"
       fill-rule="evenodd"
       id="path115" />
    <path
       stroke="#c2c2c2"
       stroke-width="2"
       stroke-linejoin="round"
       stroke-linecap="butt"
       d="m 246.32283,221.49977 v -66.77164 h 206.3307"
       fill-rule="evenodd"
       id="path117" />
    <path
       fill="#c2c2c2"
       stroke="#c2c2c2"
       stroke-width="2"
       stroke-linecap="butt"
       d="m 452.65353,158.0316 9.0762,-3.30347 -9.0762,-3.30346 z"
       fill-rule="evenodd"
       id="path119" />
    <path
       fill="#f3f3f3"
       d="m 464.66403,131.45932 48.37796,23.27559 -48.37796,23.27559 z"
       fill-rule="evenodd"
       id="path121" />
    <path
       stroke="#303030"
       stroke-width="1"
       stroke-linejoin="round"
       stroke-linecap="butt"
       d="m 464.66403,131.45932 48.37796,23.27559 -48.37796,23.27559 z"
       fill-rule="evenodd"
       id="path123" />
    <path
       fill="#000000"
       fill-opacity="0"
       d="m 464.66403,145.20735 h 28.97638 v 19.05511 h -28.97638 z"
       fill-rule="evenodd"
       id="path125" />
    <path
       fill="#000000"
       d="m 474.2751,156.11423 q 0.23437,-1.32813 0.95312,-2.34375 0.73438,-1.03125 1.79688,-1.59375 1.0625,-0.5625 2.21875,-0.5625 0.875,0 1.64062,0.375 0.76563,0.375 1.15625,1 l 0.76563,-4.26563 h 1.82812 l -2.09375,11.84375 h -1.84375 l 0.25,-1.32812 q -0.57812,0.65625 -1.4375,1.0625 -0.85937,0.40625 -1.875,0.40625 -1.01562,0 -1.79687,-0.4375 -0.78125,-0.45313 -1.21875,-1.28125 -0.4375,-0.82813 -0.4375,-1.89063 0,-0.48437 0.0937,-0.98437 z m 7.21875,0.0312 q 0.0625,-0.29688 0.0625,-0.65625 0,-1.0625 -0.64063,-1.67188 -0.625,-0.625 -1.57812,-0.625 -0.70313,0 -1.375,0.34375 -0.67188,0.34375 -1.17188,1.01563 -0.48437,0.65625 -0.64062,1.5625 -0.0625,0.3125 -0.0625,0.65625 0,1.09375 0.625,1.73437 0.625,0.625 1.57812,0.625 0.70313,0 1.375,-0.34375 0.67188,-0.35937 1.15625,-1.03125 0.5,-0.6875 0.67188,-1.60937 z"
       fill-rule="nonzero"
       id="path127" />
    <path
       fill="#000000"
       fill-opacity="0"
       d="m 394.021,225.65988 h 70.58267"
       fill-rule="evenodd"
       id="path129" />
    <path
       stroke="#c2c2c2"
       stroke-width="2"
       stroke-linejoin="round"
       stroke-linecap="butt"
       d="m 394.021,225.65988 h 58.58267"
       fill-rule="evenodd"
       id="path131" />
    <path
       fill="#c2c2c2"
       stroke="#c2c2c2"
       stroke-width="2"
       stroke-linecap="butt"
       d="m 452.60367,228.96335 9.0762,-3.30347 -9.0762,-3.30346 z"
       fill-rule="evenodd"
       id="path133" />
    <path
       fill="#000000"
       fill-opacity="0"
       d="m 513.042,154.73491 h 192.8819 v 46.67717"
       fill-rule="evenodd"
       id="path135" />
    <path
       stroke="#c2c2c2"
       stroke-width="2"
       stroke-linejoin="round"
       stroke-linecap="butt"
       d="m 513.042,154.73491 h 192.8819 v 34.67717"
       fill-rule="evenodd"
       id="path137" />
    <path
       fill="#c2c2c2"
       stroke="#c2c2c2"
       stroke-width="2"
       stroke-linecap="butt"
       d="m 702.6204,189.41208 3.30347,9.07619 3.30346,-9.07619 z"
       fill-rule="evenodd"
       id="path139" />
    <path
       fill="#000000"
       fill-opacity="0"
       d="m 601.80316,225.65988 h 39.94019 v 0.063 h 39.93383"
       fill-rule="evenodd"
       id="path141" />
    <path
       stroke="#c2c2c2"
       stroke-width="2"
       stroke-linejoin="round"
       stroke-linecap="butt"
       d="m 601.80316,225.65988 h 39.94019 v 0.063 h 27.93383"
       fill-rule="evenodd"
       id="path143" />
    <path
       fill="#c2c2c2"
       stroke="#c2c2c2"
       stroke-width="2"
       stroke-linecap="butt"
       d="m 669.6772,229.02634 9.07617,-3.30347 -9.07617,-3.30346 z"
       fill-rule="evenodd"
       id="path145" />
    <path
       fill="#000000"
       fill-opacity="0"
       d="m 730.1877,225.65988 h 25.08661 v 0.063 h 25.08661"
       fill-rule="evenodd"
       id="path147" />
    <path
       stroke="#c2c2c2"
       stroke-width="2"
       stroke-linejoin="round"
       stroke-linecap="butt"
       d="m 730.1877,225.65988 h 25.08661 v 0.063 h 25.08661"
       fill-rule="evenodd"
       id="path149" />
    <path
       fill="#000000"
       fill-opacity="0"
       d="m 621.647,279.40552 h 79.35437 v -0.1575 h 79.35431"
       fill-rule="evenodd"
       id="path151" />
    <path
       stroke="#c2c2c2"
       stroke-width="2"
       stroke-linejoin="round"
       stroke-linecap="butt"
       d="m 621.647,279.40552 h 79.35437 v -0.1575 h 79.35431"
       fill-rule="evenodd"
       id="path153" />
    <path
       fill="#000000"
       fill-opacity="0"
       d="m 808.65485,259.25854 h 48.37799 v 39.90549 h -48.37799 z"
       fill-rule="evenodd"
       id="path155" />
    <path
       fill="#e395af"
       d="m 826.19116,263.7904 q -0.82813,0 -1.23438,0.32812 -0.40625,0.3125 -0.53125,1.0625 l -0.10937,0.625 h 1.625 l -0.25,1.48438 h -1.625 l -1.29688,7.32812 h -1.84375 l 1.29688,-7.32812 h -1.04688 l 0.26563,-1.48438 h 1.03125 l 0.10937,-0.625 q 0.28125,-1.51562 1.20313,-2.21875 0.9375,-0.70312 2.65625,-0.70312 z m 2.96826,3.32812 q 0.57813,-0.64062 1.45313,-1.04687 0.89062,-0.40625 1.875,-0.40625 1.03125,0 1.79687,0.4375 0.78125,0.42187 1.20313,1.21875 0.4375,0.78125 0.4375,1.85937 0,0.46875 -0.0937,0.98438 -0.23438,1.32812 -0.96875,2.375 -0.71875,1.04687 -1.76563,1.64062 -1.04687,0.57813 -2.20312,0.57813 -1.03125,0 -1.75,-0.39063 -0.71875,-0.40625 -1.07813,-1.03125 l -0.23437,1.28125 h -1.8125 l 2.09375,-11.84375 h 1.8125 z m 4.82813,3.04688 q 0.0625,-0.29688 0.0625,-0.65625 0,-1.0625 -0.64063,-1.65625 -0.625,-0.60938 -1.59375,-0.60938 -0.6875,0 -1.375,0.35938 -0.67187,0.34375 -1.17187,1.01562 -0.48438,0.67188 -0.65625,1.57813 -0.0625,0.3125 -0.0625,0.65625 0,1.07812 0.625,1.70312 0.64062,0.625 1.59375,0.625 0.70312,0 1.375,-0.35937 0.6875,-0.35938 1.17187,-1.04688 0.5,-0.6875 0.67188,-1.60937 z m 7.12927,0.0469 3.29687,4.40625 h -2.46875 l -2.59375,-3.79687 -0.67187,3.79687 h -1.8125 l 2.09375,-11.84375 h 1.8125 l -1.20313,6.875 3.85938,-3.84375 h 2.53125 z"
       fill-rule="nonzero"
       id="path157" />
    <path
       fill="#e395af"
       d="m 821.5652,293.95917 q -0.90625,0 -1.65625,-0.3125 -0.75,-0.3125 -1.1875,-0.875 -0.42188,-0.5625 -0.42188,-1.3125 0,-0.125 0.0312,-0.34375 h 1.76563 q -0.0625,0.60937 0.35937,1.01562 0.4375,0.39063 1.23438,0.39063 0.76562,0 1.25,-0.26563 0.5,-0.28125 0.5,-0.8125 0,-0.4375 -0.40625,-0.70312 -0.40625,-0.28125 -1.29688,-0.625 -0.85937,-0.32813 -1.39062,-0.60938 -0.51563,-0.29687 -0.90625,-0.79687 -0.375,-0.5 -0.375,-1.26563 0,-0.76562 0.4375,-1.34375 0.4375,-0.57812 1.21875,-0.90625 0.79687,-0.32812 1.82812,-0.32812 0.92188,0 1.64063,0.3125 0.73437,0.29687 1.14062,0.875 0.42188,0.5625 0.42188,1.29687 0,0.23438 -0.0156,0.34375 h -1.73437 q 0.0625,-0.625 -0.35938,-1 -0.42187,-0.39062 -1.20312,-0.39062 -0.6875,0 -1.125,0.29687 -0.42188,0.28125 -0.42188,0.76563 0,0.5 0.4375,0.79687 0.4375,0.29688 1.32813,0.64063 0.8125,0.32812 1.32812,0.625 0.51563,0.28125 0.875,0.76562 0.375,0.46875 0.375,1.1875 0,0.79688 -0.46875,1.375 -0.46875,0.57813 -1.3125,0.89063 -0.82812,0.3125 -1.89062,0.3125 z m 11.34088,-9.09375 q 1.39063,0 2.20313,0.75 0.82812,0.73437 0.82812,2.125 0,0.34375 -0.0781,0.875 l -0.92188,5.20312 h -1.8125 l 0.875,-4.92187 q 0.0625,-0.45313 0.0625,-0.64063 0,-0.89062 -0.48437,-1.34375 -0.48438,-0.46875 -1.34375,-0.46875 -1.04688,0 -1.76563,0.64063 -0.70312,0.625 -0.89062,1.8125 v -0.0469 l -0.89063,4.96875 h -1.8125 l 1.54688,-8.8125 h 1.82812 l -0.1875,1.01563 q 0.54688,-0.54688 1.28125,-0.84375 0.75,-0.3125 1.5625,-0.3125 z m 4.52466,4.5 q 0.23437,-1.32813 0.95312,-2.34375 0.73438,-1.03125 1.79688,-1.59375 1.0625,-0.5625 2.21875,-0.5625 0.875,0 1.64062,0.375 0.76563,0.375 1.15625,1 l 0.76563,-4.26563 h 1.82812 l -2.09375,11.84375 h -1.84375 l 0.25,-1.32812 q -0.57812,0.65625 -1.4375,1.0625 -0.85937,0.40625 -1.875,0.40625 -1.01562,0 -1.79687,-0.4375 -0.78125,-0.45313 -1.21875,-1.28125 -0.4375,-0.82813 -0.4375,-1.89063 0,-0.48437 0.0937,-0.98437 z m 7.21875,0.0312 q 0.0625,-0.29688 0.0625,-0.65625 0,-1.0625 -0.64063,-1.67188 -0.625,-0.625 -1.57812,-0.625 -0.70313,0 -1.375,0.34375 -0.67188,0.34375 -1.17188,1.01563 -0.48437,0.65625 -0.64062,1.5625 -0.0625,0.3125 -0.0625,0.65625 0,1.09375 0.625,1.73437 0.625,0.625 1.57812,0.625 0.70313,0 1.375,-0.34375 0.67188,-0.35937 1.15625,-1.03125 0.5,-0.6875 0.67188,-1.60937 z"
       fill-rule="nonzero"
       id="path159" />
    <path
       fill="#000000"
       fill-opacity="0"
       d="m 780.7703,279.22418 -0.40942,0.40945"
       fill-rule="evenodd"
       id="path161" />
    <path
       stroke="#e395af"
       stroke-width="4"
       stroke-linejoin="round"
       stroke-linecap="butt"
       d="m 780.7703,279.22418 -0.40942,0.40945"
       fill-rule="evenodd"
       id="path163" />
    <path
       stroke="#e395af"
       stroke-width="4"
       stroke-linecap="butt"
       d="m 780.7703,285.83112 18.15241,-6.60693 -18.15241,-6.60694 z"
       fill-rule="evenodd"
       id="path165" />
    <path
       fill="#000000"
       fill-opacity="0"
       d="m 169.92914,279.20734 h 52 v 0.22049 h 52"
       fill-rule="evenodd"
       id="path167" />
    <path
       stroke="#c2c2c2"
       stroke-width="2"
       stroke-linejoin="round"
       stroke-linecap="butt"
       d="m 169.92914,279.20734 h 52 v 0.22049 h 40"
       fill-rule="evenodd"
       id="path169" />
    <path
       fill="#c2c2c2"
       stroke="#c2c2c2"
       stroke-width="2"
       stroke-linecap="butt"
       d="m 261.92914,282.7313 9.0762,-3.30347 -9.0762,-3.30346 z"
       fill-rule="evenodd"
       id="path171" />
    <path
       fill="#000000"
       fill-opacity="0"
       d="m 157.13387,279.03128 -0.40945,0.40945"
       fill-rule="evenodd"
       id="path173" />
    <path
       stroke="#e395af"
       stroke-width="4"
       stroke-linejoin="round"
       stroke-linecap="butt"
       d="m 157.13387,279.03128 -0.40945,0.40942"
       fill-rule="evenodd"
       id="path175" />
    <path
       stroke="#e395af"
       stroke-width="4"
       stroke-linecap="butt"
       d="m 157.13387,285.6382 18.15239,-6.60693 -18.15239,-6.60694 z"
       fill-rule="evenodd"
       id="path177" />
    <path
       fill="#000000"
       fill-opacity="0"
       d="m 102.96588,259.25854 h 48.37794 v 39.90549 h -48.37794 z"
       fill-rule="evenodd"
       id="path179" />
    <path
       fill="#e395af"
       d="m 120.50221,263.7904 q -0.82813,0 -1.23438,0.32812 -0.40625,0.3125 -0.53125,1.0625 l -0.10937,0.625 h 1.625 l -0.25,1.48438 h -1.625 l -1.29688,7.32812 h -1.84375 l 1.29688,-7.32812 h -1.04688 l 0.26563,-1.48438 h 1.03125 l 0.10937,-0.625 q 0.28125,-1.51562 1.20313,-2.21875 0.9375,-0.70312 2.65625,-0.70312 z m 2.96826,3.32812 q 0.57812,-0.64062 1.45312,-1.04687 0.89063,-0.40625 1.875,-0.40625 1.03125,0 1.79688,0.4375 0.78125,0.42187 1.20313,1.21875 0.4375,0.78125 0.4375,1.85937 0,0.46875 -0.0937,0.98438 -0.23438,1.32812 -0.96875,2.375 -0.71875,1.04687 -1.76563,1.64062 -1.04688,0.57813 -2.20313,0.57813 -1.03125,0 -1.75,-0.39063 -0.71875,-0.40625 -1.07812,-1.03125 l -0.23438,1.28125 h -1.8125 l 2.09375,-11.84375 h 1.8125 z m 4.82813,3.04688 q 0.0625,-0.29688 0.0625,-0.65625 0,-1.0625 -0.64063,-1.65625 -0.625,-0.60938 -1.59375,-0.60938 -0.6875,0 -1.375,0.35938 -0.67188,0.34375 -1.17188,1.01562 -0.48437,0.67188 -0.65625,1.57813 -0.0625,0.3125 -0.0625,0.65625 0,1.07812 0.625,1.70312 0.64063,0.625 1.59375,0.625 0.70313,0 1.375,-0.35937 0.6875,-0.35938 1.17188,-1.04688 0.5,-0.6875 0.67188,-1.60937 z m 7.12927,0.0469 3.29688,4.40625 H 136.256 l -2.59375,-3.79687 -0.67188,3.79687 h -1.8125 l 2.09375,-11.84375 h 1.8125 l -1.20312,6.875 3.85937,-3.84375 h 2.53125 z"
       fill-rule="nonzero"
       id="path181" />
    <path
       fill="#e395af"
       d="m 118.14358,286.55292 q 0.54688,-0.79688 1.28125,-1.23438 0.75,-0.45312 1.67188,-0.45312 l -0.34375,1.875 h -0.46875 q -1.04688,0 -1.6875,0.53125 -0.64063,0.53125 -0.89063,1.82812 l -0.84375,4.71875 h -1.8125 l 1.54688,-8.8125 h 1.82812 z m 3.22214,2.84375 q 0.23437,-1.35938 0.95312,-2.39063 0.73438,-1.03125 1.8125,-1.57812 1.09375,-0.5625 2.34375,-0.5625 1.60939,0 2.51564,0.76562 0.92187,0.75 1.04687,2.15625 h -1.96875 q -0.12501,-0.65625 -0.59376,-1.01562 -0.46875,-0.375 -1.26562,-0.375 -1.125,0 -1.92188,0.79687 -0.79687,0.78125 -1.04687,2.20313 -0.0781,0.51562 -0.0781,0.84375 0,1.04687 0.51563,1.625 0.53125,0.5625 1.48437,0.5625 1.57813,0 2.32813,-1.39063 h 1.96876 q -0.625,1.34375 -1.82814,2.14063 -1.1875,0.78125 -2.75,0.78125 -1.65625,0 -2.64062,-0.95313 -0.96875,-0.95312 -0.96875,-2.57812 0,-0.5 0.0937,-1.03125 z m 13.11565,2.79687 3.76563,-7.1875 h 1.96875 l -4.92188,8.8125 h -2.20312 l -1.79688,-8.8125 h 1.95313 z"
       fill-rule="nonzero"
       id="path183" />
    <path
       fill="#000000"
       fill-opacity="0"
       d="m 461.52887,444.31607 v 5.92123"
       fill-rule="evenodd"
       id="path185" />
    <path
       stroke="#303030"
       stroke-width="1"
       stroke-linejoin="round"
       stroke-linecap="butt"
       d="m 461.52887,444.31607 v 5.92123"
       fill-rule="evenodd"
       id="path187" />
    <path
       fill="#000000"
       fill-opacity="0"
       d="m 367.51837,447.5129 -64.7244,-0.25198"
       fill-rule="evenodd"
       id="path189" />
    <path
       stroke="#c2c2c2"
       stroke-width="2"
       stroke-linejoin="round"
       stroke-linecap="butt"
       d="m 355.51846,447.46622 -52.72449,-0.20526"
       fill-rule="evenodd"
       id="path191" />
    <path
       fill="#c2c2c2"
       stroke="#c2c2c2"
       stroke-width="2"
       stroke-linecap="butt"
       d="m 355.5056,450.76965 9.08899,-3.26813 -9.06329,-3.33877 z"
       fill-rule="evenodd"
       id="path193" />
    <path
       fill="#000000"
       fill-opacity="0"
       d="m 282.3294,447.3082 -0.40945,0.40942"
       fill-rule="evenodd"
       id="path195" />
    <path
       stroke="#c2c2c2"
       stroke-width="4"
       stroke-linejoin="round"
       stroke-linecap="butt"
       d="m 282.3294,447.3082 -0.40945,0.40945"
       fill-rule="evenodd"
       id="path197" />
    <path
       stroke="#c2c2c2"
       stroke-width="4"
       stroke-linecap="butt"
       d="m 282.3294,453.91513 18.15237,-6.60693 -18.15237,-6.60694 z"
       fill-rule="evenodd"
       id="path199" />
    <path
       fill="#000000"
       fill-opacity="0"
       d="m 671.55383,447.3082 -0.40948,0.40942"
       fill-rule="evenodd"
       id="path201" />
    <path
       stroke="#c2c2c2"
       stroke-width="4"
       stroke-linejoin="round"
       stroke-linecap="butt"
       d="m 671.55383,447.3082 -0.40948,0.40945"
       fill-rule="evenodd"
       id="path203" />
    <path
       stroke="#c2c2c2"
       stroke-width="4"
       stroke-linecap="butt"
       d="m 671.55383,453.91513 18.15234,-6.60693 -18.15234,-6.60694 z"
       fill-rule="evenodd"
       id="path205" />
    <path
       fill="#f3f3f3"
       d="m 464.46588,423.0105 h 48.50391 v 48.50394 h -48.50391 z"
       fill-rule="evenodd"
       id="path207" />
    <path
       stroke="#303030"
       stroke-width="1"
       stroke-linejoin="round"
       stroke-linecap="butt"
       d="m 464.46588,423.0105 h 48.50391 v 48.50394 h -48.50391 z"
       fill-rule="evenodd"
       id="path209" />
    <path
       fill="#000000"
       d="m 479.48642,442.04434 h 5.17187 v 1.57812 h -7.32812 v -1.42187 l 5.15625,-8.10938 h -5.15625 v -1.59375 h 7.32812 v 1.42188 z"
       fill-rule="nonzero"
       id="path211" />
    <path
       fill="#000000"
       d="m 490.77383,433.24747 v 1.03125 h -4.39063 v -1.03125 z"
       fill-rule="nonzero"
       id="path213" />
    <path
       fill="#000000"
       d="m 492.75778,431.16934 0.20313,-1.10938 h 2.21875 l -1.34375,7.5625 h -1.21875 l 1.14062,-6.45312 z m 8.63599,-3.60938 -5.01563,11.92188 h -1.1875 l 5,-11.92188 z"
       fill-rule="nonzero"
       id="path215" />
    <path
       fill="#000000"
       d="m 489.4598,449.21622 q 1.125,0 1.70312,0.5 0.57813,0.5 0.57813,1.29688 0,0.14062 -0.0469,0.42187 -0.125,0.71875 -0.65625,1.3125 -0.53125,0.59375 -1.4375,0.8125 l 1.29688,3.0625 h -1.45313 l -1.17187,-2.96875 h -0.9375 l -0.53125,2.96875 h -1.20313 l 1.3125,-7.40625 z m 0.98437,2.21875 q 0.0312,-0.15625 0.0312,-0.3125 0,-0.45312 -0.29687,-0.70312 -0.28125,-0.25 -0.89063,-0.25 h -1.34375 l -0.4375,2.53125 h 1.34375 q 0.67188,0 1.07813,-0.34375 0.42187,-0.34375 0.51562,-0.92188 z"
       fill-rule="nonzero"
       id="path217" />
    <path
       fill="#000000"
       fill-opacity="0"
       d="m 512.9698,447.26248 h 60.18903"
       fill-rule="evenodd"
       id="path219" />
    <path
       stroke="#c2c2c2"
       stroke-width="2"
       stroke-linejoin="round"
       stroke-linecap="butt"
       d="m 512.9698,447.26248 h 48.18903"
       fill-rule="evenodd"
       id="path221" />
    <path
       fill="#c2c2c2"
       stroke="#c2c2c2"
       stroke-width="2"
       stroke-linecap="butt"
       d="m 561.1588,450.56592 9.07617,-3.30344 -9.07617,-3.30346 z"
       fill-rule="evenodd"
       id="path223" />
    <path
       fill="#f3f3f3"
       d="m 573.14307,447.26355 v 0 c 0,-13.39398 10.85797,-24.25195 24.25195,-24.25195 v 0 c 6.43201,0 12.60059,2.55511 17.14875,7.10324 4.54809,4.54812 7.10321,10.7167 7.10321,17.14871 v 0 c 0,13.39401 -10.85797,24.25198 -24.25196,24.25198 v 0 c -13.39398,0 -24.25195,-10.85797 -24.25195,-24.25198 z"
       fill-rule="evenodd"
       id="path225" />
    <path
       stroke="#303030"
       stroke-width="1"
       stroke-linejoin="round"
       stroke-linecap="butt"
       d="m 573.14307,447.26355 v 0 c 0,-13.39398 10.85797,-24.25195 24.25195,-24.25195 v 0 c 6.43201,0 12.60059,2.55511 17.14875,7.10324 4.54809,4.54812 7.10321,10.7167 7.10321,17.14871 v 0 c 0,13.39401 -10.85797,24.25198 -24.25196,24.25198 v 0 c -13.39398,0 -24.25195,-10.85797 -24.25195,-24.25198 z"
       fill-rule="evenodd"
       id="path227" />
    <path
       fill="#000000"
       d="m 603.3989,438.61606 v 2.03125 h -9.21875 l 5.85938,6.23437 -5.85938,6.89063 h 9.70313 v 2.03125 H 591.7114 v -2.375 l 5.60938,-6.54688 -5.60938,-5.96875 v -2.29687 z"
       fill-rule="nonzero"
       id="path229" />
    <path
       fill="#c2c2c2"
       d="m 367.51837,447.5129 v 0 c 0,-2.43527 1.97418,-4.40945 4.40945,-4.40945 v 0 c 1.16947,0 2.29102,0.46456 3.11795,1.2915 0.82694,0.82693 1.29151,1.94849 1.29151,3.11795 v 0 c 0,2.43527 -1.97418,4.40945 -4.40946,4.40945 v 0 c -2.43527,0 -4.40945,-1.97418 -4.40945,-4.40945 z"
       fill-rule="evenodd"
       id="path231" />
    <path
       stroke="#c2c2c2"
       stroke-width="1"
       stroke-linejoin="round"
       stroke-linecap="butt"
       d="m 367.51837,447.5129 v 0 c 0,-2.43527 1.97418,-4.40945 4.40945,-4.40945 v 0 c 1.16947,0 2.29102,0.46456 3.11795,1.2915 0.82694,0.82693 1.29151,1.94849 1.29151,3.11795 v 0 c 0,2.43527 -1.97418,4.40945 -4.40946,4.40945 v 0 c -2.43527,0 -4.40945,-1.97418 -4.40945,-4.40945 z"
       fill-rule="evenodd"
       id="path233" />
    <path
       fill="#000000"
       fill-opacity="0"
       d="m 376.33728,447.5129 88.12598,-0.25198"
       fill-rule="evenodd"
       id="path235" />
    <path
       stroke="#c2c2c2"
       stroke-width="2"
       stroke-linejoin="round"
       stroke-linecap="butt"
       d="m 376.33728,447.5129 76.12601,-0.21762"
       fill-rule="evenodd"
       id="path237" />
    <path
       fill="#c2c2c2"
       stroke="#c2c2c2"
       stroke-width="2"
       stroke-linecap="butt"
       d="m 452.47275,450.59872 9.06671,-3.32941 -9.0856,-3.27749 z"
       fill-rule="evenodd"
       id="path239" />
    <path
       fill="#000000"
       fill-opacity="0"
       d="m 371.92783,443.10345 v -45.09183 h 225.48032 v 24.99735"
       fill-rule="evenodd"
       id="path241" />
    <path
       stroke="#c2c2c2"
       stroke-width="2"
       stroke-linejoin="round"
       stroke-linecap="butt"
       d="m 371.92783,443.10345 v -45.0918 h 225.48032 v 12.99732"
       fill-rule="evenodd"
       id="path243" />
    <path
       fill="#c2c2c2"
       stroke="#c2c2c2"
       stroke-width="2"
       stroke-linecap="butt"
       d="m 594.1047,411.00897 3.30347,9.0762 3.30346,-9.0762 z"
       fill-rule="evenodd"
       id="path245" />
    <path
       fill="#000000"
       fill-opacity="0"
       d="m 621.647,447.26355 h 25.08661 v 0.063 h 25.08661"
       fill-rule="evenodd"
       id="path247" />
    <path
       stroke="#c2c2c2"
       stroke-width="2"
       stroke-linejoin="round"
       stroke-linecap="butt"
       d="m 621.647,447.26355 h 25.08661 v 0.063 h 25.08661"
       fill-rule="evenodd"
       id="path249" />
    <path
       fill="#f3f3f3"
       d="m 273.92914,255.93701 48.37796,23.27557 -48.37796,23.27561 z"
       fill-rule="evenodd"
       id="path251" />
    <path
       stroke="#303030"
       stroke-width="1"
       stroke-linejoin="round"
       stroke-linecap="butt"
       d="m 273.92914,255.93701 48.37796,23.27557 -48.37796,23.27561 z"
       fill-rule="evenodd"
       id="path253" />
    <path
       fill="#000000"
       fill-opacity="0"
       d="m 273.92914,269.90027 h 28.97638 v 19.05511 h -28.97638 z"
       fill-rule="evenodd"
       id="path255" />
    <path
       fill="#000000"
       d="m 289.5332,274.13525 q 1.6875,0 2.54688,0.76562 0.85937,0.75 0.85937,1.9375 0,0.21875 -0.0625,0.625 -0.1875,1.07813 -0.98437,1.98438 -0.78125,0.89062 -2.14063,1.20312 l 1.92188,4.60938 h -2.17188 l -1.75,-4.45313 h -1.42187 l -0.78125,4.45313 h -1.8125 l 1.96875,-11.125 z m 1.46875,3.32812 q 0.0625,-0.23437 0.0625,-0.45312 0,-0.6875 -0.45312,-1.0625 -0.4375,-0.39063 -1.32813,-0.39063 h -2.01562 l -0.67188,3.8125 h 2.01563 q 1.01562,0 1.625,-0.5 0.625,-0.51562 0.76562,-1.40625 z"
       fill-rule="nonzero"
       id="path257" />
    <path
       fill="#000000"
       fill-opacity="0"
       d="m 322.3071,279.2126 h 47.46457 v -29.29132"
       fill-rule="evenodd"
       id="path259" />
    <path
       stroke="#c2c2c2"
       stroke-width="2"
       stroke-linejoin="round"
       stroke-linecap="butt"
       d="m 322.3071,279.2126 h 47.46457 v -17.29132"
       fill-rule="evenodd"
       id="path261" />
    <path
       fill="#c2c2c2"
       stroke="#c2c2c2"
       stroke-width="2"
       stroke-linecap="butt"
       d="m 373.0751,261.92126 -3.30344,-9.0762 -3.30346,9.0762 z"
       fill-rule="evenodd"
       id="path263" />
  </g>
</svg>
