<?xml version="1.0" encoding="UTF-8" standalone="no"?>
<svg
   version="1.1"
   viewBox="0 0 815.4646 490.70862"
   fill="none"
   stroke="none"
   stroke-linecap="square"
   stroke-miterlimit="10"
   id="svg141"
   sodipodi:docname="moorer-fig-1.svg"
   inkscape:version="1.2.2 (732a01da63, 2022-12-09)"
   width="815.4646"
   height="490.70862"
   xmlns:inkscape="http://www.inkscape.org/namespaces/inkscape"
   xmlns:sodipodi="http://sodipodi.sourceforge.net/DTD/sodipodi-0.dtd"
   xmlns:xlink="http://www.w3.org/1999/xlink"
   xmlns="http://www.w3.org/2000/svg"
   xmlns:svg="http://www.w3.org/2000/svg">
  <defs
     id="defs145" />
  <sodipodi:namedview
     id="namedview143"
     pagecolor="#505050"
     bordercolor="#eeeeee"
     borderopacity="1"
     inkscape:showpageshadow="0"
     inkscape:pageopacity="0"
     inkscape:pagecheckerboard="0"
     inkscape:deskcolor="#505050"
     showgrid="false"
     inkscape:zoom="1.2604167"
     inkscape:cx="263.00826"
     inkscape:cy="245.15702"
     inkscape:window-width="1920"
     inkscape:window-height="1017"
     inkscape:window-x="1912"
     inkscape:window-y="-8"
     inkscape:window-maximized="1"
     inkscape:current-layer="g139" />
  <clipPath
     id="p.0">
    <path
       d="M 0,0 H 960 V 540 H 0 Z"
       clip-rule="nonzero"
       id="path2" />
  </clipPath>
  <g
     clip-path="url(#p.0)"
     id="g139"
     transform="translate(-72.267713,-24.645665)">
    <path
       fill="#28282a"
       d="m 72.267715,72.99519 v 0 c 0,-26.702705 21.64682,-48.349525 48.349525,-48.349525 h 718.7655 c 12.82312,0 25.12097,5.093952 34.18829,14.161245 9.06726,9.067295 14.16126,21.365189 14.16126,34.18828 v 394.00958 c 0,26.70273 -21.64685,48.34952 -48.34955,48.34952 h -718.7655 c -26.702707,0 -48.349527,-21.64679 -48.349527,-48.34952 z"
       fill-rule="evenodd"
       id="path7" />
    <path
       stroke="#303030"
       stroke-width="1"
       stroke-linejoin="round"
       stroke-linecap="butt"
       d="m 72.267715,72.99519 v 0 c 0,-26.702705 21.64682,-48.349525 48.349525,-48.349525 h 718.7655 c 12.82312,0 25.12097,5.093952 34.18829,14.161245 9.06726,9.067295 14.16126,21.365189 14.16126,34.18828 v 394.00958 c 0,26.70273 -21.64685,48.34952 -48.34955,48.34952 h -718.7655 c -26.702707,0 -48.349527,-21.64679 -48.349527,-48.34952 z"
       fill-rule="evenodd"
       id="path9" />
    <path
       fill="#000000"
       fill-opacity="0"
       d="m 341.98425,24.64567 h 276.0315 V 96.3937 h -276.0315 z"
       fill-rule="evenodd"
       id="path11" />
    <path
       fill="#ffffff"
       d="m 413.97437,66.68567 -3.5,-6.359375 H 409.49 v 6.359375 h -4.10938 V 49.84192 h 6.89063 q 2,0 3.39062,0.703125 1.40625,0.6875 2.09375,1.90625 0.70313,1.203125 0.70313,2.6875 0,1.6875 -0.95313,3.015625 -0.9375,1.3125 -2.78125,1.859375 L 418.615,66.68567 Z M 409.49,57.420045 h 2.54687 q 1.125,0 1.6875,-0.546875 0.5625,-0.5625 0.5625,-1.5625 0,-0.96875 -0.5625,-1.515625 -0.5625,-0.546875 -1.6875,-0.546875 H 409.49 Z m 17.63232,9.453125 q -1.96875,0 -3.54688,-0.828125 -1.5625,-0.84375 -2.46875,-2.40625 -0.89062,-1.5625 -0.89062,-3.65625 0,-2.0625 0.90625,-3.625 0.92187,-1.578125 2.5,-2.40625 1.57812,-0.84375 3.54687,-0.84375 1.96875,0 3.54688,0.84375 1.59375,0.828125 2.5,2.40625 0.92187,1.5625 0.92187,3.625 0,2.078125 -0.92187,3.65625 -0.92188,1.5625 -2.53125,2.40625 -1.59375,0.828125 -3.5625,0.828125 z m 0,-3.546875 q 1.1875,0 2.01562,-0.859375 0.82813,-0.875 0.82813,-2.484375 0,-1.59375 -0.8125,-2.453125 -0.79688,-0.875 -1.98438,-0.875 -1.1875,0 -1.98437,0.859375 -0.79688,0.84375 -0.79688,2.46875 0,1.609375 0.78125,2.484375 0.78125,0.859375 1.95313,0.859375 z m 15.28793,3.546875 q -1.96875,0 -3.54687,-0.828125 -1.5625,-0.84375 -2.46875,-2.40625 -0.89063,-1.5625 -0.89063,-3.65625 0,-2.0625 0.90625,-3.625 0.92188,-1.578125 2.5,-2.40625 1.57813,-0.84375 3.54688,-0.84375 1.96875,0 3.54687,0.84375 1.59375,0.828125 2.5,2.40625 0.92188,1.5625 0.92188,3.625 0,2.078125 -0.92188,3.65625 -0.92187,1.5625 -2.53125,2.40625 -1.59375,0.828125 -3.5625,0.828125 z m 0,-3.546875 q 1.1875,0 2.01563,-0.859375 0.82812,-0.875 0.82812,-2.484375 0,-1.59375 -0.8125,-2.453125 -0.79687,-0.875 -1.98437,-0.875 -1.1875,0 -1.98438,0.859375 -0.79687,0.84375 -0.79687,2.46875 0,1.609375 0.78125,2.484375 0.78125,0.859375 1.95312,0.859375 z M 468.69822,53.15442 q 2.5,0 3.96875,1.515625 1.48437,1.5 1.48437,4.1875 v 7.828125 h -4.09375 v -7.265625 q 0,-1.296875 -0.6875,-2 -0.67187,-0.71875 -1.875,-0.71875 -1.20312,0 -1.89062,0.71875 -0.67188,0.703125 -0.67188,2 v 7.265625 h -4.07812 v -7.265625 q 0,-1.296875 -0.6875,-2 -0.6875,-0.71875 -1.89063,-0.71875 -1.20312,0 -1.89062,0.71875 -0.67188,0.703125 -0.67188,2 v 7.265625 h -4.10937 V 53.295045 h 4.10937 v 1.671875 q 0.625,-0.828125 1.625,-1.3125 1.01563,-0.5 2.28125,-0.5 1.51563,0 2.70313,0.65625 1.1875,0.640625 1.85937,1.828125 0.70313,-1.09375 1.89063,-1.78125 1.20312,-0.703125 2.625,-0.703125 z m 32.48828,-3.3125 v 16.84375 h -4.09375 V 56.576295 l -3.76563,10.109375 h -3.3125 l -3.79687,-10.125 v 10.125 h -4.10938 V 49.84192 h 4.85938 l 4.71875,11.65625 4.6875,-11.65625 z m 9.04754,17.03125 q -1.96875,0 -3.54687,-0.828125 -1.5625,-0.84375 -2.46875,-2.40625 -0.89063,-1.5625 -0.89063,-3.65625 0,-2.0625 0.90625,-3.625 0.92188,-1.578125 2.5,-2.40625 1.57813,-0.84375 3.54688,-0.84375 1.96872,0 3.54684,0.84375 1.59375,0.828125 2.5,2.40625 0.92188,1.5625 0.92188,3.625 0,2.078125 -0.92188,3.65625 -0.92187,1.5625 -2.53125,2.40625 -1.59375,0.828125 -3.56247,0.828125 z m 0,-3.546875 q 1.1875,0 2.0156,-0.859375 0.82812,-0.875 0.82812,-2.484375 0,-1.59375 -0.8125,-2.453125 -0.79684,-0.875 -1.98434,-0.875 -1.1875,0 -1.98438,0.859375 -0.79687,0.84375 -0.79687,2.46875 0,1.609375 0.78125,2.484375 0.78125,0.859375 1.95312,0.859375 z m 8.38168,-3.359375 q 0,-2.0625 0.78125,-3.625 0.78125,-1.5625 2.125,-2.390625 1.34375,-0.84375 3,-0.84375 1.3125,0 2.40625,0.546875 1.09375,0.546875 1.71875,1.484375 v -6.21875 h 4.10938 V 66.68567 h -4.10938 v -1.921875 q -0.57812,0.96875 -1.65625,1.546875 -1.0625,0.5625 -2.46875,0.5625 -1.65625,0 -3,-0.84375 -1.34375,-0.859375 -2.125,-2.421875 -0.78125,-1.578125 -0.78125,-3.640625 z m 10.03125,0.01563 q 0,-1.53125 -0.85937,-2.421875 -0.84375,-0.890625 -2.0625,-0.890625 -1.23438,0 -2.09375,0.890625 -0.84375,0.875 -0.84375,2.40625 0,1.53125 0.84375,2.4375 0.85937,0.890625 2.09375,0.890625 1.21875,0 2.0625,-0.875 0.85937,-0.890625 0.85937,-2.4375 z m 19.70222,-0.203125 q 0,0.5625 -0.0625,1.1875 h -9.29688 q 0.0937,1.25 0.79688,1.921875 0.71875,0.65625 1.75,0.65625 1.53125,0 2.14062,-1.296875 h 4.35938 q -0.32813,1.3125 -1.20313,2.375 -0.875,1.046875 -2.20312,1.65625 -1.3125,0.59375 -2.95313,0.59375 -1.96875,0 -3.5,-0.828125 -1.53125,-0.84375 -2.40625,-2.40625 -0.85937,-1.5625 -0.85937,-3.65625 0,-2.078125 0.84375,-3.640625 0.85937,-1.5625 2.39062,-2.390625 1.54688,-0.84375 3.53125,-0.84375 1.95313,0 3.45313,0.8125 1.51562,0.8125 2.35937,2.328125 0.85938,1.515625 0.85938,3.53125 z M 544.14606,58.7013 q 0,-1.0625 -0.71875,-1.6875 -0.71875,-0.625 -1.79687,-0.625 -1.03125,0 -1.75,0.609375 -0.70313,0.59375 -0.85938,1.703125 z m 10.47144,-9.78125 v 17.76562 h -4.10938 V 48.920045 Z"
       fill-rule="nonzero"
       id="path13" />
    <path
       fill="#f3f3f3"
       d="M 135.82677,189.5538 H 731.01573 V 469.02624 H 135.82677 Z"
       fill-rule="evenodd"
       id="path15" />
    <path
       fill="#c2c2c2"
       d="m 731.01575,189.5538 93.15747,-93.15748 v 279.47244 l -93.15747,93.15747 z"
       fill-rule="evenodd"
       id="path17" />
    <path
       fill="#f5f5f5"
       d="M 135.82677,189.5538 228.98426,96.39632 H 824.17322 L 731.01575,189.5538 Z"
       fill-rule="evenodd"
       id="path19" />
    <path
       fill="#000000"
       fill-opacity="0"
       d="m 135.82677,189.5538 93.15749,-93.15748 h 595.18896 v 279.47244 l -93.15747,93.15747 H 135.82679 Z m 0,0 H 731.01573 L 824.1732,96.39632 m -93.15747,93.15748 v 279.47244"
       fill-rule="evenodd"
       id="path21" />
    <path
       stroke="#303030"
       stroke-width="1"
       stroke-linejoin="round"
       stroke-linecap="butt"
       d="m 135.82677,189.5538 93.15749,-93.15748 h 595.18896 v 279.47244 l -93.15747,93.15747 H 135.82679 Z m 0,0 H 731.01573 L 824.1732,96.39632 m -93.15747,93.15748 v 279.47244"
       fill-rule="evenodd"
       id="path23" />
    <path
       fill="#d9d9d9"
       d="m 338.78482,409.57706 -25.51144,-7.30319 1.16461,-9.51959 26.52005,-0.94101 z"
       fill-rule="evenodd"
       id="path25" />
    <path
       fill="#000000"
       fill-opacity="0"
       d="m 276.01575,347.3937 v 0 c 0,-29.77121 24.13431,-53.90552 53.90552,-53.90552 v 0 c 14.29663,0 28.00769,5.67932 38.11694,15.78855 10.10925,10.10925 15.78858,23.82034 15.78858,38.11697 v 0 c 0,29.77118 -24.13434,53.90552 -53.90552,53.90552 v 0 c -29.77121,0 -53.90552,-24.13434 -53.90552,-53.90552 z"
       fill-rule="evenodd"
       id="path27" />
    <path
       stroke="#5b49c9"
       stroke-width="1"
       stroke-linejoin="round"
       stroke-linecap="butt"
       d="m 276.01575,347.3937 v 0 c 0,-29.77121 24.13431,-53.90552 53.90552,-53.90552 v 0 c 14.29663,0 28.00769,5.67932 38.11694,15.78855 10.10925,10.10925 15.78858,23.82034 15.78858,38.11697 v 0 c 0,29.77118 -24.13434,53.90552 -53.90552,53.90552 v 0 c -29.77121,0 -53.90552,-24.13434 -53.90552,-53.90552 z"
       fill-rule="evenodd"
       id="path29" />
    <path
       fill="#000000"
       fill-opacity="0"
       d="m 285.5118,347.3937 v 0 c 0,-24.52667 19.88278,-44.40945 44.40945,-44.40945 v 0 c 11.77811,0 23.07383,4.67883 31.40223,13.00723 8.32836,8.32837 13.00723,19.62408 13.00723,31.40222 v 0 c 0,24.52664 -19.88281,44.40945 -44.40946,44.40945 v 0 c -24.52667,0 -44.40945,-19.88281 -44.40945,-44.40945 z"
       fill-rule="evenodd"
       id="path31" />
    <path
       stroke="#5b49c9"
       stroke-width="1"
       stroke-linejoin="round"
       stroke-linecap="butt"
       d="m 285.5118,347.3937 v 0 c 0,-24.52667 19.88278,-44.40945 44.40945,-44.40945 v 0 c 11.77811,0 23.07383,4.67883 31.40223,13.00723 8.32836,8.32837 13.00723,19.62408 13.00723,31.40222 v 0 c 0,24.52664 -19.88281,44.40945 -44.40946,44.40945 v 0 c -24.52667,0 -44.40945,-19.88281 -44.40945,-44.40945 z"
       fill-rule="evenodd"
       id="path33" />
    <path
       fill="#000000"
       fill-opacity="0"
       d="m 297.29135,347.3937 v 0 c 0,-18.02103 14.60889,-32.62991 32.62991,-32.62991 v 0 c 8.654,0 16.95353,3.43777 23.07285,9.55707 6.11929,6.11929 9.55707,14.41885 9.55707,23.07284 v 0 c 0,18.021 -14.60892,32.62991 -32.62992,32.62991 v 0 c -18.02102,0 -32.62991,-14.60891 -32.62991,-32.62991 z"
       fill-rule="evenodd"
       id="path35" />
    <path
       stroke="#5b49c9"
       stroke-width="1"
       stroke-linejoin="round"
       stroke-linecap="butt"
       d="m 297.29135,347.3937 v 0 c 0,-18.02103 14.60889,-32.62991 32.62991,-32.62991 v 0 c 8.654,0 16.95353,3.43777 23.07285,9.55707 6.11929,6.11929 9.55707,14.41885 9.55707,23.07284 v 0 c 0,18.021 -14.60892,32.62991 -32.62992,32.62991 v 0 c -18.02102,0 -32.62991,-14.60891 -32.62991,-32.62991 z"
       fill-rule="evenodd"
       id="path37" />
    <path
       fill="#000000"
       fill-opacity="0"
       d="m 136.5328,469.95538 93.00787,-94.74017"
       fill-rule="evenodd"
       id="path39" />
    <path
       stroke="#303030"
       stroke-width="1"
       stroke-linejoin="round"
       stroke-linecap="butt"
       d="m 136.5328,469.95538 93.00787,-94.74017"
       fill-rule="evenodd"
       id="path41" />
    <path
       fill="#000000"
       fill-opacity="0"
       d="M 228.40945,375.5538 H 824.18899"
       fill-rule="evenodd"
       id="path43" />
    <path
       stroke="#303030"
       stroke-width="1"
       stroke-linejoin="round"
       stroke-linecap="butt"
       d="M 228.40945,375.5538 H 824.18899"
       fill-rule="evenodd"
       id="path45" />
    <path
       fill="#000000"
       fill-opacity="0"
       d="M 228.97638,97.37008 V 374.62991"
       fill-rule="evenodd"
       id="path47" />
    <path
       stroke="#303030"
       stroke-width="1"
       stroke-linejoin="round"
       stroke-linecap="butt"
       d="M 228.97638,97.37008 V 374.62991"
       fill-rule="evenodd"
       id="path49" />
    <g
       filter="url(#shadowFilter-p.1)"
       id="g53">
      <use
         xlink:href="#p.1"
         transform="translate(-3.6970932,52.870895)"
         id="use51" />
    </g>
    <defs
       id="defs68">
      <filter
         id="shadowFilter-p.1"
         filterUnits="userSpaceOnUse">
        <feGaussianBlur
           in="SourceAlpha"
           stdDeviation="6.5"
           result="blur"
           id="feGaussianBlur55" />
        <feComponentTransfer
           in="blur"
           color-interpolation-filters="sRGB"
           id="feComponentTransfer65">
          <feFuncR
             type="linear"
             slope="0"
             intercept="0.0"
             id="feFuncR57" />
          <feFuncG
             type="linear"
             slope="0"
             intercept="0.0"
             id="feFuncG59" />
          <feFuncB
             type="linear"
             slope="0"
             intercept="0.0"
             id="feFuncB61" />
          <feFuncA
             type="linear"
             slope="0.2"
             intercept="0"
             id="feFuncA63" />
        </feComponentTransfer>
      </filter>
    </defs>
    <g
       id="p.1">
      <path
         fill="#39393b"
         d="m 338.9265,368.1338 -24.12598,-16.32245 v -8.83542 l 24.12598,-16.32245 z"
         fill-rule="evenodd"
         id="path70" />
      <path
         stroke="#5b49c9"
         stroke-width="1"
         stroke-linejoin="round"
         stroke-linecap="butt"
         d="m 338.9265,368.1338 -24.12598,-16.32245 v -8.83542 l 24.12598,-16.32245 z"
         fill-rule="evenodd"
         id="path72" />
    </g>
    <path
       fill="#000000"
       fill-opacity="0"
       d="m 269.19684,246.17192 h 121.44882 v 47.65355 H 269.19684 Z"
       fill-rule="evenodd"
       id="path75" />
    <path
       fill="#5b49c9"
       d="m 294.9869,278.3838 q -1.75,0 -3.15625,-0.59375 -1.40625,-0.60938 -2.21875,-1.73438 -0.8125,-1.125 -0.84375,-2.67187 h 3.60937 q 0.0625,1.03125 0.71875,1.64062 0.67188,0.59375 1.82813,0.59375 1.17187,0 1.84375,-0.5625 0.67187,-0.5625 0.67187,-1.46875 0,-0.75 -0.46875,-1.23437 -0.45312,-0.48438 -1.14062,-0.75 -0.67188,-0.28125 -1.875,-0.60938 -1.625,-0.48437 -2.65625,-0.95312 -1.01563,-0.46875 -1.75,-1.40625 -0.73438,-0.95313 -0.73438,-2.54688 0,-1.48437 0.75,-2.57812 0.75,-1.10938 2.09375,-1.6875 1.34375,-0.59375 3.0625,-0.59375 2.59375,0 4.21875,1.26562 1.625,1.25 1.78125,3.5 h -3.6875 q -0.0469,-0.85937 -0.73437,-1.42187 -0.6875,-0.5625 -1.8125,-0.5625 -0.98438,0 -1.57813,0.5 -0.57812,0.5 -0.57812,1.46875 0,0.67187 0.4375,1.10937 0.4375,0.4375 1.09375,0.71875 0.67187,0.28125 1.875,0.64063 1.625,0.48437 2.65625,0.96875 1.03125,0.46875 1.78125,1.4375 0.75,0.95312 0.75,2.51562 0,1.34375 -0.70313,2.5 -0.70312,1.14063 -2.04687,1.82813 -1.34375,0.6875 -3.1875,0.6875 z m 14.74094,0.0469 q -1.92188,0 -3.46875,-0.84375 -1.53125,-0.85937 -2.40625,-2.42187 -0.875,-1.5625 -0.875,-3.59375 0,-2.04688 0.89062,-3.60938 0.90625,-1.5625 2.46875,-2.40625 1.5625,-0.85937 3.48438,-0.85937 1.92187,0 3.48437,0.85937 1.5625,0.84375 2.45313,2.40625 0.90625,1.5625 0.90625,3.60938 0,2.03125 -0.9375,3.59375 -0.92188,1.5625 -2.5,2.42187 -1.5625,0.84375 -3.5,0.84375 z m 0,-2.9375 q 0.90625,0 1.70312,-0.4375 0.8125,-0.4375 1.29688,-1.32812 0.48437,-0.89063 0.48437,-2.15625 0,-1.90625 -1,-2.92188 -1,-1.01562 -2.4375,-1.01562 -1.4375,0 -2.42187,1.01562 -0.96875,1.01563 -0.96875,2.92188 0,1.89062 0.95312,2.90625 0.95313,1.01562 2.39063,1.01562 z m 21.95257,-10.57812 v 13.29687 h -3.375 v -1.6875 q -0.65625,0.875 -1.70312,1.375 -1.03125,0.48438 -2.26563,0.48438 -1.5625,0 -2.76562,-0.65625 -1.1875,-0.67188 -1.875,-1.95313 -0.6875,-1.28125 -0.6875,-3.0625 v -7.79687 h 3.35937 v 7.32812 q 0,1.57813 0.79688,2.4375 0.79687,0.84375 2.15625,0.84375 1.39062,0 2.1875,-0.84375 0.79687,-0.85937 0.79687,-2.4375 v -7.32812 z m 6.67645,2.0625 q 0.64063,-1.04688 1.6875,-1.64063 1.04688,-0.60937 2.39063,-0.60937 v 3.53125 h -0.89063 q -1.57812,0 -2.39062,0.75 -0.79688,0.73437 -0.79688,2.57812 v 6.625 h -3.35937 v -13.29687 h 3.35937 z m 5.47724,4.59375 q 0,-2.07813 0.82812,-3.625 0.84375,-1.54688 2.32813,-2.39063 1.5,-0.85937 3.42187,-0.85937 2.46875,0 4.07813,1.23437 1.625,1.23438 2.17187,3.46875 h -3.60937 q -0.29688,-0.85937 -0.98438,-1.34375 -0.67187,-0.5 -1.6875,-0.5 -1.4375,0 -2.28125,1.04688 -0.84375,1.04687 -0.84375,2.96875 0,1.89062 0.84375,2.9375 0.84375,1.04687 2.28125,1.04687 2.04688,0 2.67188,-1.82812 h 3.60937 q -0.54687,2.15625 -2.1875,3.4375 -1.625,1.26562 -4.0625,1.26562 -1.92187,0 -3.42187,-0.84375 -1.48438,-0.85937 -2.32813,-2.40625 -0.82812,-1.54687 -0.82812,-3.60937 z m 27.66669,-0.29688 q 0,0.71875 -0.0937,1.29688 h -9.71875 q 0.10937,1.4375 1,2.26562 0.89062,0.8125 2.1875,0.8125 1.875,0 2.67187,-1.60937 h 3.625 q -0.57812,1.92187 -2.21875,3.15625 -1.625,1.23437 -4,1.23437 -1.92187,0 -3.45312,-0.84375 -1.51563,-0.85937 -2.375,-2.42187 -0.84375,-1.5625 -0.84375,-3.59375 0,-2.07813 0.82812,-3.625 0.84375,-1.5625 2.35938,-2.40625 1.51562,-0.84375 3.48437,-0.84375 1.89063,0 3.39063,0.82812 1.5,0.8125 2.32812,2.3125 0.82813,1.5 0.82813,3.4375 z m -3.48438,-0.95312 q -0.0156,-1.29688 -0.9375,-2.07813 -0.90625,-0.78125 -2.21875,-0.78125 -1.25,0 -2.10937,0.76563 -0.84375,0.75 -1.04688,2.09375 z"
       fill-rule="nonzero"
       id="path77" />
    <path
       fill="#000000"
       fill-opacity="0"
       d="M 428.3937,119.32546 H 531.60632 V 166.979 H 428.3937 Z"
       fill-rule="evenodd"
       id="path79" />
    <path
       fill="#8a2748"
       d="m 485.6219,137.42796 h -7.5 v 3.3125 q 0.48437,-0.53125 1.34375,-0.85937 0.875,-0.34375 1.875,-0.34375 1.79687,0 2.98437,0.8125 1.1875,0.8125 1.73438,2.10937 0.5625,1.29688 0.5625,2.8125 0,2.8125 -1.59375,4.45313 -1.57813,1.64062 -4.45313,1.64062 -1.92187,0 -3.34375,-0.65625 -1.40625,-0.65625 -2.17187,-1.82812 -0.76563,-1.1875 -0.84375,-2.71875 h 4.01562 q 0.14063,0.73437 0.6875,1.23437 0.54688,0.48438 1.51563,0.48438 1.125,0 1.67187,-0.71875 0.5625,-0.71875 0.5625,-1.92188 0,-1.17187 -0.57812,-1.79687 -0.57813,-0.625 -1.6875,-0.625 -0.8125,0 -1.34375,0.40625 -0.51563,0.39062 -0.6875,1.03125 h -3.96875 v -10.4375 h 11.21875 z"
       fill-rule="nonzero"
       id="path81" />
    <path
       fill="#000000"
       fill-opacity="0"
       d="m 727.147,266.2546 h 103.21259 v 47.65353 H 727.147 Z"
       fill-rule="evenodd"
       id="path83" />
    <path
       fill="#8a2748"
       d="m 780.8593,285.4977 q -0.20313,-0.89063 -0.6875,-1.32813 -0.46875,-0.4375 -1.35938,-0.4375 -1.35937,0 -1.96875,1.1875 -0.59375,1.1875 -0.625,3.75 0.53125,-0.84375 1.51563,-1.3125 1,-0.48437 2.20312,-0.48437 2.35938,0 3.78125,1.48437 1.4375,1.48438 1.4375,4.15625 0,1.75 -0.71875,3.07813 -0.70312,1.3125 -2.0625,2.0625 -1.35937,0.73437 -3.20312,0.73437 -3.6875,0 -5.14063,-2.3125 -1.4375,-2.3125 -1.4375,-6.65625 0,-4.5625 1.51563,-6.78125 1.53125,-2.21875 4.89062,-2.21875 1.8125,0 3.04688,0.70313 1.23437,0.70312 1.85937,1.85937 0.64063,1.15625 0.76563,2.51563 z m -1.90625,4.60937 q -1.03125,0 -1.71875,0.625 -0.67188,0.60938 -0.67188,1.73438 0,1.14062 0.625,1.79687 0.64063,0.64063 1.8125,0.64063 1.0625,0 1.67188,-0.625 0.60937,-0.64063 0.60937,-1.75 0,-1.125 -0.60937,-1.76563 -0.59375,-0.65625 -1.71875,-0.65625 z"
       fill-rule="nonzero"
       id="path85" />
    <path
       fill="#000000"
       fill-opacity="0"
       d="m 131.43045,266.2546 h 103.2126 v 47.65353 h -103.2126 z"
       fill-rule="evenodd"
       id="path87" />
    <path
       fill="#8a2748"
       d="m 176.99551,285.71646 q 0.0937,-2.5625 1.67187,-3.95313 1.59375,-1.39062 4.3125,-1.39062 1.79688,0 3.07813,0.625 1.28125,0.60937 1.9375,1.70312 0.67187,1.07813 0.67187,2.42188 0,1.57812 -0.79687,2.57812 -0.79688,1 -1.84375,1.35938 v 0.0937 q 1.35937,0.45312 2.15625,1.51562 0.79687,1.04688 0.79687,2.70313 0,1.48437 -0.6875,2.625 -0.6875,1.14062 -2,1.79687 -1.29687,0.64063 -3.09375,0.64063 -2.89062,0 -4.60937,-1.40625 -1.70313,-1.42188 -1.79688,-4.28125 h 3.96875 q 0.0312,1.0625 0.60938,1.67187 0.57812,0.60938 1.67187,0.60938 0.9375,0 1.45313,-0.53125 0.51562,-0.54688 0.51562,-1.4375 0,-1.15625 -0.73437,-1.67188 -0.71875,-0.51562 -2.32813,-0.51562 h -0.76562 v -3.32813 h 0.76562 q 1.21875,0 1.96875,-0.42187 0.76563,-0.42188 0.76563,-1.5 0,-0.85938 -0.48438,-1.34375 -0.48437,-0.48438 -1.3125,-0.48438 -0.92187,0 -1.375,0.5625 -0.4375,0.54688 -0.5,1.35938 z"
       fill-rule="nonzero"
       id="path89" />
    <path
       fill="#000000"
       fill-opacity="0"
       d="m 474.6929,239.98688 h 103.21262 v 47.65353 H 474.6929 Z"
       fill-rule="evenodd"
       id="path91" />
    <path
       fill="#8a2748"
       d="m 520.3847,268.74564 q 0.8125,-0.65625 0.75,-0.60938 2.34375,-1.9375 3.70312,-3.1875 1.35938,-1.25 2.28125,-2.60937 0.9375,-1.375 0.9375,-2.67188 0,-0.98437 -0.45312,-1.53125 -0.45313,-0.5625 -1.35938,-0.5625 -0.92187,0 -1.4375,0.6875 -0.51562,0.6875 -0.51562,1.9375 h -3.95313 q 0.0469,-2.04687 0.875,-3.40625 0.82813,-1.37501 2.17188,-2.01564 1.35937,-0.65625 3.01562,-0.65625 2.85938,0 4.3125,1.46875 1.45313,1.46877 1.45313,3.81252 0,2.5625 -1.75,4.76562 -1.75,2.20313 -4.46875,4.28125 h 6.48437 v 3.34375 H 520.3847 Z"
       fill-rule="nonzero"
       id="path93" />
    <path
       fill="#000000"
       fill-opacity="0"
       d="m 401.03937,398.75854 h 103.21262 v 47.65353 H 401.03937 Z"
       fill-rule="evenodd"
       id="path95" />
    <path
       fill="#8a2748"
       d="m 448.77432,417.0954 v -3.8125 h 6.65625 v 17.51562 h -4.26563 V 417.0954 Z"
       fill-rule="nonzero"
       id="path97" />
    <path
       fill="#000000"
       fill-opacity="0"
       d="m 376.7874,307.77036 h 103.21258 v 47.65353 H 376.7874 Z"
       fill-rule="evenodd"
       id="path99" />
    <path
       fill="#b59aa3"
       d="m 415.83737,344.82596 q -2.32812,-2.23438 -3.625,-5.75 -1.29687,-3.53125 -1.29687,-7.625 0,-4.125 1.34375,-7.70313 1.34375,-3.59375 3.8125,-5.84375 h 4.03125 v 0.375 q -2.51563,2.5 -3.89063,6 -1.35937,3.48438 -1.35937,7.17188 0,3.67187 1.3125,7.09375 1.3125,3.40625 3.71875,5.89062 v 0.39063 z m 5.60422,-8.14063 v -3.3125 l 7.59375,-10.84375 h 4.57812 v 10.60938 h 1.96875 v 3.54687 h -1.96875 v 3.125 h -4.10937 v -3.125 z m 8.35937,-9.64062 -4.03125,6.09375 h 4.03125 z m 7.10733,17.78125 v -0.39063 q 2.39063,-2.48437 3.70313,-5.89062 1.32812,-3.42188 1.32812,-7.09375 0,-3.6875 -1.375,-7.17188 -1.35937,-3.5 -3.875,-6 v -0.375 h 4.03125 q 2.46875,2.25 3.8125,5.84375 1.34375,3.57813 1.34375,7.70313 0,4.09375 -1.29687,7.625 -1.29688,3.51562 -3.625,5.75 z"
       fill-rule="nonzero"
       id="path101" />
    <path
       fill="#39393b"
       d="m 614.81104,376.4042 -2.74805,40.50394 h -5.49603 l -2.74805,-40.50394 z"
       fill-rule="evenodd"
       id="path103" />
    <path
       stroke="#28282a"
       stroke-width="1"
       stroke-linejoin="round"
       stroke-linecap="butt"
       d="m 614.81104,376.4042 -2.74805,40.50394 h -5.49603 l -2.74805,-40.50394 z"
       fill-rule="evenodd"
       id="path105" />
    <g
       filter="url(#shadowFilter-p.2)"
       id="g109">
      <use
         xlink:href="#p.2"
         transform="translate(-6.1880577,70.729823)"
         id="use107" />
    </g>
    <defs
       id="defs124">
      <filter
         id="shadowFilter-p.2"
         filterUnits="userSpaceOnUse">
        <feGaussianBlur
           in="SourceAlpha"
           stdDeviation="3.5"
           result="blur"
           id="feGaussianBlur111" />
        <feComponentTransfer
           in="blur"
           color-interpolation-filters="sRGB"
           id="feComponentTransfer121">
          <feFuncR
             type="linear"
             slope="0"
             intercept="0.0"
             id="feFuncR113" />
          <feFuncG
             type="linear"
             slope="0"
             intercept="0.0"
             id="feFuncG115" />
          <feFuncB
             type="linear"
             slope="0"
             intercept="0.0"
             id="feFuncB117" />
          <feFuncA
             type="linear"
             slope="0.16"
             intercept="0"
             id="feFuncA119" />
        </feComponentTransfer>
      </filter>
    </defs>
    <g
       id="p.2">
      <path
         fill="#c2c2c2"
         d="m 599.8504,371.39108 v 0 c 0,-5.22714 4.23743,-9.46457 9.46454,-9.46457 v 0 c 2.51019,0 4.91754,0.99716 6.6925,2.7721 1.77491,1.77496 2.7721,4.18231 2.7721,6.69247 v 0 c 0,5.22714 -4.23743,9.46457 -9.4646,9.46457 v 0 c -5.22711,0 -9.46454,-4.23743 -9.46454,-9.46457 z"
         fill-rule="evenodd"
         id="path126" />
      <path
         stroke="#303030"
         stroke-width="1"
         stroke-linejoin="round"
         stroke-linecap="butt"
         d="m 599.8504,371.39108 v 0 c 0,-5.22714 4.23743,-9.46457 9.46454,-9.46457 v 0 c 2.51019,0 4.91754,0.99716 6.6925,2.7721 1.77491,1.77496 2.7721,4.18231 2.7721,6.69247 v 0 c 0,5.22714 -4.23743,9.46457 -9.4646,9.46457 v 0 c -5.22711,0 -9.46454,-4.23743 -9.46454,-9.46457 z"
         fill-rule="evenodd"
         id="path128" />
    </g>
    <path
       fill="#000000"
       fill-opacity="0"
       d="m 548.5906,313.90683 h 121.44879 v 47.65353 H 548.5906 Z"
       fill-rule="evenodd"
       id="path131" />
    <path
       fill="#28282a"
       d="m 566.70276,343.2906 h 5.51562 v 2.65625 h -8.875 v -16.75 h 3.35938 z m 9.35968,-12.21875 q -0.89062,0 -1.48437,-0.5625 -0.57813,-0.57813 -0.57813,-1.40625 0,-0.84375 0.57813,-1.40625 0.59375,-0.5625 1.48437,-0.5625 0.89063,0 1.46875,0.5625 0.59375,0.5625 0.59375,1.40625 0,0.82812 -0.59375,1.40625 -0.57812,0.5625 -1.46875,0.5625 z m 1.65625,1.57812 v 13.29688 h -3.35937 v -13.29688 z m 8.40637,13.51563 q -1.64062,0 -2.9375,-0.57813 -1.29687,-0.59375 -2.04687,-1.59375 -0.75,-1.01562 -0.82813,-2.25 h 3.375 q 0.10938,0.76563 0.76563,1.28125 0.65625,0.5 1.64062,0.5 0.96875,0 1.5,-0.375 0.54688,-0.39062 0.54688,-1 0,-0.64062 -0.67188,-0.96875 -0.65625,-0.32812 -2.09375,-0.70312 -1.48437,-0.35938 -2.4375,-0.73438 -0.95312,-0.39062 -1.64062,-1.1875 -0.67188,-0.79687 -0.67188,-2.14062 0,-1.09375 0.625,-2 0.64063,-0.92188 1.82813,-1.45313 1.1875,-0.53125 2.79687,-0.53125 2.375,0 3.79688,1.1875 1.42187,1.1875 1.5625,3.20313 h -3.21875 q -0.0781,-0.78125 -0.67188,-1.25 -0.57812,-0.46875 -1.5625,-0.46875 -0.90625,0 -1.40625,0.34375 -0.48437,0.32812 -0.48437,0.92187 0,0.67188 0.67187,1.03125 0.67188,0.34375 2.07813,0.70313 1.45312,0.35937 2.375,0.75 0.9375,0.375 1.625,1.1875 0.6875,0.79687 0.70312,2.10937 0,1.15625 -0.64062,2.07813 -0.625,0.90625 -1.8125,1.42187 -1.1875,0.51563 -2.76563,0.51563 z m 11.89246,-10.75 v 6.42187 q 0,0.67188 0.32812,0.98438 0.32813,0.29687 1.09375,0.29687 h 1.5625 v 2.82813 h -2.10937 q -4.25,0 -4.25,-4.125 v -6.40625 h -1.59375 v -2.76563 h 1.59375 v -3.28125 h 3.375 v 3.28125 h 2.98437 v 2.76563 z m 17.76507,3.59375 q 0,0.71875 -0.0937,1.29687 h -9.71875 q 0.10938,1.4375 1,2.26563 0.89063,0.8125 2.1875,0.8125 1.875,0 2.67188,-1.60938 h 3.625 q -0.57813,1.92188 -2.21875,3.15625 -1.625,1.23438 -4,1.23438 -1.92188,0 -3.45313,-0.84375 -1.51562,-0.85938 -2.375,-2.42188 -0.84375,-1.5625 -0.84375,-3.59375 0,-2.07812 0.82813,-3.625 0.84375,-1.5625 2.35937,-2.40625 1.51563,-0.84375 3.48438,-0.84375 1.89062,0 3.39062,0.82813 1.5,0.8125 2.32813,2.3125 0.82812,1.5 0.82812,3.4375 z m -3.48437,-0.95313 q -0.0156,-1.29687 -0.9375,-2.07812 -0.90625,-0.78125 -2.21875,-0.78125 -1.25,0 -2.10938,0.76562 -0.84375,0.75 -1.04687,2.09375 z m 13.30798,-5.59375 q 2.375,0 3.82813,1.5 1.46875,1.5 1.46875,4.1875 v 7.79688 h -3.35938 v -7.34375 q 0,-1.57813 -0.79687,-2.42188 -0.78125,-0.85937 -2.15625,-0.85937 -1.39063,0 -2.20313,0.85937 -0.79687,0.84375 -0.79687,2.42188 v 7.34375 h -3.35938 v -13.29688 h 3.35938 v 1.65625 q 0.67187,-0.85937 1.71875,-1.34375 1.04687,-0.5 2.29687,-0.5 z m 20.84833,6.54688 q 0,0.71875 -0.0937,1.29687 h -9.71875 q 0.10938,1.4375 1,2.26563 0.89063,0.8125 2.1875,0.8125 1.875,0 2.67188,-1.60938 h 3.625 q -0.57813,1.92188 -2.21875,3.15625 -1.625,1.23438 -4,1.23438 -1.92188,0 -3.45313,-0.84375 -1.51562,-0.85938 -2.375,-2.42188 -0.84375,-1.5625 -0.84375,-3.59375 0,-2.07812 0.82813,-3.625 0.84375,-1.5625 2.35937,-2.40625 1.51563,-0.84375 3.48438,-0.84375 1.89062,0 3.39062,0.82813 1.5,0.8125 2.32813,2.3125 0.82812,1.5 0.82812,3.4375 z m -3.48437,-0.95313 q -0.0156,-1.29687 -0.9375,-2.07812 -0.90625,-0.78125 -2.21875,-0.78125 -1.25,0 -2.10938,0.76562 -0.84375,0.75 -1.04687,2.09375 z m 9.29229,-3.34375 q 0.64063,-1.04687 1.6875,-1.64062 1.04688,-0.60938 2.39063,-0.60938 v 3.53125 h -0.89063 q -1.57812,0 -2.39062,0.75 -0.79688,0.73438 -0.79688,2.57813 v 6.625 h -3.35937 v -13.29688 h 3.35937 z"
       fill-rule="nonzero"
       id="path133" />
    <path
       fill="#d9d9d9"
       d="m 598.7153,438.50925 6.80652,-16.54639 6.48138,1.50223 -1.19342,17.84732 z"
       fill-rule="evenodd"
       id="path135" />
    <path
       fill="#d9d9d9"
       d="m 595.51184,442.65616 v 0 c 0,-4.61832 3.74384,-8.36218 8.36218,-8.36218 v 0 c 2.21778,0 4.34473,0.88101 5.91297,2.44922 1.56823,1.5682 2.44922,3.69519 2.44922,5.91296 v 0 c 0,4.61832 -3.7439,8.36221 -8.36219,8.36221 v 0 c -4.61834,0 -8.36218,-3.74389 -8.36218,-8.36221 z"
       fill-rule="evenodd"
       id="path137" />
  </g>
</svg>
