<?xml version="1.0" encoding="UTF-8" standalone="no"?>
<svg
   version="1.1"
   viewBox="0 0 815.4646 490.70862"
   fill="none"
   stroke="none"
   stroke-linecap="square"
   stroke-miterlimit="10"
   id="svg219"
   sodipodi:docname="moorer-fig-2.svg"
   inkscape:version="1.2.2 (732a01da63, 2022-12-09)"
   width="815.4646"
   height="490.70862"
   xmlns:inkscape="http://www.inkscape.org/namespaces/inkscape"
   xmlns:sodipodi="http://sodipodi.sourceforge.net/DTD/sodipodi-0.dtd"
   xmlns="http://www.w3.org/2000/svg"
   xmlns:svg="http://www.w3.org/2000/svg">
  <defs
     id="defs223" />
  <sodipodi:namedview
     id="namedview221"
     pagecolor="#505050"
     bordercolor="#eeeeee"
     borderopacity="1"
     inkscape:showpageshadow="0"
     inkscape:pageopacity="0"
     inkscape:pagecheckerboard="0"
     inkscape:deskcolor="#505050"
     showgrid="false"
     inkscape:zoom="1.2604167"
     inkscape:cx="288.39669"
     inkscape:cy="245.15702"
     inkscape:window-width="1920"
     inkscape:window-height="1017"
     inkscape:window-x="1912"
     inkscape:window-y="-8"
     inkscape:window-maximized="1"
     inkscape:current-layer="g217" />
  <clipPath
     id="g2c5e46305a3_0_67.0">
    <path
       d="M 0,0 H 960 V 540 H 0 Z"
       clip-rule="nonzero"
       id="path2" />
  </clipPath>
  <g
     clip-path="url(#g2c5e46305a3_0_67.0)"
     id="g217"
     transform="translate(-72.267713,-24.645665)">
    <path
       fill="#28282a"
       d="m 72.267715,72.99519 v 0 c 0,-26.702705 21.64682,-48.349525 48.349525,-48.349525 h 718.7655 c 12.82312,0 25.12097,5.093952 34.18829,14.161245 9.06726,9.067295 14.16126,21.365189 14.16126,34.18828 v 394.00958 c 0,26.70273 -21.64685,48.34952 -48.34955,48.34952 h -718.7655 c -26.702707,0 -48.349527,-21.64679 -48.349527,-48.34952 z"
       fill-rule="evenodd"
       id="path7" />
    <path
       stroke="#303030"
       stroke-width="1"
       stroke-linejoin="round"
       stroke-linecap="butt"
       d="m 72.267715,72.99519 v 0 c 0,-26.702705 21.64682,-48.349525 48.349525,-48.349525 h 718.7655 c 12.82312,0 25.12097,5.093952 34.18829,14.161245 9.06726,9.067295 14.16126,21.365189 14.16126,34.18828 v 394.00958 c 0,26.70273 -21.64685,48.34952 -48.34955,48.34952 h -718.7655 c -26.702707,0 -48.349527,-21.64679 -48.349527,-48.34952 z"
       fill-rule="evenodd"
       id="path9" />
    <path
       fill="#000000"
       fill-opacity="0"
       d="m 516.74805,255.51712 v 0 c 0,-7.5611 6.12946,-13.69057 13.69055,-13.69057 h 123.54804 c 3.63092,0 7.11316,1.4424 9.68066,4.00988 2.56744,2.56747 4.00989,6.04972 4.00989,9.68069 v 54.76059 c 0,7.5611 -6.12952,13.69058 -13.69055,13.69058 H 530.4386 c -7.56109,0 -13.69055,-6.12948 -13.69055,-13.69058 z"
       fill-rule="evenodd"
       id="path11" />
    <path
       stroke="#8a2748"
       stroke-width="2"
       stroke-linejoin="round"
       stroke-linecap="butt"
       stroke-dasharray="8, 6"
       d="m 516.74805,255.51712 v 0 c 0,-7.5611 6.12946,-13.69057 13.69055,-13.69057 h 123.54804 c 3.63092,0 7.11316,1.4424 9.68066,4.00988 2.56744,2.56747 4.00989,6.04972 4.00989,9.68069 v 54.76059 c 0,7.5611 -6.12952,13.69058 -13.69055,13.69058 H 530.4386 c -7.56109,0 -13.69055,-6.12948 -13.69055,-13.69058 z"
       fill-rule="evenodd"
       id="path13" />
    <path
       fill="#000000"
       fill-opacity="0"
       d="m 233.72966,142.13454 v 0 c 0,-18.72877 15.18266,-33.91144 33.91145,-33.91144 h 135.64166 v 0 c 8.9939,0 17.61939,3.5728 23.97904,9.93243 6.35962,6.35963 9.9324,14.98514 9.9324,23.97901 v 281.02753 c 0,18.72876 -15.18265,33.91144 -33.91144,33.91144 H 267.64111 c -18.72879,0 -33.91145,-15.18268 -33.91145,-33.91144 z"
       fill-rule="evenodd"
       id="path15" />
    <path
       stroke="#5441c4"
       stroke-width="2"
       stroke-linejoin="round"
       stroke-linecap="butt"
       stroke-dasharray="8, 6"
       d="m 233.72966,142.13454 v 0 c 0,-18.72877 15.18266,-33.91144 33.91145,-33.91144 h 135.64166 v 0 c 8.9939,0 17.61939,3.5728 23.97904,9.93243 6.35962,6.35963 9.9324,14.98514 9.9324,23.97901 v 281.02753 c 0,18.72876 -15.18265,33.91144 -33.91144,33.91144 H 267.64111 c -18.72879,0 -33.91145,-15.18268 -33.91145,-33.91144 z"
       fill-rule="evenodd"
       id="path17" />
    <path
       fill="#f3f3f3"
       d="m 279.7953,129.4737 v 0 c 0,-4.49664 3.64523,-8.14189 8.14188,-8.14189 h 102.33038 c 2.15936,0 4.23028,0.8578 5.7572,2.3847 1.52688,1.5269 2.3847,3.59783 2.3847,5.75719 v 32.56661 c 0,4.49664 -3.64526,8.1419 -8.1419,8.1419 H 287.93718 v 0 c -4.49665,0 -8.14188,-3.64526 -8.14188,-8.1419 z"
       fill-rule="evenodd"
       id="path19" />
    <path
       stroke="#303030"
       stroke-width="1"
       stroke-linejoin="round"
       stroke-linecap="butt"
       d="m 279.7953,129.4737 v 0 c 0,-4.49664 3.64523,-8.14189 8.14188,-8.14189 h 102.33038 c 2.15936,0 4.23028,0.8578 5.7572,2.3847 1.52688,1.5269 2.3847,3.59783 2.3847,5.75719 v 32.56661 c 0,4.49664 -3.64526,8.1419 -8.1419,8.1419 H 287.93718 v 0 c -4.49665,0 -8.14188,-3.64526 -8.14188,-8.1419 z"
       fill-rule="evenodd"
       id="path21" />
    <path
       fill="#000000"
       d="m 301.33798,150.95825 h 4.375 v 1.71875 h -6.5 v -12.96875 h 2.125 z m 15.22089,-7.39063 q 0,1 -0.46875,1.875 -0.46875,0.875 -1.5,1.42188 -1.01563,0.54687 -2.625,0.54687 h -2.34375 v 5.26563 h -2.125 v -12.96875 h 4.46875 q 1.5,0 2.53125,0.51562 1.03125,0.51563 1.54687,1.39063 0.51563,0.875 0.51563,1.95312 z m -4.59375,2.10938 q 1.21875,0 1.8125,-0.54688 0.59375,-0.54687 0.59375,-1.5625 0,-2.125 -2.40625,-2.125 h -2.34375 v 4.23438 z m 10.76358,0.48437 q 0,-1.89062 0.89062,-3.40625 0.89063,-1.51562 2.40625,-2.35937 1.51563,-0.85938 3.32813,-0.85938 2.07812,0 3.6875,1.03125 1.60937,1.01563 2.34375,2.875 h -2.5625 q -0.5,-1.03125 -1.40625,-1.53125 -0.89063,-0.5 -2.0625,-0.5 -1.28125,0 -2.29688,0.57813 -1,0.57812 -1.57812,1.65625 -0.5625,1.07812 -0.5625,2.51562 0,1.4375 0.5625,2.53125 0.57812,1.07813 1.57812,1.67188 1.01563,0.57812 2.29688,0.57812 1.17187,0 2.0625,-0.5 0.90625,-0.51562 1.40625,-1.53125 h 2.5625 q -0.73438,1.85938 -2.34375,2.875 -1.60938,1 -3.6875,1 -1.82813,0 -3.34375,-0.84375 -1.5,-0.84375 -2.39063,-2.35937 -0.89062,-1.51563 -0.89062,-3.42188 z m 19.59317,6.6875 q -1.45313,0 -2.64063,-0.65625 -1.17187,-0.67187 -1.84375,-1.875 -0.67187,-1.20312 -0.67187,-2.79687 0,-1.5625 0.6875,-2.76563 0.70312,-1.21875 1.89062,-1.875 1.20313,-0.65625 2.67188,-0.65625 1.46875,0 2.65625,0.65625 1.20312,0.65625 1.89062,1.875 0.6875,1.20313 0.6875,2.76563 0,1.57812 -0.70312,2.79687 -0.70313,1.20313 -1.9375,1.875 -1.21875,0.65625 -2.6875,0.65625 z m 0,-1.84375 q 0.8125,0 1.53125,-0.39062 0.71875,-0.40625 1.17187,-1.1875 0.45313,-0.78125 0.45313,-1.90625 0,-1.10938 -0.4375,-1.875 -0.42188,-0.78125 -1.14063,-1.17188 -0.70312,-0.39062 -1.53125,-0.39062 -0.8125,0 -1.51562,0.39062 -0.70313,0.39063 -1.10938,1.17188 -0.40625,0.76562 -0.40625,1.875 0,1.67187 0.84375,2.57812 0.85938,0.90625 2.14063,0.90625 z m 19.88705,-8.78125 q 1.21875,0 2.17187,0.51563 0.96875,0.5 1.51563,1.48437 0.54687,0.98438 0.54687,2.39063 v 6.0625 h -2.10937 v -5.75 q 0,-1.375 -0.6875,-2.10938 -0.6875,-0.73437 -1.89063,-0.73437 -1.1875,0 -1.89062,0.73437 -0.70313,0.73438 -0.70313,2.10938 v 5.75 h -2.10937 v -5.75 q 0,-1.375 -0.6875,-2.10938 -0.6875,-0.73437 -1.875,-0.73437 -1.20313,0 -1.90625,0.73437 -0.6875,0.73438 -0.6875,2.10938 v 5.75 h -2.125 v -10.28125 h 2.125 v 1.17187 q 0.51562,-0.625 1.3125,-0.98437 0.8125,-0.35938 1.71875,-0.35938 1.23437,0 2.20312,0.53125 0.96875,0.51563 1.5,1.51563 0.46875,-0.9375 1.45313,-1.48438 0.98437,-0.5625 2.125,-0.5625 z m 9.07135,1.70313 q 0.53125,-0.75 1.46875,-1.21875 0.95312,-0.48438 2.10937,-0.48438 1.35938,0 2.45313,0.65625 1.10937,0.65625 1.73437,1.85938 0.64063,1.20312 0.64063,2.75 0,1.54687 -0.64063,2.78125 -0.625,1.21875 -1.73437,1.90625 -1.10938,0.67187 -2.45313,0.67187 -1.20312,0 -2.125,-0.46875 -0.92187,-0.46875 -1.45312,-1.20312 v 1.5 h -2.125 v -13.8125 h 2.125 z m 6.25,3.5625 q 0,-1.0625 -0.4375,-1.82813 -0.4375,-0.78125 -1.15625,-1.17187 -0.71875,-0.40625 -1.54688,-0.40625 -0.79687,0 -1.51562,0.40625 -0.71875,0.40625 -1.15625,1.1875 -0.4375,0.78125 -0.4375,1.84375 0,1.07812 0.4375,1.875 0.4375,0.78125 1.15625,1.20312 0.71875,0.40625 1.51562,0.40625 0.82813,0 1.54688,-0.42187 0.71875,-0.42188 1.15625,-1.21875 0.4375,-0.8125 0.4375,-1.875 z"
       fill-rule="nonzero"
       id="path23" />
    <path
       fill="#f3f3f3"
       d="m 279.7953,184.23222 v 0 c 0,-4.49664 3.64523,-8.14189 8.14188,-8.14189 h 102.33038 c 2.15936,0 4.23028,0.8578 5.7572,2.3847 1.52688,1.5269 2.3847,3.59783 2.3847,5.75719 v 32.56661 c 0,4.49664 -3.64526,8.1419 -8.1419,8.1419 H 287.93718 v 0 c -4.49665,0 -8.14188,-3.64526 -8.14188,-8.1419 z"
       fill-rule="evenodd"
       id="path25" />
    <path
       stroke="#303030"
       stroke-width="1"
       stroke-linejoin="round"
       stroke-linecap="butt"
       d="m 279.7953,184.23222 v 0 c 0,-4.49664 3.64523,-8.14189 8.14188,-8.14189 h 102.33038 c 2.15936,0 4.23028,0.8578 5.7572,2.3847 1.52688,1.5269 2.3847,3.59783 2.3847,5.75719 v 32.56661 c 0,4.49664 -3.64526,8.1419 -8.1419,8.1419 H 287.93718 v 0 c -4.49665,0 -8.14188,-3.64526 -8.14188,-8.1419 z"
       fill-rule="evenodd"
       id="path27" />
    <path
       fill="#000000"
       d="m 301.33798,205.71678 h 4.375 v 1.71875 h -6.5 v -12.96875 h 2.125 z m 15.22089,-7.39063 q 0,1 -0.46875,1.875 -0.46875,0.875 -1.5,1.42188 -1.01563,0.54687 -2.625,0.54687 h -2.34375 v 5.26563 h -2.125 v -12.96875 h 4.46875 q 1.5,0 2.53125,0.51562 1.03125,0.51563 1.54687,1.39063 0.51563,0.875 0.51563,1.95312 z m -4.59375,2.10938 q 1.21875,0 1.8125,-0.54688 0.59375,-0.54687 0.59375,-1.5625 0,-2.125 -2.40625,-2.125 h -2.34375 v 4.23438 z m 10.76358,0.48437 q 0,-1.89062 0.89062,-3.40625 0.89063,-1.51562 2.40625,-2.35937 1.51563,-0.85938 3.32813,-0.85938 2.07812,0 3.6875,1.03125 1.60937,1.01563 2.34375,2.875 h -2.5625 q -0.5,-1.03125 -1.40625,-1.53125 -0.89063,-0.5 -2.0625,-0.5 -1.28125,0 -2.29688,0.57813 -1,0.57812 -1.57812,1.65625 -0.5625,1.07812 -0.5625,2.51562 0,1.4375 0.5625,2.53125 0.57812,1.07813 1.57812,1.67188 1.01563,0.57812 2.29688,0.57812 1.17187,0 2.0625,-0.5 0.90625,-0.51562 1.40625,-1.53125 h 2.5625 q -0.73438,1.85938 -2.34375,2.875 -1.60938,1 -3.6875,1 -1.82813,0 -3.34375,-0.84375 -1.5,-0.84375 -2.39063,-2.35937 -0.89062,-1.51563 -0.89062,-3.42188 z m 19.59317,6.6875 q -1.45313,0 -2.64063,-0.65625 -1.17187,-0.67187 -1.84375,-1.875 -0.67187,-1.20312 -0.67187,-2.79687 0,-1.5625 0.6875,-2.76563 0.70312,-1.21875 1.89062,-1.875 1.20313,-0.65625 2.67188,-0.65625 1.46875,0 2.65625,0.65625 1.20312,0.65625 1.89062,1.875 0.6875,1.20313 0.6875,2.76563 0,1.57812 -0.70312,2.79687 -0.70313,1.20313 -1.9375,1.875 -1.21875,0.65625 -2.6875,0.65625 z m 0,-1.84375 q 0.8125,0 1.53125,-0.39062 0.71875,-0.40625 1.17187,-1.1875 0.45313,-0.78125 0.45313,-1.90625 0,-1.10938 -0.4375,-1.875 -0.42188,-0.78125 -1.14063,-1.17188 -0.70312,-0.39062 -1.53125,-0.39062 -0.8125,0 -1.51562,0.39062 -0.70313,0.39063 -1.10938,1.17188 -0.40625,0.76562 -0.40625,1.875 0,1.67187 0.84375,2.57812 0.85938,0.90625 2.14063,0.90625 z m 19.88705,-8.78125 q 1.21875,0 2.17187,0.51563 0.96875,0.5 1.51563,1.48437 0.54687,0.98438 0.54687,2.39063 v 6.0625 h -2.10937 v -5.75 q 0,-1.375 -0.6875,-2.10938 -0.6875,-0.73437 -1.89063,-0.73437 -1.1875,0 -1.89062,0.73437 -0.70313,0.73438 -0.70313,2.10938 v 5.75 h -2.10937 v -5.75 q 0,-1.375 -0.6875,-2.10938 -0.6875,-0.73437 -1.875,-0.73437 -1.20313,0 -1.90625,0.73437 -0.6875,0.73438 -0.6875,2.10938 v 5.75 h -2.125 v -10.28125 h 2.125 v 1.17187 q 0.51562,-0.625 1.3125,-0.98437 0.8125,-0.35938 1.71875,-0.35938 1.23437,0 2.20312,0.53125 0.96875,0.51563 1.5,1.51563 0.46875,-0.9375 1.45313,-1.48438 0.98437,-0.5625 2.125,-0.5625 z m 9.07135,1.70313 q 0.53125,-0.75 1.46875,-1.21875 0.95312,-0.48438 2.10937,-0.48438 1.35938,0 2.45313,0.65625 1.10937,0.65625 1.73437,1.85938 0.64063,1.20312 0.64063,2.75 0,1.54687 -0.64063,2.78125 -0.625,1.21875 -1.73437,1.90625 -1.10938,0.67187 -2.45313,0.67187 -1.20312,0 -2.125,-0.46875 -0.92187,-0.46875 -1.45312,-1.20312 v 1.5 h -2.125 v -13.8125 h 2.125 z m 6.25,3.5625 q 0,-1.0625 -0.4375,-1.82813 -0.4375,-0.78125 -1.15625,-1.17187 -0.71875,-0.40625 -1.54688,-0.40625 -0.79687,0 -1.51562,0.40625 -0.71875,0.40625 -1.15625,1.1875 -0.4375,0.78125 -0.4375,1.84375 0,1.07812 0.4375,1.875 0.4375,0.78125 1.15625,1.20312 0.71875,0.40625 1.51562,0.40625 0.82813,0 1.54688,-0.42187 0.71875,-0.42188 1.15625,-1.21875 0.4375,-0.8125 0.4375,-1.875 z"
       fill-rule="nonzero"
       id="path29" />
    <path
       fill="#f3f3f3"
       d="m 279.7953,238.99075 v 0 c 0,-4.49664 3.64523,-8.14189 8.14188,-8.14189 h 102.33038 c 2.15936,0 4.23028,0.8578 5.7572,2.3847 1.52688,1.5269 2.3847,3.59783 2.3847,5.75719 v 32.56662 c 0,4.49664 -3.64526,8.14188 -8.1419,8.14188 H 287.93718 v 0 c -4.49665,0 -8.14188,-3.64524 -8.14188,-8.14188 z"
       fill-rule="evenodd"
       id="path31" />
    <path
       stroke="#303030"
       stroke-width="1"
       stroke-linejoin="round"
       stroke-linecap="butt"
       d="m 279.7953,238.99075 v 0 c 0,-4.49664 3.64523,-8.14189 8.14188,-8.14189 h 102.33038 c 2.15936,0 4.23028,0.8578 5.7572,2.3847 1.52688,1.5269 2.3847,3.59783 2.3847,5.75719 v 32.56662 c 0,4.49664 -3.64526,8.14188 -8.1419,8.14188 H 287.93718 v 0 c -4.49665,0 -8.14188,-3.64524 -8.14188,-8.14188 z"
       fill-rule="evenodd"
       id="path33" />
    <path
       fill="#000000"
       d="m 301.33798,260.4753 h 4.375 v 1.71875 h -6.5 V 249.2253 h 2.125 z m 15.22089,-7.39063 q 0,1 -0.46875,1.875 -0.46875,0.875 -1.5,1.42188 -1.01563,0.54687 -2.625,0.54687 h -2.34375 v 5.26563 h -2.125 V 249.2253 h 4.46875 q 1.5,0 2.53125,0.51562 1.03125,0.51563 1.54687,1.39063 0.51563,0.875 0.51563,1.95312 z m -4.59375,2.10938 q 1.21875,0 1.8125,-0.54688 0.59375,-0.54687 0.59375,-1.5625 0,-2.125 -2.40625,-2.125 h -2.34375 v 4.23438 z m 10.76358,0.48437 q 0,-1.89062 0.89062,-3.40625 0.89063,-1.51562 2.40625,-2.35937 1.51563,-0.85938 3.32813,-0.85938 2.07812,0 3.6875,1.03125 1.60937,1.01563 2.34375,2.875 h -2.5625 q -0.5,-1.03125 -1.40625,-1.53125 -0.89063,-0.5 -2.0625,-0.5 -1.28125,0 -2.29688,0.57813 -1,0.57812 -1.57812,1.65625 -0.5625,1.07812 -0.5625,2.51562 0,1.4375 0.5625,2.53125 0.57812,1.07813 1.57812,1.67188 1.01563,0.57812 2.29688,0.57812 1.17187,0 2.0625,-0.5 0.90625,-0.51562 1.40625,-1.53125 h 2.5625 q -0.73438,1.85938 -2.34375,2.875 -1.60938,1 -3.6875,1 -1.82813,0 -3.34375,-0.84375 -1.5,-0.84375 -2.39063,-2.35937 -0.89062,-1.51563 -0.89062,-3.42188 z m 19.59317,6.6875 q -1.45313,0 -2.64063,-0.65625 -1.17187,-0.67187 -1.84375,-1.875 -0.67187,-1.20312 -0.67187,-2.79687 0,-1.5625 0.6875,-2.76563 0.70312,-1.21875 1.89062,-1.875 1.20313,-0.65625 2.67188,-0.65625 1.46875,0 2.65625,0.65625 1.20312,0.65625 1.89062,1.875 0.6875,1.20313 0.6875,2.76563 0,1.57812 -0.70312,2.79687 -0.70313,1.20313 -1.9375,1.875 -1.21875,0.65625 -2.6875,0.65625 z m 0,-1.84375 q 0.8125,0 1.53125,-0.39062 0.71875,-0.40625 1.17187,-1.1875 0.45313,-0.78125 0.45313,-1.90625 0,-1.10938 -0.4375,-1.875 -0.42188,-0.78125 -1.14063,-1.17188 -0.70312,-0.39062 -1.53125,-0.39062 -0.8125,0 -1.51562,0.39062 -0.70313,0.39063 -1.10938,1.17188 -0.40625,0.76562 -0.40625,1.875 0,1.67187 0.84375,2.57812 0.85938,0.90625 2.14063,0.90625 z m 19.88705,-8.78125 q 1.21875,0 2.17187,0.51563 0.96875,0.5 1.51563,1.48437 0.54687,0.98438 0.54687,2.39063 v 6.0625 h -2.10937 v -5.75 q 0,-1.375 -0.6875,-2.10938 -0.6875,-0.73437 -1.89063,-0.73437 -1.1875,0 -1.89062,0.73437 -0.70313,0.73438 -0.70313,2.10938 v 5.75 h -2.10937 v -5.75 q 0,-1.375 -0.6875,-2.10938 -0.6875,-0.73437 -1.875,-0.73437 -1.20313,0 -1.90625,0.73437 -0.6875,0.73438 -0.6875,2.10938 v 5.75 h -2.125 V 251.9128 h 2.125 v 1.17187 q 0.51562,-0.625 1.3125,-0.98437 0.8125,-0.35938 1.71875,-0.35938 1.23437,0 2.20312,0.53125 0.96875,0.51563 1.5,1.51563 0.46875,-0.9375 1.45313,-1.48438 0.98437,-0.5625 2.125,-0.5625 z m 9.07135,1.70313 q 0.53125,-0.75 1.46875,-1.21875 0.95312,-0.48438 2.10937,-0.48438 1.35938,0 2.45313,0.65625 1.10937,0.65625 1.73437,1.85938 0.64063,1.20312 0.64063,2.75 0,1.54687 -0.64063,2.78125 -0.625,1.21875 -1.73437,1.90625 -1.10938,0.67187 -2.45313,0.67187 -1.20312,0 -2.125,-0.46875 -0.92187,-0.46875 -1.45312,-1.20312 v 1.5 h -2.125 v -13.8125 h 2.125 z m 6.25,3.5625 q 0,-1.0625 -0.4375,-1.82813 -0.4375,-0.78125 -1.15625,-1.17187 -0.71875,-0.40625 -1.54688,-0.40625 -0.79687,0 -1.51562,0.40625 -0.71875,0.40625 -1.15625,1.1875 -0.4375,0.78125 -0.4375,1.84375 0,1.07812 0.4375,1.875 0.4375,0.78125 1.15625,1.20312 0.71875,0.40625 1.51562,0.40625 0.82813,0 1.54688,-0.42187 0.71875,-0.42188 1.15625,-1.21875 0.4375,-0.8125 0.4375,-1.875 z"
       fill-rule="nonzero"
       id="path35" />
    <path
       fill="#f3f3f3"
       d="m 279.7953,348.5078 v 0 c 0,-4.49664 3.64523,-8.14188 8.14188,-8.14188 h 102.33038 c 2.15936,0 4.23028,0.85779 5.7572,2.38471 1.52688,1.52688 2.3847,3.59781 2.3847,5.75717 v 32.56662 c 0,4.49664 -3.64526,8.14188 -8.1419,8.14188 H 287.93718 v 0 c -4.49665,0 -8.14188,-3.64524 -8.14188,-8.14188 z"
       fill-rule="evenodd"
       id="path37" />
    <path
       stroke="#303030"
       stroke-width="1"
       stroke-linejoin="round"
       stroke-linecap="butt"
       d="m 279.7953,348.5078 v 0 c 0,-4.49664 3.64523,-8.14188 8.14188,-8.14188 h 102.33038 c 2.15936,0 4.23028,0.85779 5.7572,2.38471 1.52688,1.52688 2.3847,3.59781 2.3847,5.75717 v 32.56662 c 0,4.49664 -3.64526,8.14188 -8.1419,8.14188 H 287.93718 v 0 c -4.49665,0 -8.14188,-3.64524 -8.14188,-8.14188 z"
       fill-rule="evenodd"
       id="path39" />
    <path
       fill="#000000"
       d="m 301.33798,369.99237 h 4.375 v 1.71875 h -6.5 v -12.96875 h 2.125 z m 15.22089,-7.39063 q 0,1 -0.46875,1.875 -0.46875,0.875 -1.5,1.42188 -1.01563,0.54687 -2.625,0.54687 h -2.34375 v 5.26563 h -2.125 v -12.96875 h 4.46875 q 1.5,0 2.53125,0.51562 1.03125,0.51563 1.54687,1.39063 0.51563,0.875 0.51563,1.95312 z m -4.59375,2.10938 q 1.21875,0 1.8125,-0.54688 0.59375,-0.54687 0.59375,-1.5625 0,-2.125 -2.40625,-2.125 h -2.34375 v 4.23438 z m 10.76358,0.48437 q 0,-1.89062 0.89062,-3.40625 0.89063,-1.51562 2.40625,-2.35937 1.51563,-0.85938 3.32813,-0.85938 2.07812,0 3.6875,1.03125 1.60937,1.01563 2.34375,2.875 h -2.5625 q -0.5,-1.03125 -1.40625,-1.53125 -0.89063,-0.5 -2.0625,-0.5 -1.28125,0 -2.29688,0.57813 -1,0.57812 -1.57812,1.65625 -0.5625,1.07812 -0.5625,2.51562 0,1.4375 0.5625,2.53125 0.57812,1.07813 1.57812,1.67188 1.01563,0.57812 2.29688,0.57812 1.17187,0 2.0625,-0.5 0.90625,-0.51562 1.40625,-1.53125 h 2.5625 q -0.73438,1.85938 -2.34375,2.875 -1.60938,1 -3.6875,1 -1.82813,0 -3.34375,-0.84375 -1.5,-0.84375 -2.39063,-2.35937 -0.89062,-1.51563 -0.89062,-3.42188 z m 19.59317,6.6875 q -1.45313,0 -2.64063,-0.65625 -1.17187,-0.67187 -1.84375,-1.875 -0.67187,-1.20312 -0.67187,-2.79687 0,-1.5625 0.6875,-2.76563 0.70312,-1.21875 1.89062,-1.875 1.20313,-0.65625 2.67188,-0.65625 1.46875,0 2.65625,0.65625 1.20312,0.65625 1.89062,1.875 0.6875,1.20313 0.6875,2.76563 0,1.57812 -0.70312,2.79687 -0.70313,1.20313 -1.9375,1.875 -1.21875,0.65625 -2.6875,0.65625 z m 0,-1.84375 q 0.8125,0 1.53125,-0.39062 0.71875,-0.40625 1.17187,-1.1875 0.45313,-0.78125 0.45313,-1.90625 0,-1.10938 -0.4375,-1.875 -0.42188,-0.78125 -1.14063,-1.17188 -0.70312,-0.39062 -1.53125,-0.39062 -0.8125,0 -1.51562,0.39062 -0.70313,0.39063 -1.10938,1.17188 -0.40625,0.76562 -0.40625,1.875 0,1.67187 0.84375,2.57812 0.85938,0.90625 2.14063,0.90625 z m 19.88705,-8.78125 q 1.21875,0 2.17187,0.51563 0.96875,0.5 1.51563,1.48437 0.54687,0.98438 0.54687,2.39063 v 6.0625 h -2.10937 v -5.75 q 0,-1.375 -0.6875,-2.10938 -0.6875,-0.73437 -1.89063,-0.73437 -1.1875,0 -1.89062,0.73437 -0.70313,0.73438 -0.70313,2.10938 v 5.75 h -2.10937 v -5.75 q 0,-1.375 -0.6875,-2.10938 -0.6875,-0.73437 -1.875,-0.73437 -1.20313,0 -1.90625,0.73437 -0.6875,0.73438 -0.6875,2.10938 v 5.75 h -2.125 v -10.28125 h 2.125 v 1.17187 q 0.51562,-0.625 1.3125,-0.98437 0.8125,-0.35938 1.71875,-0.35938 1.23437,0 2.20312,0.53125 0.96875,0.51563 1.5,1.51563 0.46875,-0.9375 1.45313,-1.48438 0.98437,-0.5625 2.125,-0.5625 z m 9.07135,1.70313 q 0.53125,-0.75 1.46875,-1.21875 0.95312,-0.48438 2.10937,-0.48438 1.35938,0 2.45313,0.65625 1.10937,0.65625 1.73437,1.85938 0.64063,1.20312 0.64063,2.75 0,1.54687 -0.64063,2.78125 -0.625,1.21875 -1.73437,1.90625 -1.10938,0.67187 -2.45313,0.67187 -1.20312,0 -2.125,-0.46875 -0.92187,-0.46875 -1.45312,-1.20312 v 1.5 h -2.125 v -13.8125 h 2.125 z m 6.25,3.5625 q 0,-1.0625 -0.4375,-1.82813 -0.4375,-0.78125 -1.15625,-1.17187 -0.71875,-0.40625 -1.54688,-0.40625 -0.79687,0 -1.51562,0.40625 -0.71875,0.40625 -1.15625,1.1875 -0.4375,0.78125 -0.4375,1.84375 0,1.07812 0.4375,1.875 0.4375,0.78125 1.15625,1.20312 0.71875,0.40625 1.51562,0.40625 0.82813,0 1.54688,-0.42187 0.71875,-0.42188 1.15625,-1.21875 0.4375,-0.8125 0.4375,-1.875 z"
       fill-rule="nonzero"
       id="path41" />
    <path
       fill="#f3f3f3"
       d="m 279.7953,403.26636 v 0 c 0,-4.49664 3.64523,-8.14191 8.14188,-8.14191 h 102.33038 c 2.15936,0 4.23028,0.85782 5.7572,2.38471 1.52688,1.52691 2.3847,3.59784 2.3847,5.7572 v 32.56659 c 0,4.49664 -3.64526,8.14191 -8.1419,8.14191 H 287.93718 v 0 c -4.49665,0 -8.14188,-3.64527 -8.14188,-8.14191 z"
       fill-rule="evenodd"
       id="path43" />
    <path
       stroke="#303030"
       stroke-width="1"
       stroke-linejoin="round"
       stroke-linecap="butt"
       d="m 279.7953,403.26636 v 0 c 0,-4.49664 3.64523,-8.14191 8.14188,-8.14191 h 102.33038 c 2.15936,0 4.23028,0.85782 5.7572,2.38471 1.52688,1.52691 2.3847,3.59784 2.3847,5.7572 v 32.56659 c 0,4.49664 -3.64526,8.14191 -8.1419,8.14191 H 287.93718 v 0 c -4.49665,0 -8.14188,-3.64527 -8.14188,-8.14191 z"
       fill-rule="evenodd"
       id="path45" />
    <path
       fill="#000000"
       d="m 301.33798,424.7509 h 4.375 v 1.71875 h -6.5 V 413.5009 h 2.125 z m 15.22089,-7.39063 q 0,1 -0.46875,1.875 -0.46875,0.875 -1.5,1.42188 -1.01563,0.54687 -2.625,0.54687 h -2.34375 v 5.26563 h -2.125 V 413.5009 h 4.46875 q 1.5,0 2.53125,0.51562 1.03125,0.51563 1.54687,1.39063 0.51563,0.875 0.51563,1.95312 z m -4.59375,2.10938 q 1.21875,0 1.8125,-0.54688 0.59375,-0.54687 0.59375,-1.5625 0,-2.125 -2.40625,-2.125 h -2.34375 v 4.23438 z m 10.76358,0.48437 q 0,-1.89062 0.89062,-3.40625 0.89063,-1.51562 2.40625,-2.35937 1.51563,-0.85938 3.32813,-0.85938 2.07812,0 3.6875,1.03125 1.60937,1.01563 2.34375,2.875 h -2.5625 q -0.5,-1.03125 -1.40625,-1.53125 -0.89063,-0.5 -2.0625,-0.5 -1.28125,0 -2.29688,0.57813 -1,0.57812 -1.57812,1.65625 -0.5625,1.07812 -0.5625,2.51562 0,1.4375 0.5625,2.53125 0.57812,1.07813 1.57812,1.67188 1.01563,0.57812 2.29688,0.57812 1.17187,0 2.0625,-0.5 0.90625,-0.51562 1.40625,-1.53125 h 2.5625 q -0.73438,1.85938 -2.34375,2.875 -1.60938,1 -3.6875,1 -1.82813,0 -3.34375,-0.84375 -1.5,-0.84375 -2.39063,-2.35937 -0.89062,-1.51563 -0.89062,-3.42188 z m 19.59317,6.6875 q -1.45313,0 -2.64063,-0.65625 -1.17187,-0.67187 -1.84375,-1.875 -0.67187,-1.20312 -0.67187,-2.79687 0,-1.5625 0.6875,-2.76563 0.70312,-1.21875 1.89062,-1.875 1.20313,-0.65625 2.67188,-0.65625 1.46875,0 2.65625,0.65625 1.20312,0.65625 1.89062,1.875 0.6875,1.20313 0.6875,2.76563 0,1.57812 -0.70312,2.79687 -0.70313,1.20313 -1.9375,1.875 -1.21875,0.65625 -2.6875,0.65625 z m 0,-1.84375 q 0.8125,0 1.53125,-0.39062 0.71875,-0.40625 1.17187,-1.1875 0.45313,-0.78125 0.45313,-1.90625 0,-1.10938 -0.4375,-1.875 -0.42188,-0.78125 -1.14063,-1.17188 -0.70312,-0.39062 -1.53125,-0.39062 -0.8125,0 -1.51562,0.39062 -0.70313,0.39063 -1.10938,1.17188 -0.40625,0.76562 -0.40625,1.875 0,1.67187 0.84375,2.57812 0.85938,0.90625 2.14063,0.90625 z m 19.88705,-8.78125 q 1.21875,0 2.17187,0.51563 0.96875,0.5 1.51563,1.48437 0.54687,0.98438 0.54687,2.39063 v 6.0625 h -2.10937 v -5.75 q 0,-1.375 -0.6875,-2.10938 -0.6875,-0.73437 -1.89063,-0.73437 -1.1875,0 -1.89062,0.73437 -0.70313,0.73438 -0.70313,2.10938 v 5.75 h -2.10937 v -5.75 q 0,-1.375 -0.6875,-2.10938 -0.6875,-0.73437 -1.875,-0.73437 -1.20313,0 -1.90625,0.73437 -0.6875,0.73438 -0.6875,2.10938 v 5.75 h -2.125 V 416.1884 h 2.125 v 1.17187 q 0.51562,-0.625 1.3125,-0.98437 0.8125,-0.35938 1.71875,-0.35938 1.23437,0 2.20312,0.53125 0.96875,0.51563 1.5,1.51563 0.46875,-0.9375 1.45313,-1.48438 0.98437,-0.5625 2.125,-0.5625 z m 9.07135,1.70313 q 0.53125,-0.75 1.46875,-1.21875 0.95312,-0.48438 2.10937,-0.48438 1.35938,0 2.45313,0.65625 1.10937,0.65625 1.73437,1.85938 0.64063,1.20312 0.64063,2.75 0,1.54687 -0.64063,2.78125 -0.625,1.21875 -1.73437,1.90625 -1.10938,0.67187 -2.45313,0.67187 -1.20312,0 -2.125,-0.46875 -0.92187,-0.46875 -1.45312,-1.20312 v 1.5 h -2.125 v -13.8125 h 2.125 z m 6.25,3.5625 q 0,-1.0625 -0.4375,-1.82813 -0.4375,-0.78125 -1.15625,-1.17187 -0.71875,-0.40625 -1.54688,-0.40625 -0.79687,0 -1.51562,0.40625 -0.71875,0.40625 -1.15625,1.1875 -0.4375,0.78125 -0.4375,1.84375 0,1.07812 0.4375,1.875 0.4375,0.78125 1.15625,1.20312 0.71875,0.40625 1.51562,0.40625 0.82813,0 1.54688,-0.42187 0.71875,-0.42188 1.15625,-1.21875 0.4375,-0.8125 0.4375,-1.875 z"
       fill-rule="nonzero"
       id="path47" />
    <path
       fill="#c2c2c2"
       d="m 203.9685,282.64676 v 0 c 0,-2.43527 1.97418,-4.40945 4.40945,-4.40945 v 0 c 1.16945,0 2.29102,0.46456 3.11795,1.2915 0.82692,0.82693 1.29149,1.94849 1.29149,3.11795 v 0 c 0,2.43527 -1.97418,4.40945 -4.40944,4.40945 v 0 c -2.43527,0 -4.40945,-1.97418 -4.40945,-4.40945 z"
       fill-rule="evenodd"
       id="path49" />
    <path
       stroke="#c2c2c2"
       stroke-width="1"
       stroke-linejoin="round"
       stroke-linecap="butt"
       d="m 203.9685,282.64676 v 0 c 0,-2.43527 1.97418,-4.40945 4.40945,-4.40945 v 0 c 1.16945,0 2.29102,0.46456 3.11795,1.2915 0.82692,0.82693 1.29149,1.94849 1.29149,3.11795 v 0 c 0,2.43527 -1.97418,4.40945 -4.40944,4.40945 v 0 c -2.43527,0 -4.40945,-1.97418 -4.40945,-4.40945 z"
       fill-rule="evenodd"
       id="path51" />
    <path
       fill="#000000"
       fill-opacity="0"
       d="m 212.7874,282.64676 h 33.50377 V 145.76488 h 33.51987"
       fill-rule="evenodd"
       id="path53" />
    <path
       stroke="#c2c2c2"
       stroke-width="2"
       stroke-linejoin="round"
       stroke-linecap="butt"
       d="m 212.7874,282.64676 h 33.50377 V 145.76488 h 21.51987"
       fill-rule="evenodd"
       id="path55" />
    <path
       fill="#c2c2c2"
       stroke="#c2c2c2"
       stroke-width="2"
       stroke-linecap="butt"
       d="m 267.81104,149.06834 9.07617,-3.30347 -9.07617,-3.30346 z"
       fill-rule="evenodd"
       id="path57" />
    <path
       fill="#000000"
       fill-opacity="0"
       d="m 279.7953,200.51553 h -33.50412 v 82.14172 h -33.48802"
       fill-rule="evenodd"
       id="path59" />
    <path
       stroke="#c2c2c2"
       stroke-width="2"
       stroke-linejoin="round"
       stroke-linecap="butt"
       d="m 267.7953,200.51552 h -21.50412 v 82.14174 h -33.48802"
       fill-rule="evenodd"
       id="path61" />
    <path
       fill="#c2c2c2"
       stroke="#c2c2c2"
       stroke-width="2"
       stroke-linecap="butt"
       d="m 267.7953,203.81898 9.07617,-3.30347 -9.07617,-3.30346 z"
       fill-rule="evenodd"
       id="path63" />
    <path
       fill="#000000"
       fill-opacity="0"
       d="m 279.7953,255.27406 h -33.50412 v 27.37007 h -33.48802"
       fill-rule="evenodd"
       id="path65" />
    <path
       stroke="#c2c2c2"
       stroke-width="2"
       stroke-linejoin="round"
       stroke-linecap="butt"
       d="m 267.7953,255.27405 h -21.50412 v 27.37009 h -33.48802"
       fill-rule="evenodd"
       id="path67" />
    <path
       fill="#c2c2c2"
       stroke="#c2c2c2"
       stroke-width="2"
       stroke-linecap="butt"
       d="m 267.7953,258.5775 9.07617,-3.30347 -9.07617,-3.30346 z"
       fill-rule="evenodd"
       id="path69" />
    <path
       fill="#000000"
       fill-opacity="0"
       d="M 279.7953,310.0326 H 246.29118 V 282.66251 H 212.80316"
       fill-rule="evenodd"
       id="path71" />
    <path
       stroke="#c2c2c2"
       stroke-width="2"
       stroke-linejoin="round"
       stroke-linecap="butt"
       d="M 267.7953,310.0326 H 246.29118 V 282.66251 H 212.80316"
       fill-rule="evenodd"
       id="path73" />
    <path
       fill="#c2c2c2"
       stroke="#c2c2c2"
       stroke-width="2"
       stroke-linecap="butt"
       d="m 267.7953,313.33606 9.07617,-3.30347 -9.07617,-3.30346 z"
       fill-rule="evenodd"
       id="path75" />
    <path
       fill="#000000"
       fill-opacity="0"
       d="M 279.7953,364.7911 H 246.29118 V 282.64938 H 212.80316"
       fill-rule="evenodd"
       id="path77" />
    <path
       stroke="#c2c2c2"
       stroke-width="2"
       stroke-linejoin="round"
       stroke-linecap="butt"
       d="M 267.7953,364.79114 H 246.29118 V 282.64939 H 212.80316"
       fill-rule="evenodd"
       id="path79" />
    <path
       fill="#c2c2c2"
       stroke="#c2c2c2"
       stroke-width="2"
       stroke-linecap="butt"
       d="m 267.7953,368.0946 9.07617,-3.30347 -9.07617,-3.30346 z"
       fill-rule="evenodd"
       id="path81" />
    <path
       fill="#000000"
       fill-opacity="0"
       d="M 279.7953,419.54965 H 246.29118 V 282.63626 h -33.48802"
       fill-rule="evenodd"
       id="path83" />
    <path
       stroke="#c2c2c2"
       stroke-width="2"
       stroke-linejoin="round"
       stroke-linecap="butt"
       d="M 267.7953,419.54965 H 246.29118 V 282.63626 h -33.48802"
       fill-rule="evenodd"
       id="path85" />
    <path
       fill="#c2c2c2"
       stroke="#c2c2c2"
       stroke-width="2"
       stroke-linecap="butt"
       d="m 267.7953,422.85312 9.07617,-3.30347 -9.07617,-3.30346 z"
       fill-rule="evenodd"
       id="path87" />
    <path
       fill="#000000"
       fill-opacity="0"
       d="M 208.37796,287.0562 V 468.22154 H 568.03149"
       fill-rule="evenodd"
       id="path89" />
    <path
       stroke="#c2c2c2"
       stroke-width="2"
       stroke-linejoin="round"
       stroke-linecap="butt"
       d="M 208.37796,287.0562 V 468.22157 H 556.03149"
       fill-rule="evenodd"
       id="path91" />
    <path
       fill="#c2c2c2"
       stroke="#c2c2c2"
       stroke-width="2"
       stroke-linecap="butt"
       d="m 556.0315,471.52505 9.07617,-3.30347 -9.07617,-3.30346 z"
       fill-rule="evenodd"
       id="path93" />
    <path
       fill="#000000"
       fill-opacity="0"
       d="m 339.10236,279.69925 v 5.92126"
       fill-rule="evenodd"
       id="path95" />
    <path
       stroke="#303030"
       stroke-width="1"
       stroke-linejoin="round"
       stroke-linecap="butt"
       d="m 339.10236,279.69925 v 5.92126"
       fill-rule="evenodd"
       id="path97" />
    <path
       fill="#f3f3f3"
       d="m 457.5748,282.64676 v 0 c 0,-13.39398 10.85797,-24.25195 24.25198,-24.25195 v 0 c 6.43201,0 12.60059,2.55511 17.14872,7.10324 4.54812,4.54812 7.10324,10.7167 7.10324,17.14871 v 0 c 0,13.39401 -10.85797,24.25198 -24.25196,24.25198 v 0 c -13.39401,0 -24.25198,-10.85797 -24.25198,-24.25198 z"
       fill-rule="evenodd"
       id="path99" />
    <path
       stroke="#303030"
       stroke-width="1"
       stroke-linejoin="round"
       stroke-linecap="butt"
       d="m 457.5748,282.64676 v 0 c 0,-13.39398 10.85797,-24.25195 24.25198,-24.25195 v 0 c 6.43201,0 12.60059,2.55511 17.14872,7.10324 4.54812,4.54812 7.10324,10.7167 7.10324,17.14871 v 0 c 0,13.39401 -10.85797,24.25198 -24.25196,24.25198 v 0 c -13.39401,0 -24.25198,-10.85797 -24.25198,-24.25198 z"
       fill-rule="evenodd"
       id="path101" />
    <path
       fill="#000000"
       d="m 487.8307,273.99927 v 2.03125 h -9.21875 l 5.85937,6.23438 -5.85937,6.89062 h 9.70312 v 2.03125 H 476.1432 v -2.375 l 5.60937,-6.54687 -5.60937,-5.96875 v -2.29688 z"
       fill-rule="nonzero"
       id="path103" />
    <path
       fill="#000000"
       fill-opacity="0"
       d="m 457.5652,282.66928 h -29.57007 v 136.8819 H 398.4156"
       fill-rule="evenodd"
       id="path105" />
    <path
       stroke="#c2c2c2"
       stroke-width="2"
       stroke-linejoin="round"
       stroke-linecap="butt"
       d="m 445.56522,282.66928 h -17.5701 v 136.8819 h -29.57953"
       fill-rule="evenodd"
       id="path107" />
    <path
       fill="#c2c2c2"
       stroke="#c2c2c2"
       stroke-width="2"
       stroke-linecap="butt"
       d="m 445.56522,285.97275 9.07617,-3.30347 -9.07617,-3.30346 z"
       fill-rule="evenodd"
       id="path109" />
    <path
       fill="#000000"
       fill-opacity="0"
       d="m 398.4112,364.80054 h 29.57007 v -82.14175 h 29.57953"
       fill-rule="evenodd"
       id="path111" />
    <path
       stroke="#c2c2c2"
       stroke-width="2"
       stroke-linejoin="round"
       stroke-linecap="butt"
       d="m 398.41116,364.80054 h 29.5701 v -82.14175 h 17.57953"
       fill-rule="evenodd"
       id="path113" />
    <path
       fill="#c2c2c2"
       stroke="#c2c2c2"
       stroke-width="2"
       stroke-linecap="butt"
       d="m 445.5608,285.96225 9.07617,-3.30347 -9.07617,-3.30346 z"
       fill-rule="evenodd"
       id="path115" />
    <path
       fill="#000000"
       fill-opacity="0"
       d="m 398.4112,310.042 h 29.57007 v -27.37009 h 29.57953"
       fill-rule="evenodd"
       id="path117" />
    <path
       stroke="#c2c2c2"
       stroke-width="2"
       stroke-linejoin="round"
       stroke-linecap="butt"
       d="m 398.41116,310.042 h 29.5701 v -27.37009 h 17.57953"
       fill-rule="evenodd"
       id="path119" />
    <path
       fill="#c2c2c2"
       stroke="#c2c2c2"
       stroke-width="2"
       stroke-linecap="butt"
       d="m 445.5608,285.97537 9.07617,-3.30347 -9.07617,-3.30346 z"
       fill-rule="evenodd"
       id="path121" />
    <path
       fill="#000000"
       fill-opacity="0"
       d="m 398.4112,255.28346 h 29.57007 v 27.37007 h 29.57953"
       fill-rule="evenodd"
       id="path123" />
    <path
       stroke="#c2c2c2"
       stroke-width="2"
       stroke-linejoin="round"
       stroke-linecap="butt"
       d="m 398.41116,255.28346 h 29.5701 v 27.37007 h 17.57953"
       fill-rule="evenodd"
       id="path125" />
    <path
       fill="#c2c2c2"
       stroke="#c2c2c2"
       stroke-width="2"
       stroke-linecap="butt"
       d="m 445.5608,285.957 9.07617,-3.30347 -9.07617,-3.30346 z"
       fill-rule="evenodd"
       id="path127" />
    <path
       fill="#000000"
       fill-opacity="0"
       d="m 398.4112,200.52493 h 29.57007 v 82.14172 h 29.57953"
       fill-rule="evenodd"
       id="path129" />
    <path
       stroke="#c2c2c2"
       stroke-width="2"
       stroke-linejoin="round"
       stroke-linecap="butt"
       d="m 398.41116,200.52493 h 29.5701 v 82.14172 h 17.57953"
       fill-rule="evenodd"
       id="path131" />
    <path
       fill="#c2c2c2"
       stroke="#c2c2c2"
       stroke-width="2"
       stroke-linecap="butt"
       d="m 445.5608,285.97012 9.07617,-3.30347 -9.07617,-3.30346 z"
       fill-rule="evenodd"
       id="path133" />
    <path
       fill="#000000"
       fill-opacity="0"
       d="m 398.4112,145.7664 h 29.57007 v 136.91338 h 29.57953"
       fill-rule="evenodd"
       id="path135" />
    <path
       stroke="#c2c2c2"
       stroke-width="2"
       stroke-linejoin="round"
       stroke-linecap="butt"
       d="m 398.41116,145.7664 h 29.5701 v 136.91338 h 17.57953"
       fill-rule="evenodd"
       id="path137" />
    <path
       fill="#c2c2c2"
       stroke="#c2c2c2"
       stroke-width="2"
       stroke-linecap="butt"
       d="m 445.5608,285.98325 9.07617,-3.30347 -9.07617,-3.30346 z"
       fill-rule="evenodd"
       id="path139" />
    <path
       fill="#f3f3f3"
       d="m 532.9055,266.3766 v 0 c 0,-4.49664 3.64526,-8.14191 8.14191,-8.14191 h 102.33038 c 2.15936,0 4.23028,0.85782 5.75714,2.38471 1.52691,1.52691 2.38476,3.59784 2.38476,5.7572 v 32.56659 c 0,4.49667 -3.64526,8.14191 -8.1419,8.14191 H 541.04741 v 0 c -4.49665,0 -8.14191,-3.64524 -8.14191,-8.14191 z"
       fill-rule="evenodd"
       id="path141" />
    <path
       stroke="#303030"
       stroke-width="1"
       stroke-linejoin="round"
       stroke-linecap="butt"
       d="m 532.9055,266.3766 v 0 c 0,-4.49664 3.64526,-8.14191 8.14191,-8.14191 h 102.33038 c 2.15936,0 4.23028,0.85782 5.75714,2.38471 1.52691,1.52691 2.38476,3.59784 2.38476,5.7572 v 32.56659 c 0,4.49667 -3.64526,8.14191 -8.1419,8.14191 H 541.04741 v 0 c -4.49665,0 -8.14191,-3.64524 -8.14191,-8.14191 z"
       fill-rule="evenodd"
       id="path143" />
    <path
       fill="#000000"
       d="m 567.393,286.92365 h -5.4375 l -0.92187,2.65625 h -2.21875 l 4.64062,-12.98438 h 2.46875 l 4.64063,12.98438 h -2.23438 z m -0.59375,-1.73438 -2.10937,-6.01562 -2.125,6.01562 z m 7.90967,-9.42187 v 13.8125 h -2.125 v -13.8125 z m 4.92523,0 v 13.8125 h -2.125 v -13.8125 z m 4.92529,5.04687 q 0.53125,-0.71875 1.46875,-1.20312 0.9375,-0.48438 2.10938,-0.48438 1.34375,0 2.45312,0.67188 1.10938,0.65625 1.73438,1.85937 0.64062,1.1875 0.64062,2.73438 0,1.54687 -0.64062,2.78125 -0.625,1.21875 -1.73438,1.90625 -1.10937,0.67187 -2.45312,0.67187 -1.17188,0 -2.09375,-0.46875 -0.90625,-0.48437 -1.48438,-1.20312 v 6.39062 h -2.125 v -15.17187 h 2.125 z m 6.25,3.57813 q 0,-1.0625 -0.4375,-1.82813 -0.4375,-0.78125 -1.15625,-1.17187 -0.71875,-0.40625 -1.54687,-0.40625 -0.79688,0 -1.51563,0.40625 -0.71875,0.40625 -1.15625,1.1875 -0.4375,0.78125 -0.4375,1.84375 0,1.07812 0.4375,1.875 0.4375,0.78125 1.15625,1.20312 0.71875,0.40625 1.51563,0.40625 0.82812,0 1.54687,-0.42187 0.71875,-0.42188 1.15625,-1.21875 0.4375,-0.8125 0.4375,-1.875 z m 3.55518,0 q 0,-1.54688 0.64062,-2.73438 0.65625,-1.20312 1.76563,-1.85937 1.10937,-0.67188 2.45312,-0.67188 1.20313,0 2.10938,0.48438 0.90625,0.46875 1.45312,1.1875 v -1.5 h 2.14063 v 10.28125 h -2.14063 v -1.53125 q -0.54687,0.73437 -1.48437,1.21875 -0.92188,0.48437 -2.125,0.48437 -1.32813,0 -2.42188,-0.67187 -1.09375,-0.6875 -1.75,-1.90625 -0.64062,-1.23438 -0.64062,-2.78125 z m 8.42187,0.0312 q 0,-1.0625 -0.4375,-1.84375 -0.4375,-0.78125 -1.15625,-1.1875 -0.70312,-0.40625 -1.53125,-0.40625 -0.8125,0 -1.53125,0.40625 -0.70312,0.39062 -1.14062,1.17187 -0.4375,0.76563 -0.4375,1.82813 0,1.0625 0.4375,1.875 0.4375,0.79687 1.15625,1.21875 0.71875,0.42187 1.51562,0.42187 0.82813,0 1.53125,-0.40625 0.71875,-0.42187 1.15625,-1.20312 0.4375,-0.79688 0.4375,-1.875 z m 8.66455,5.32812 q -1.20312,0 -2.17187,-0.4375 -0.95313,-0.4375 -1.51563,-1.1875 -0.5625,-0.76562 -0.59375,-1.70312 h 2.20313 q 0.0469,0.65625 0.60937,1.09375 0.57813,0.4375 1.4375,0.4375 0.89063,0 1.39063,-0.34375 0.5,-0.34375 0.5,-0.89063 0,-0.57812 -0.5625,-0.85937 -0.54688,-0.28125 -1.73438,-0.60938 -1.15625,-0.3125 -1.89062,-0.60937 -0.71875,-0.3125 -1.26563,-0.92188 -0.53125,-0.60937 -0.53125,-1.625 0,-0.8125 0.48438,-1.48437 0.5,-0.6875 1.39062,-1.07813 0.90625,-0.40625 2.09375,-0.40625 1.75,0 2.8125,0.89063 1.07813,0.89062 1.15625,2.42187 h -2.125 q -0.0625,-0.6875 -0.5625,-1.09375 -0.5,-0.42187 -1.35937,-0.42187 -0.84375,0 -1.29688,0.32812 -0.4375,0.3125 -0.4375,0.82813 0,0.40625 0.29688,0.6875 0.29687,0.28125 0.71875,0.4375 0.4375,0.15625 1.28125,0.40625 1.10937,0.29687 1.82812,0.60937 0.71875,0.29688 1.23438,0.90625 0.53125,0.59375 0.54687,1.57813 0,0.875 -0.48437,1.57812 -0.48438,0.6875 -1.375,1.07813 -0.875,0.39062 -2.07813,0.39062 z m 9.96241,0 q -1.20313,0 -2.17188,-0.4375 -0.95312,-0.4375 -1.51562,-1.1875 -0.5625,-0.76562 -0.59375,-1.70312 h 2.20312 q 0.0469,0.65625 0.60938,1.09375 0.57812,0.4375 1.4375,0.4375 0.89062,0 1.39062,-0.34375 0.5,-0.34375 0.5,-0.89063 0,-0.57812 -0.5625,-0.85937 -0.54687,-0.28125 -1.73437,-0.60938 -1.15625,-0.3125 -1.89063,-0.60937 -0.71875,-0.3125 -1.26562,-0.92188 -0.53125,-0.60937 -0.53125,-1.625 0,-0.8125 0.48437,-1.48437 0.5,-0.6875 1.39063,-1.07813 0.90625,-0.40625 2.09375,-0.40625 1.75,0 2.8125,0.89063 1.07812,0.89062 1.15625,2.42187 h -2.125 q -0.0625,-0.6875 -0.5625,-1.09375 -0.5,-0.42187 -1.35938,-0.42187 -0.84375,0 -1.29687,0.32812 -0.4375,0.3125 -0.4375,0.82813 0,0.40625 0.29687,0.6875 0.29688,0.28125 0.71875,0.4375 0.4375,0.15625 1.28125,0.40625 1.10938,0.29687 1.82813,0.60937 0.71875,0.29688 1.23437,0.90625 0.53125,0.59375 0.54688,1.57813 0,0.875 -0.48438,1.57812 -0.48437,0.6875 -1.375,1.07813 -0.875,0.39062 -2.07812,0.39062 z"
       fill-rule="nonzero"
       id="path145" />
    <path
       fill="#000000"
       fill-opacity="0"
       d="m 506.07874,282.64676 h 13.41333 v 0.063 h 13.42133"
       fill-rule="evenodd"
       id="path147" />
    <path
       stroke="#c2c2c2"
       stroke-width="2"
       stroke-linejoin="round"
       stroke-linecap="butt"
       d="m 506.07874,282.64676 h 13.41333 v 0.063 h 1.42133"
       fill-rule="evenodd"
       id="path149" />
    <path
       fill="#c2c2c2"
       stroke="#c2c2c2"
       stroke-width="2"
       stroke-linecap="butt"
       d="m 520.9134,286.0132 9.07617,-3.30347 -9.07617,-3.30346 z"
       fill-rule="evenodd"
       id="path151" />
    <path
       fill="#f3f3f3"
       d="m 689.01575,282.64676 v 0 c 0,-13.39398 10.85797,-24.25195 24.25195,-24.25195 v 0 c 6.43207,0 12.60065,2.55511 17.14875,7.10324 4.54815,4.54812 7.10327,10.7167 7.10327,17.14871 v 0 c 0,13.39401 -10.85803,24.25198 -24.25202,24.25198 v 0 c -13.39398,0 -24.25195,-10.85797 -24.25195,-24.25198 z"
       fill-rule="evenodd"
       id="path153" />
    <path
       stroke="#303030"
       stroke-width="1"
       stroke-linejoin="round"
       stroke-linecap="butt"
       d="m 689.01575,282.64676 v 0 c 0,-13.39398 10.85797,-24.25195 24.25195,-24.25195 v 0 c 6.43207,0 12.60065,2.55511 17.14875,7.10324 4.54815,4.54812 7.10327,10.7167 7.10327,17.14871 v 0 c 0,13.39401 -10.85803,24.25198 -24.25202,24.25198 v 0 c -13.39398,0 -24.25195,-10.85797 -24.25195,-24.25198 z"
       fill-rule="evenodd"
       id="path155" />
    <path
       fill="#000000"
       d="m 719.2716,273.99927 v 2.03125 h -9.21875 l 5.85938,6.23438 -5.85938,6.89062 h 9.70313 v 2.03125 H 707.5841 v -2.375 l 5.60938,-6.54687 -5.60938,-5.96875 v -2.29688 z"
       fill-rule="nonzero"
       id="path157" />
    <path
       fill="#000000"
       fill-opacity="0"
       d="m 651.5197,282.65988 h 18.74799 v 0.063 h 18.76379"
       fill-rule="evenodd"
       id="path159" />
    <path
       stroke="#c2c2c2"
       stroke-width="2"
       stroke-linejoin="round"
       stroke-linecap="butt"
       d="m 651.5197,282.65988 h 18.74799 v 0.063 h 6.76379"
       fill-rule="evenodd"
       id="path161" />
    <path
       fill="#c2c2c2"
       stroke="#c2c2c2"
       stroke-width="2"
       stroke-linecap="butt"
       d="m 677.0315,286.02634 9.07617,-3.30347 -9.07617,-3.30346 z"
       fill-rule="evenodd"
       id="path163" />
    <path
       fill="#000000"
       fill-opacity="0"
       d="m 616.40155,468.2257 h 96.8819 V 306.90289"
       fill-rule="evenodd"
       id="path165" />
    <path
       stroke="#c2c2c2"
       stroke-width="2"
       stroke-linejoin="round"
       stroke-linecap="butt"
       d="m 616.40155,468.2257 h 96.8819 V 318.90289"
       fill-rule="evenodd"
       id="path167" />
    <path
       fill="#c2c2c2"
       stroke="#c2c2c2"
       stroke-width="2"
       stroke-linecap="butt"
       d="m 716.5869,318.9029 -3.30347,-9.0762 -3.30346,9.0762 z"
       fill-rule="evenodd"
       id="path169" />
    <path
       fill="#000000"
       fill-opacity="0"
       d="M 203.9685,282.64676 H 154.48818"
       fill-rule="evenodd"
       id="path171" />
    <path
       stroke="#c2c2c2"
       stroke-width="2"
       stroke-linejoin="round"
       stroke-linecap="butt"
       d="M 203.9685,282.64676 H 154.48818"
       fill-rule="evenodd"
       id="path173" />
    <path
       fill="#000000"
       fill-opacity="0"
       d="m 136.96063,282.69138 -0.40945,0.40945"
       fill-rule="evenodd"
       id="path175" />
    <path
       stroke="#c2c2c2"
       stroke-width="4"
       stroke-linejoin="round"
       stroke-linecap="butt"
       d="m 136.96063,282.69138 -0.40945,0.40945"
       fill-rule="evenodd"
       id="path177" />
    <path
       stroke="#c2c2c2"
       stroke-width="4"
       stroke-linecap="butt"
       d="m 136.96063,289.2983 18.15239,-6.60693 -18.15239,-6.60694 z"
       fill-rule="evenodd"
       id="path179" />
    <path
       fill="#000000"
       fill-opacity="0"
       d="m 805.7638,282.69138 -0.40948,0.40945"
       fill-rule="evenodd"
       id="path181" />
    <path
       stroke="#c2c2c2"
       stroke-width="4"
       stroke-linejoin="round"
       stroke-linecap="butt"
       d="m 805.7638,282.69138 -0.40948,0.40945"
       fill-rule="evenodd"
       id="path183" />
    <path
       stroke="#c2c2c2"
       stroke-width="4"
       stroke-linecap="butt"
       d="m 805.7638,289.2983 18.1524,-6.60693 -18.1524,-6.60694 z"
       fill-rule="evenodd"
       id="path185" />
    <path
       fill="#000000"
       fill-opacity="0"
       d="m 737.5197,282.64676 h 67.1181"
       fill-rule="evenodd"
       id="path187" />
    <path
       stroke="#c2c2c2"
       stroke-width="2"
       stroke-linejoin="round"
       stroke-linecap="butt"
       d="m 737.5197,282.64676 h 67.1181"
       fill-rule="evenodd"
       id="path189" />
    <path
       fill="#000000"
       fill-opacity="0"
       d="M 248.59842,61.548557 H 429.60629 V 109.2021 H 248.59842 Z"
       fill-rule="evenodd"
       id="path191" />
    <path
       fill="#5b49c9"
       d="m 269.50354,76.16918 q 2.4375,0 4.21875,0.90625 1.78125,0.90625 2.71875,2.59375 0.95312,1.671875 0.95312,3.953125 0,2.28125 -0.95312,3.96875 -0.9375,1.671875 -2.71875,2.5625 -1.78125,0.875 -4.21875,0.875 h -4.625 V 76.16918 Z m 0,13.265625 q 2.89062,0 4.39062,-1.53125 1.51563,-1.53125 1.51563,-4.28125 0,-2.765625 -1.53125,-4.3125 -1.51563,-1.5625 -4.375,-1.5625 h -2.6875 v 11.6875 z m 21.12592,-4.703125 q 0,0.5625 -0.0625,1.171875 h -9.34375 q 0.0937,1.734375 1.17187,2.703125 1.07813,0.96875 2.625,0.96875 1.25,0 2.09375,-0.578125 0.84375,-0.59375 1.1875,-1.578125 h 2.09375 q -0.46875,1.6875 -1.89062,2.75 -1.40625,1.046875 -3.48438,1.046875 -1.67187,0 -2.98437,-0.734375 -1.3125,-0.75 -2.0625,-2.125 -0.73438,-1.375 -0.73438,-3.1875 0,-1.8125 0.71875,-3.171875 0.73438,-1.375 2.03125,-2.109375 1.3125,-0.734375 3.03125,-0.734375 1.65625,0 2.9375,0.734375 1.28125,0.71875 1.96875,1.984375 0.70313,1.265625 0.70313,2.859375 z m -2.01563,-0.40625 q 0,-1.109375 -0.48437,-1.90625 -0.48438,-0.796875 -1.32813,-1.203125 -0.84375,-0.421875 -1.875,-0.421875 -1.46875,0 -2.5,0.9375 -1.03125,0.9375 -1.1875,2.59375 z m 6.50473,-9.078125 v 15.78125 h -1.9375 v -15.78125 z m 2.59049,9.890625 q 0,-1.78125 0.71875,-3.140625 0.73437,-1.359375 2,-2.09375 1.26562,-0.75 2.82812,-0.75 1.53125,0 2.65625,0.65625 1.14063,0.65625 1.6875,1.65625 v -2.125 h 1.96875 v 11.6875 h -1.96875 V 88.85668 q -0.57812,1.015625 -1.71875,1.6875 -1.14062,0.671875 -2.65625,0.671875 -1.54687,0 -2.8125,-0.765625 -1.25,-0.765625 -1.98437,-2.140625 -0.71875,-1.390625 -0.71875,-3.171875 z m 9.89062,0.03125 q 0,-1.328125 -0.53125,-2.3125 -0.53125,-0.984375 -1.4375,-1.5 -0.90625,-0.515625 -2,-0.515625 -1.07812,0 -1.98437,0.515625 -0.89063,0.5 -1.42188,1.484375 -0.53125,0.984375 -0.53125,2.296875 0,1.34375 0.53125,2.34375 0.53125,0.984375 1.42188,1.515625 0.90625,0.515625 1.98437,0.515625 1.09375,0 2,-0.515625 0.90625,-0.53125 1.4375,-1.515625 0.53125,-1 0.53125,-2.3125 z m 15.3085,-5.828125 -7.03125,17.1875 h -2 l 2.29688,-5.625 -4.71875,-11.5625 h 2.15625 l 3.67187,9.46875 3.625,-9.46875 z m 19.32743,11.6875 h -1.9375 l -7.8125,-11.84375 v 11.84375 h -1.9375 V 76.13793 h 1.9375 l 7.8125,11.8125 v -11.8125 h 1.9375 z m 13.97808,-6.296875 q 0,0.5625 -0.0625,1.171875 h -9.34375 q 0.0937,1.734375 1.17188,2.703125 1.07812,0.96875 2.625,0.96875 1.25,0 2.09375,-0.578125 0.84375,-0.59375 1.1875,-1.578125 h 2.09375 q -0.46875,1.6875 -1.89063,2.75 -1.40625,1.046875 -3.48437,1.046875 -1.67188,0 -2.98438,-0.734375 -1.3125,-0.75 -2.0625,-2.125 -0.73437,-1.375 -0.73437,-3.1875 0,-1.8125 0.71875,-3.171875 0.73437,-1.375 2.03125,-2.109375 1.3125,-0.734375 3.03125,-0.734375 1.65625,0 2.9375,0.734375 1.28125,0.71875 1.96875,1.984375 0.70312,1.265625 0.70312,2.859375 z m -2.01562,-0.40625 q 0,-1.109375 -0.48438,-1.90625 -0.48437,-0.796875 -1.32812,-1.203125 -0.84375,-0.421875 -1.875,-0.421875 -1.46875,0 -2.5,0.9375 -1.03125,0.9375 -1.1875,2.59375 z m 6.94226,-3.390625 v 6.890625 q 0,0.859375 0.35937,1.21875 0.35938,0.34375 1.25,0.34375 h 1.4375 v 1.640625 h -1.75 q -1.625,0 -2.4375,-0.75 -0.8125,-0.75 -0.8125,-2.453125 v -6.890625 h -1.51562 v -1.59375 h 1.51562 v -2.9375 h 1.95313 v 2.9375 h 3.04687 v 1.59375 z m 20.96658,-1.59375 -3.65625,11.6875 h -2 l -2.8125,-9.28125 -2.82812,9.28125 h -2 l -3.67188,-11.6875 h 1.98438 l 2.6875,9.8125 2.90625,-9.8125 h 1.98437 l 2.82813,9.828125 2.65625,-9.828125 z m 7.00476,11.875 q -1.64062,0 -2.96875,-0.734375 -1.32812,-0.75 -2.09375,-2.125 -0.75,-1.375 -0.75,-3.1875 0,-1.796875 0.76563,-3.171875 0.78125,-1.375 2.125,-2.109375 1.34375,-0.734375 3.01562,-0.734375 1.65625,0 3,0.734375 1.34375,0.734375 2.125,2.109375 0.78125,1.359375 0.78125,3.171875 0,1.8125 -0.79687,3.1875 -0.79688,1.375 -2.17188,2.125 -1.35937,0.734375 -3.03125,0.734375 z m 0,-1.703125 q 1.04688,0 1.96875,-0.484375 0.92188,-0.5 1.48438,-1.46875 0.5625,-0.984375 0.5625,-2.390625 0,-1.40625 -0.5625,-2.390625 -0.54688,-0.984375 -1.45313,-1.453125 -0.89062,-0.484375 -1.9375,-0.484375 -1.0625,0 -1.95312,0.484375 -0.875,0.46875 -1.40625,1.453125 -0.53125,0.984375 -0.53125,2.390625 0,1.421875 0.51562,2.40625 0.53125,0.984375 1.39063,1.46875 0.875,0.46875 1.92187,0.46875 z m 10.49381,-8.28125 q 0.51562,-1 1.46875,-1.546875 0.95312,-0.5625 2.3125,-0.5625 v 2.015625 h -0.51563 q -3.26562,0 -3.26562,3.53125 v 6.359375 h -1.9375 v -11.6875 h 1.9375 z m 12.54919,9.796875 -4.59375,-5.15625 v 5.15625 h -1.9375 v -15.78125 h 1.9375 v 9.28125 l 4.5,-5.1875 h 2.71875 l -5.5,5.828125 5.51563,5.859375 z"
       fill-rule="nonzero"
       id="path193" />
    <path
       fill="#f3f3f3"
       d="m 279.7953,293.7493 v 0 c 0,-4.49664 3.64523,-8.14191 8.14188,-8.14191 h 102.33038 c 2.15936,0 4.23028,0.85782 5.7572,2.38471 1.52688,1.52691 2.3847,3.59784 2.3847,5.7572 v 32.56659 c 0,4.49664 -3.64526,8.14191 -8.1419,8.14191 H 287.93718 v 0 c -4.49665,0 -8.14188,-3.64527 -8.14188,-8.14191 z"
       fill-rule="evenodd"
       id="path195" />
    <path
       stroke="#303030"
       stroke-width="1"
       stroke-linejoin="round"
       stroke-linecap="butt"
       d="m 279.7953,293.7493 v 0 c 0,-4.49664 3.64523,-8.14191 8.14188,-8.14191 h 102.33038 c 2.15936,0 4.23028,0.85782 5.7572,2.38471 1.52688,1.52691 2.3847,3.59784 2.3847,5.7572 v 32.56659 c 0,4.49664 -3.64526,8.14191 -8.1419,8.14191 H 287.93718 v 0 c -4.49665,0 -8.14188,-3.64527 -8.14188,-8.14191 z"
       fill-rule="evenodd"
       id="path197" />
    <path
       fill="#000000"
       d="m 301.33798,315.23383 h 4.375 v 1.71875 h -6.5 v -12.96875 h 2.125 z m 15.22089,-7.39063 q 0,1 -0.46875,1.875 -0.46875,0.875 -1.5,1.42188 -1.01563,0.54687 -2.625,0.54687 h -2.34375 v 5.26563 h -2.125 v -12.96875 h 4.46875 q 1.5,0 2.53125,0.51562 1.03125,0.51563 1.54687,1.39063 0.51563,0.875 0.51563,1.95312 z m -4.59375,2.10938 q 1.21875,0 1.8125,-0.54688 0.59375,-0.54687 0.59375,-1.5625 0,-2.125 -2.40625,-2.125 h -2.34375 v 4.23438 z m 10.76358,0.48437 q 0,-1.89062 0.89062,-3.40625 0.89063,-1.51562 2.40625,-2.35937 1.51563,-0.85938 3.32813,-0.85938 2.07812,0 3.6875,1.03125 1.60937,1.01563 2.34375,2.875 h -2.5625 q -0.5,-1.03125 -1.40625,-1.53125 -0.89063,-0.5 -2.0625,-0.5 -1.28125,0 -2.29688,0.57813 -1,0.57812 -1.57812,1.65625 -0.5625,1.07812 -0.5625,2.51562 0,1.4375 0.5625,2.53125 0.57812,1.07813 1.57812,1.67188 1.01563,0.57812 2.29688,0.57812 1.17187,0 2.0625,-0.5 0.90625,-0.51562 1.40625,-1.53125 h 2.5625 q -0.73438,1.85938 -2.34375,2.875 -1.60938,1 -3.6875,1 -1.82813,0 -3.34375,-0.84375 -1.5,-0.84375 -2.39063,-2.35937 -0.89062,-1.51563 -0.89062,-3.42188 z m 19.59317,6.6875 q -1.45313,0 -2.64063,-0.65625 -1.17187,-0.67187 -1.84375,-1.875 -0.67187,-1.20312 -0.67187,-2.79687 0,-1.5625 0.6875,-2.76563 0.70312,-1.21875 1.89062,-1.875 1.20313,-0.65625 2.67188,-0.65625 1.46875,0 2.65625,0.65625 1.20312,0.65625 1.89062,1.875 0.6875,1.20313 0.6875,2.76563 0,1.57812 -0.70312,2.79687 -0.70313,1.20313 -1.9375,1.875 -1.21875,0.65625 -2.6875,0.65625 z m 0,-1.84375 q 0.8125,0 1.53125,-0.39062 0.71875,-0.40625 1.17187,-1.1875 0.45313,-0.78125 0.45313,-1.90625 0,-1.10938 -0.4375,-1.875 -0.42188,-0.78125 -1.14063,-1.17188 -0.70312,-0.39062 -1.53125,-0.39062 -0.8125,0 -1.51562,0.39062 -0.70313,0.39063 -1.10938,1.17188 -0.40625,0.76562 -0.40625,1.875 0,1.67187 0.84375,2.57812 0.85938,0.90625 2.14063,0.90625 z m 19.88705,-8.78125 q 1.21875,0 2.17187,0.51563 0.96875,0.5 1.51563,1.48437 0.54687,0.98438 0.54687,2.39063 v 6.0625 h -2.10937 v -5.75 q 0,-1.375 -0.6875,-2.10938 -0.6875,-0.73437 -1.89063,-0.73437 -1.1875,0 -1.89062,0.73437 -0.70313,0.73438 -0.70313,2.10938 v 5.75 h -2.10937 v -5.75 q 0,-1.375 -0.6875,-2.10938 -0.6875,-0.73437 -1.875,-0.73437 -1.20313,0 -1.90625,0.73437 -0.6875,0.73438 -0.6875,2.10938 v 5.75 h -2.125 v -10.28125 h 2.125 v 1.17187 q 0.51562,-0.625 1.3125,-0.98437 0.8125,-0.35938 1.71875,-0.35938 1.23437,0 2.20312,0.53125 0.96875,0.51563 1.5,1.51563 0.46875,-0.9375 1.45313,-1.48438 0.98437,-0.5625 2.125,-0.5625 z m 9.07135,1.70313 q 0.53125,-0.75 1.46875,-1.21875 0.95312,-0.48438 2.10937,-0.48438 1.35938,0 2.45313,0.65625 1.10937,0.65625 1.73437,1.85938 0.64063,1.20312 0.64063,2.75 0,1.54687 -0.64063,2.78125 -0.625,1.21875 -1.73437,1.90625 -1.10938,0.67187 -2.45313,0.67187 -1.20312,0 -2.125,-0.46875 -0.92187,-0.46875 -1.45312,-1.20312 v 1.5 h -2.125 v -13.8125 h 2.125 z m 6.25,3.5625 q 0,-1.0625 -0.4375,-1.82813 -0.4375,-0.78125 -1.15625,-1.17187 -0.71875,-0.40625 -1.54688,-0.40625 -0.79687,0 -1.51562,0.40625 -0.71875,0.40625 -1.15625,1.1875 -0.4375,0.78125 -0.4375,1.84375 0,1.07812 0.4375,1.875 0.4375,0.78125 1.15625,1.20312 0.71875,0.40625 1.51562,0.40625 0.82813,0 1.54688,-0.42187 0.71875,-0.42188 1.15625,-1.21875 0.4375,-0.8125 0.4375,-1.875 z"
       fill-rule="nonzero"
       id="path199" />
    <path
       fill="#000000"
       fill-opacity="0"
       d="m 531.48816,194.17169 h 121.44885 v 47.65355 H 531.48816 Z"
       fill-rule="evenodd"
       id="path201" />
    <path
       fill="#8a2748"
       d="m 552.63324,208.79233 q 2.4375,0 4.21875,0.90625 1.78125,0.90625 2.71875,2.59375 0.95312,1.67187 0.95312,3.95312 0,2.28125 -0.95312,3.96875 -0.9375,1.67188 -2.71875,2.5625 -1.78125,0.875 -4.21875,0.875 h -4.625 v -14.85937 z m 0,13.26562 q 2.89062,0 4.39062,-1.53125 1.51563,-1.53125 1.51563,-4.28125 0,-2.76562 -1.53125,-4.3125 -1.51563,-1.5625 -4.375,-1.5625 h -2.6875 v 11.6875 z m 11.45404,-12 q -0.54687,0 -0.9375,-0.375 -0.375,-0.39062 -0.375,-0.9375 0,-0.5625 0.375,-0.9375 0.39063,-0.39062 0.9375,-0.39062 0.53125,0 0.90625,0.39062 0.375,0.375 0.375,0.9375 0,0.54688 -0.375,0.9375 -0.375,0.375 -0.90625,0.375 z m 0.9375,1.90625 v 11.6875 h -1.9375 v -11.6875 z m 8.07483,1.59375 h -2.45313 v 10.09375 h -1.95312 v -10.09375 h -1.51563 v -1.59375 h 1.51563 v -0.82812 q 0,-1.96875 1.01562,-2.875 1.01563,-0.90625 3.25,-0.90625 v 1.625 q -1.28125,0 -1.79687,0.5 -0.51563,0.5 -0.51563,1.65625 v 0.82812 h 2.45313 z m 7.01703,0 h -2.45313 v 10.09375 h -1.95312 v -10.09375 h -1.51563 v -1.59375 h 1.51563 v -0.82812 q 0,-1.96875 1.01562,-2.875 1.01563,-0.90625 3.25,-0.90625 v 1.625 q -1.28125,0 -1.79687,0.5 -0.51563,0.5 -0.51563,1.65625 v 0.82812 h 2.45313 z m 12.61072,-1.59375 v 11.6875 h -1.9375 v -1.73437 q -0.54688,0.90625 -1.54688,1.40625 -0.98437,0.5 -2.1875,0.5 -1.35937,0 -2.45312,-0.5625 -1.07813,-0.5625 -1.71875,-1.6875 -0.625,-1.14063 -0.625,-2.76563 v -6.84375 h 1.92187 v 6.59375 q 0,1.71875 0.875,2.65625 0.875,0.92188 2.39063,0.92188 1.5625,0 2.45312,-0.95313 0.89063,-0.96875 0.89063,-2.79687 v -6.42188 z m 7.43127,11.875 q -1.34375,0 -2.42187,-0.45312 -1.0625,-0.45313 -1.6875,-1.28125 -0.60938,-0.82813 -0.67188,-1.89063 h 2 q 0.0937,0.875 0.82813,1.4375 0.73437,0.54688 1.9375,0.54688 1.10937,0 1.73437,-0.48438 0.64063,-0.5 0.64063,-1.23437 0,-0.78125 -0.6875,-1.14063 -0.67188,-0.375 -2.09375,-0.75 -1.3125,-0.32812 -2.14063,-0.67187 -0.8125,-0.35938 -1.40625,-1.04688 -0.57812,-0.70312 -0.57812,-1.82812 0,-0.90625 0.53125,-1.64063 0.53125,-0.75 1.51562,-1.1875 0.98438,-0.4375 2.25,-0.4375 1.9375,0 3.125,0.98438 1.20313,0.96875 1.28125,2.67187 h -1.9375 q -0.0625,-0.90625 -0.73437,-1.45312 -0.67188,-0.5625 -1.8125,-0.5625 -1.03125,0 -1.65625,0.45312 -0.625,0.4375 -0.625,1.17188 0,0.5625 0.375,0.9375 0.375,0.375 0.9375,0.60937 0.57812,0.21875 1.57812,0.5 1.25,0.32813 2.03125,0.67188 0.79688,0.32812 1.35938,0.98437 0.57812,0.65625 0.59375,1.73438 0,0.95312 -0.53125,1.71875 -0.53125,0.76562 -1.51563,1.20312 -0.96875,0.4375 -2.21875,0.4375 z m 7.99274,-13.78125 q -0.54688,0 -0.9375,-0.375 -0.375,-0.39062 -0.375,-0.9375 0,-0.5625 0.375,-0.9375 0.39062,-0.39062 0.9375,-0.39062 0.53125,0 0.90625,0.39062 0.375,0.375 0.375,0.9375 0,0.54688 -0.375,0.9375 -0.375,0.375 -0.90625,0.375 z m 0.9375,1.90625 v 11.6875 h -1.9375 v -11.6875 z m 8.40295,11.875 q -1.64062,0 -2.96875,-0.73437 -1.32812,-0.75 -2.09375,-2.125 -0.75,-1.375 -0.75,-3.1875 0,-1.79688 0.76563,-3.17188 0.78125,-1.375 2.125,-2.10937 1.34375,-0.73438 3.01562,-0.73438 1.65625,0 3,0.73438 1.34375,0.73437 2.125,2.10937 0.78125,1.35938 0.78125,3.17188 0,1.8125 -0.79687,3.1875 -0.79688,1.375 -2.17188,2.125 -1.35937,0.73437 -3.03125,0.73437 z m 0,-1.70312 q 1.04688,0 1.96875,-0.48438 0.92188,-0.5 1.48438,-1.46875 0.5625,-0.98437 0.5625,-2.39062 0,-1.40625 -0.5625,-2.39063 -0.54688,-0.98437 -1.45313,-1.45312 -0.89062,-0.48438 -1.9375,-0.48438 -1.0625,0 -1.95312,0.48438 -0.875,0.46875 -1.40625,1.45312 -0.53125,0.98438 -0.53125,2.39063 0,1.42187 0.51562,2.40625 0.53125,0.98437 1.39063,1.46875 0.875,0.46875 1.92187,0.46875 z m 14.25946,-10.39063 q 2.125,0 3.4375,1.29688 1.32813,1.28125 1.32813,3.71875 v 6.89062 h -1.92188 v -6.60937 q 0,-1.75 -0.875,-2.67188 -0.85937,-0.9375 -2.375,-0.9375 -1.54687,0 -2.45312,0.96875 -0.90625,0.95313 -0.90625,2.78125 v 6.46875 h -1.9375 v -11.6875 h 1.9375 v 1.65625 q 0.57812,-0.89062 1.5625,-1.375 1,-0.5 2.20312,-0.5 z"
       fill-rule="nonzero"
       id="path203" />
    <path
       fill="#f3f3f3"
       d="m 568.0236,444.95013 48.37793,23.27557 -48.37793,23.27561 z"
       fill-rule="evenodd"
       id="path205" />
    <path
       stroke="#303030"
       stroke-width="1"
       stroke-linejoin="round"
       stroke-linecap="butt"
       d="m 568.0236,444.95013 48.37793,23.27557 -48.37793,23.27561 z"
       fill-rule="evenodd"
       id="path207" />
    <path
       fill="#000000"
       fill-opacity="0"
       d="m 568.0236,458.70078 h 28.97638 v 19.05514 H 568.0236 Z"
       fill-rule="evenodd"
       id="path209" />
    <path
       fill="#000000"
       d="m 582.3853,468.51392 3.9375,5.54687 h -2.375 l -3.42187,-4.96875 -0.89063,4.96875 h -1.8125 l 1.96875,-11.125 h 1.8125 l -0.89062,5.07813 5.21875,-5.07813 h 2.28125 z"
       fill-rule="nonzero"
       id="path211" />
    <path
       fill="#000000"
       fill-opacity="0"
       d="m 341.98425,24.64567 h 276.0315 V 96.3937 h -276.0315 z"
       fill-rule="evenodd"
       id="path213" />
    <path
       fill="#ffffff"
       d="m 446.67426,66.68567 -3.5,-6.359375 h -0.98438 v 6.359375 h -4.10937 V 49.84192 h 6.89062 q 2,0 3.39063,0.703125 1.40625,0.6875 2.09375,1.90625 0.70312,1.203125 0.70312,2.6875 0,1.6875 -0.95312,3.015625 -0.9375,1.3125 -2.78125,1.859375 l 3.89062,6.671875 z m -4.48438,-9.265625 h 2.54688 q 1.125,0 1.6875,-0.546875 0.5625,-0.5625 0.5625,-1.5625 0,-0.96875 -0.5625,-1.515625 -0.5625,-0.546875 -1.6875,-0.546875 h -2.54688 z m 24.16358,2.359375 q 0,0.5625 -0.0625,1.1875 h -9.29688 q 0.0937,1.25 0.79688,1.921875 0.71875,0.65625 1.75,0.65625 1.53125,0 2.14062,-1.296875 h 4.35938 q -0.32813,1.3125 -1.20313,2.375 -0.875,1.046875 -2.20312,1.65625 -1.3125,0.59375 -2.95313,0.59375 -1.96875,0 -3.5,-0.828125 -1.53125,-0.84375 -2.40625,-2.40625 -0.85937,-1.5625 -0.85937,-3.65625 0,-2.078125 0.84375,-3.640625 0.85937,-1.5625 2.39062,-2.390625 1.54688,-0.84375 3.53125,-0.84375 1.95313,0 3.45313,0.8125 1.51562,0.8125 2.35937,2.328125 0.85938,1.515625 0.85938,3.53125 z m -4.20313,-1.078125 q 0,-1.0625 -0.71875,-1.6875 -0.71875,-0.625 -1.79687,-0.625 -1.03125,0 -1.75,0.609375 -0.70313,0.59375 -0.85938,1.703125 z m 12.39331,4.140625 2.90625,-9.546875 h 4.35938 l -4.75,13.390625 h -5.0625 l -4.75,-13.390625 h 4.39062 z m 21.61771,-3.0625 q 0,0.5625 -0.0625,1.1875 h -9.29687 q 0.0937,1.25 0.79687,1.921875 0.71875,0.65625 1.75,0.65625 1.53125,0 2.14063,-1.296875 h 4.35937 q -0.32812,1.3125 -1.20312,2.375 -0.875,1.046875 -2.20313,1.65625 -1.3125,0.59375 -2.95312,0.59375 -1.96875,0 -3.5,-0.828125 -1.53125,-0.84375 -2.40625,-2.40625 -0.85938,-1.5625 -0.85938,-3.65625 0,-2.078125 0.84375,-3.640625 0.85938,-1.5625 2.39063,-2.390625 1.54687,-0.84375 3.53125,-0.84375 1.95312,0 3.45312,0.8125 1.51563,0.8125 2.35938,2.328125 0.85937,1.515625 0.85937,3.53125 z m -4.20312,-1.078125 q 0,-1.0625 -0.71875,-1.6875 -0.71875,-0.625 -1.79688,-0.625 -1.03125,0 -1.75,0.609375 -0.70312,0.59375 -0.85937,1.703125 z m 10.47146,-3.171875 q 0.71875,-1.109375 1.79688,-1.734375 1.07812,-0.640625 2.40625,-0.640625 v 4.34375 h -1.14063 q -1.53125,0 -2.29687,0.65625 -0.76563,0.65625 -0.76563,2.3125 v 6.21875 h -4.10937 V 53.295045 h 4.10937 z m 10.27197,-0.34375 q 0.57813,-0.9375 1.65625,-1.5 1.07813,-0.578125 2.46875,-0.578125 1.65625,0 3,0.84375 1.34375,0.828125 2.125,2.390625 0.78125,1.5625 0.78125,3.625 0,2.0625 -0.78125,3.640625 -0.78125,1.5625 -2.125,2.421875 -1.34375,0.84375 -3,0.84375 -1.42187,0 -2.48437,-0.5625 -1.04688,-0.5625 -1.64063,-1.5 v 1.875 h -4.10937 V 48.920045 h 4.10937 z m 5.85938,4.78125 q 0,-1.53125 -0.85938,-2.40625 -0.84375,-0.890625 -2.09375,-0.890625 -1.23437,0 -2.09375,0.890625 -0.84375,0.890625 -0.84375,2.421875 0,1.546875 0.84375,2.4375 0.85938,0.875 2.09375,0.875 1.21875,0 2.07813,-0.890625 0.875,-0.90625 0.875,-2.4375 z"
       fill-rule="nonzero"
       id="path215" />
  </g>
</svg>
